RobotoSlab-Bold.ufo
<glyph name="exclam" format="1">
  <advance width="507"/>
  <unicode hex="0021"/>
  <outline>
    <contour>
      <point x="411" y="502" type="line"/>
      <point x="119" y="502" type="line"/>
      <point x="119" y="1456" type="line"/>
      <point x="411" y="1456" type="line"/>
    </contour>
    <contour>
      <point x="411" y="0" type="line"/>
      <point x="119" y="0" type="line"/>
      <point x="119" y="256" type="line"/>
      <point x="411" y="256" type="line"/>
    </contour>
  </outline>
</glyph>
<glyph name="dollar" format="1">
  <advance width="1107"/>
  <unicode hex="0024"/>
  <outline>
    <contour>
      <point x="543" y="610" type="curve" smooth="yes"/>
      <point x="247.0" y="718.0"/>
      <point x="107.0" y="829.666666667"/>
      <point x="107" y="1071" type="curve" smooth="yes"/>
      <point x="107.0" y="1295.0"/>
      <point x="261.333333333" y="1447.66666667"/>
      <point x="504" y="1473" type="curve"/>
      <point x="504" y="1688" type="line"/>
      <point x="663" y="1688" type="line"/>
      <point x="663" y="1470" type="line"/>
      <point x="896.333333333" y="1435.33333333"/>
      <point x="1039.66666667" y="1267.33333333"/>
      <point x="1037" y="1010" type="curve"/>
      <point x="1034" y="1005" type="line"/>
      <point x="750" y="1005" type="line"/>
      <point x="750.0" y="1162.33333333"/>
      <point x="679.666666667" y="1251.0"/>
      <point x="569" y="1251" type="curve" smooth="yes"/>
      <point x="454.333333333" y="1251.0"/>
      <point x="398.0" y="1179.33333333"/>
      <point x="398" y="1070" type="curve" smooth="yes"/>
      <point x="398.0" y="966.0"/>
      <point x="447.333333333" y="910.666666667"/>
      <point x="606" y="848" type="curve" smooth="yes"/>
      <point x="900.666666667" y="732.0"/>
      <point x="1041.0" y="622.333333333"/>
      <point x="1041" y="385" type="curve" smooth="yes"/>
      <point x="1041.0" y="154.333333333"/>
      <point x="887.0" y="9.33333333333"/>
      <point x="643" y="-16" type="curve"/>
      <point x="643" y="-214" type="line"/>
      <point x="484" y="-214" type="line"/>
      <point x="484" y="-17" type="line"/>
      <point x="234.666666667" y="8.33333333333"/>
      <point x="51.6666666667" y="155.666666667"/>
      <point x="57" y="449" type="curve"/>
      <point x="59" y="454" type="line"/>
      <point x="343" y="454" type="line"/>
      <point x="343.0" y="275.333333333"/>
      <point x="435.666666667" y="204.0"/>
      <point x="561" y="204" type="curve" smooth="yes"/>
      <point x="682.333333333" y="204.0"/>
      <point x="749.0" y="273.666666667"/>
      <point x="749" y="383" type="curve" smooth="yes"/>
      <point x="749.0" y="491.0"/>
      <point x="693.666666667" y="551.333333333"/>
    </contour>
  </outline>
</glyph>
<glyph name="quotesingle" format="1">
  <advance width="449"/>
  <unicode hex="0027"/>
  <outline>
    <contour>
      <point x="338.0" y="1291.0" type="line"/>
      <point x="268.0" y="1008.0" type="line"/>
      <point x="139.0" y="1008.0" type="line"/>
      <point x="139.0" y="1323.0" type="line"/>
      <point x="139.0" y="1560.0" type="line"/>
      <point x="338.0" y="1560.0" type="line"/>
    </contour>
  </outline>
</glyph>
<glyph name="parenright" format="1">
  <advance width="712"/>
  <unicode hex="0029"/>
  <outline>
    <contour>
      <point x="631" y="570" type="line" smooth="yes"/>
      <point x="631.0" y="59.333333333333485"/>
      <point x="379.6666666666667" y="-343.33333333333337"/>
      <point x="121" y="-450" type="curve"/>
      <point x="115" y="-450" type="line"/>
      <point x="61" y="-307" type="line"/>
      <point x="233.0" y="-176.33333333333337"/>
      <point x="370.0" y="116.0"/>
      <point x="370" y="568" type="curve" smooth="yes"/>
      <point x="370" y="594" type="line" smooth="yes"/>
      <point x="370.0" y="1042.0"/>
      <point x="230.33333333333331" y="1338.0"/>
      <point x="61" y="1470" type="curve"/>
      <point x="115" y="1612" type="line"/>
      <point x="121" y="1612" type="line"/>
      <point x="379.66666666666663" y="1505.3333333333335"/>
      <point x="631.0" y="1101.3333333333333"/>
      <point x="631" y="592" type="curve" smooth="yes"/>
    </contour>
  </outline>
</glyph>
<glyph name="asterisk" format="1">
  <advance width="914"/>
  <unicode hex="002A"/>
  <outline>
    <contour>
      <point x="336" y="966" type="line"/>
      <point x="34" y="1055" type="line"/>
      <point x="91" y="1232" type="line"/>
      <point x="388" y="1109" type="line"/>
      <point x="370" y="1456" type="line"/>
      <point x="558" y="1456" type="line"/>
      <point x="538" y="1103" type="line"/>
      <point x="829" y="1223" type="line"/>
      <point x="885" y="1043" type="line"/>
      <point x="579" y="954" type="line"/>
      <point x="779" y="689" type="line"/>
      <point x="628" y="579" type="line"/>
      <point x="453" y="869" type="line"/>
      <point x="280" y="588" type="line"/>
      <point x="128" y="694" type="line"/>
    </contour>
  </outline>
</glyph>
<glyph name="plus" format="1">
  <advance width="1098"/>
  <unicode hex="002B"/>
  <outline>
    <contour>
      <point x="688" y="812" type="line"/>
      <point x="1047" y="812" type="line"/>
      <point x="1047" y="560" type="line"/>
      <point x="688" y="560" type="line"/>
      <point x="688" y="146" type="line"/>
      <point x="411" y="146" type="line"/>
      <point x="411" y="560" type="line"/>
      <point x="49" y="560" type="line"/>
      <point x="49" y="812" type="line"/>
      <point x="411" y="812" type="line"/>
      <point x="411" y="1206" type="line"/>
      <point x="688" y="1206" type="line"/>
    </contour>
  </outline>
</glyph>
<glyph name="comma" format="1">
  <advance width="503"/>
  <unicode hex="002C"/>
  <outline>
    <contour>
      <point x="400" y="39" type="line"/>
      <point x="400.0" y="-97.0"/>
      <point x="312.66666666666663" y="-266.66666666666663"/>
      <point x="202" y="-364" type="curve"/>
      <point x="58" y="-286" type="line"/>
      <point x="110.0" y="-192.66666666666669"/>
      <point x="139.0" y="-97.66666666666666"/>
      <point x="139" y="25" type="curve" smooth="yes"/>
      <point x="139" y="243" type="line"/>
      <point x="401" y="243" type="line"/>
    </contour>
  </outline>
</glyph>
<glyph name="hyphen" format="1">
  <advance width="815"/>
  <unicode hex="002D"/>
  <outline>
    <contour>
      <point x="695" y="510" type="line"/>
      <point x="131" y="510" type="line"/>
      <point x="131" y="735" type="line"/>
      <point x="695" y="735" type="line"/>
    </contour>
  </outline>
</glyph>
<glyph name="period" format="1">
  <advance width="522"/>
  <unicode hex="002E"/>
  <outline>
    <contour>
      <point x="420" y="0" type="line"/>
      <point x="129" y="0" type="line"/>
      <point x="129" y="256" type="line"/>
      <point x="420" y="256" type="line"/>
    </contour>
  </outline>
</glyph>
<glyph name="zero" format="1">
  <advance width="1170"/>
  <unicode hex="0030"/>
  <outline>
    <contour>
      <point x="1082" y="567" type="line" smooth="yes"/>
      <point x="1082.0" y="181.66666666666663"/>
      <point x="892.3333333333333" y="-21.0"/>
      <point x="591" y="-21" type="curve" smooth="yes"/>
      <point x="286.99999999999994" y="-21.0"/>
      <point x="97.0" y="181.66666666666686"/>
      <point x="97" y="567" type="curve" smooth="yes"/>
      <point x="97" y="888" type="line" smooth="yes"/>
      <point x="97.0" y="1272.0"/>
      <point x="286.33333333333337" y="1477.0"/>
      <point x="589" y="1477" type="curve" smooth="yes"/>
      <point x="890.3333333333333" y="1477.0"/>
      <point x="1082.0" y="1272.0"/>
      <point x="1082" y="888" type="curve" smooth="yes"/>
    </contour>
    <contour>
      <point x="791" y="918" type="line" smooth="yes"/>
      <point x="791.0" y="1148.6666666666665"/>
      <point x="719.6666666666667" y="1252.0"/>
      <point x="589" y="1252" type="curve" smooth="yes"/>
      <point x="457.0" y="1252.0"/>
      <point x="388.0" y="1150.0"/>
      <point x="388" y="918" type="curve" smooth="yes"/>
      <point x="388" y="539" type="line" smooth="yes"/>
      <point x="388.0" y="304.33333333333337"/>
      <point x="457.66666666666674" y="203.0"/>
      <point x="591" y="203" type="curve" smooth="yes"/>
      <point x="721.6666666666667" y="203.0"/>
      <point x="791.0" y="304.33333333333337"/>
      <point x="791" y="539" type="curve" smooth="yes"/>
    </contour>
  </outline>
</glyph>
<glyph name="three" format="1">
  <advance width="1112"/>
  <unicode hex="0033"/>
  <outline>
    <contour>
      <point x="381" y="852" type="line"/>
      <point x="545" y="852" type="line" smooth="yes"/>
      <point x="683.6666666666667" y="852.0"/>
      <point x="749.0" y="928.6666666666667"/>
      <point x="749" y="1058" type="curve" smooth="yes"/>
      <point x="749.0" y="1175.3333333333335"/>
      <point x="680.6666666666667" y="1252.0"/>
      <point x="554" y="1252" type="curve" smooth="yes"/>
      <point x="444.66666666666663" y="1252.0"/>
      <point x="360.0" y="1182.0"/>
      <point x="360" y="1078" type="curve"/>
      <point x="77" y="1078" type="line"/>
      <point x="75" y="1084" type="line"/>
      <point x="67.0" y="1312.0"/>
      <point x="275.33333333333337" y="1477.0"/>
      <point x="546" y="1477" type="curve" smooth="yes"/>
      <point x="847.3333333333333" y="1477.0"/>
      <point x="1041.0" y="1327.6666666666665"/>
      <point x="1041" y="1061" type="curve" smooth="yes"/>
      <point x="1041.0" y="934.3333333333333"/>
      <point x="956.0" y="811.0"/>
      <point x="816" y="747" type="curve"/>
      <point x="977.3333333333331" y="689.6666666666667"/>
      <point x="1064.0" y="565.3333333333333"/>
      <point x="1064" y="408" type="curve" smooth="yes"/>
      <point x="1064.0" y="141.33333333333331"/>
      <point x="848.6666666666665" y="-21.0"/>
      <point x="546" y="-21" type="curve" smooth="yes"/>
      <point x="275.33333333333337" y="-21.0"/>
      <point x="50.33333333333333" y="128.66666666666674"/>
      <point x="57" y="390" type="curve"/>
      <point x="59" y="396" type="line"/>
      <point x="342" y="396" type="line"/>
      <point x="342.0" y="284.0"/>
      <point x="431.33333333333337" y="203.0"/>
      <point x="554" y="203" type="curve" smooth="yes"/>
      <point x="688.6666666666667" y="203.0"/>
      <point x="772.0" y="283.0"/>
      <point x="772" y="411" type="curve" smooth="yes"/>
      <point x="772.0" y="564.3333333333333"/>
      <point x="694.3333333333333" y="633.0"/>
      <point x="545" y="633" type="curve" smooth="yes"/>
      <point x="381" y="633" type="line"/>
    </contour>
  </outline>
</glyph>
<glyph name="four" format="1">
  <advance width="1154"/>
  <unicode hex="0034"/>
  <outline>
    <contour>
      <point x="935" y="542" type="line"/>
      <point x="1100" y="542" type="line"/>
      <point x="1100" y="348" type="line"/>
      <point x="935" y="348" type="line"/>
      <point x="935" y="205" type="line"/>
      <point x="1090" y="175" type="line"/>
      <point x="1090" y="0" type="line"/>
      <point x="488" y="0" type="line"/>
      <point x="488" y="175" type="line"/>
      <point x="644" y="205" type="line"/>
      <point x="644" y="348" type="line"/>
      <point x="50" y="348" type="line"/>
      <point x="36" y="491" type="line"/>
      <point x="641" y="1456" type="line"/>
      <point x="935" y="1456" type="line"/>
    </contour>
    <contour>
      <point x="309" y="542" type="line"/>
      <point x="644" y="542" type="line"/>
      <point x="644" y="1067" type="line"/>
      <point x="638" y="1069" type="line"/>
      <point x="614" y="1027" type="line"/>
    </contour>
  </outline>
</glyph>
<glyph name="five" format="1">
  <advance width="1092"/>
  <unicode hex="0035"/>
  <outline>
    <contour>
      <point x="834" y="1124" type="line"/>
      <point x="808" y="1222" type="line"/>
      <point x="416" y="1222" type="line"/>
      <point x="375" y="886" type="line"/>
      <point x="429.66666666666663" y="926.0"/>
      <point x="507.0" y="954.6666666666667"/>
      <point x="599" y="956" type="curve" smooth="yes"/>
      <point x="879.0" y="960.0"/>
      <point x="1039.0" y="776.3333333333333"/>
      <point x="1039" y="467" type="curve" smooth="yes"/>
      <point x="1039.0" y="187.0"/>
      <point x="865.3333333333333" y="-21.0"/>
      <point x="548" y="-21" type="curve" smooth="yes"/>
      <point x="281.33333333333337" y="-21.0"/>
      <point x="60.33333333333333" y="134.0"/>
      <point x="67" y="390" type="curve"/>
      <point x="69" y="395" type="line"/>
      <point x="349" y="409" type="line"/>
      <point x="349.0" y="279.66666666666674"/>
      <point x="429.33333333333337" y="203.0"/>
      <point x="548" y="203" type="curve" smooth="yes"/>
      <point x="684.0" y="203.0"/>
      <point x="748.0" y="310.33333333333337"/>
      <point x="748" y="465" type="curve" smooth="yes"/>
      <point x="748.0" y="633.0"/>
      <point x="678.3333333333333" y="743.0"/>
      <point x="541" y="743" type="curve" smooth="yes"/>
      <point x="430.33333333333337" y="743.0"/>
      <point x="375.33333333333337" y="698.6666666666667"/>
      <point x="350" y="628" type="curve"/>
      <point x="92" y="645" type="line"/>
      <point x="176" y="1456" type="line"/>
      <point x="1014" y="1456" type="line"/>
      <point x="1014" y="1124" type="line"/>
    </contour>
  </outline>
</glyph>
<glyph name="six" format="1">
  <advance width="1144"/>
  <unicode hex="0036"/>
  <outline>
    <contour>
      <point x="675" y="1477" type="curve" smooth="yes"/>
      <point x="784.3333333333333" y="1477.0"/>
      <point x="872.6666666666667" y="1456.0"/>
      <point x="966" y="1416" type="curve"/>
      <point x="915" y="1203" type="line"/>
      <point x="831.0" y="1232.3333333333335"/>
      <point x="769.0" y="1248.0"/>
      <point x="677" y="1248" type="curve" smooth="yes"/>
      <point x="503.66666666666674" y="1248.0"/>
      <point x="390.33333333333337" y="1119.6666666666667"/>
      <point x="389" y="873" type="curve"/>
      <point x="392" y="868" type="line"/>
      <point x="457.3333333333334" y="936.0"/>
      <point x="561.0" y="977.0"/>
      <point x="685" y="977" type="curve" smooth="yes"/>
      <point x="945.0" y="977.0"/>
      <point x="1102.0" y="771.6666666666665"/>
      <point x="1102" y="485" type="curve" smooth="yes"/>
      <point x="1102.0" y="191.66666666666663"/>
      <point x="900.3333333333331" y="-21.0"/>
      <point x="611" y="-21" type="curve" smooth="yes"/>
      <point x="304.33333333333337" y="-21.0"/>
      <point x="91.0" y="199.66666666666674"/>
      <point x="91" y="569" type="curve" smooth="yes"/>
      <point x="91" y="825" type="line" smooth="yes"/>
      <point x="91.0" y="1237.0"/>
      <point x="332.33333333333337" y="1477.0"/>
    </contour>
    <contour>
      <point x="608" y="756" type="curve" smooth="yes"/>
      <point x="500.0" y="756.0"/>
      <point x="423.33333333333337" y="719.0"/>
      <point x="382" y="659" type="curve"/>
      <point x="382" y="562" type="line" smooth="yes"/>
      <point x="382.0" y="331.33333333333337"/>
      <point x="472.33333333333326" y="203.0"/>
      <point x="611" y="203" type="curve" smooth="yes"/>
      <point x="731.0" y="203.0"/>
      <point x="810.0" y="329.0"/>
      <point x="810" y="485" type="curve" smooth="yes"/>
      <point x="810.0" y="646.3333333333333"/>
      <point x="730.6666666666667" y="756.0"/>
    </contour>
  </outline>
</glyph>
<glyph name="seven" format="1">
  <advance width="1107"/>
  <unicode hex="0037"/>
  <outline>
    <contour>
      <point x="1078" y="1231" type="line"/>
      <point x="766.0" y="865.6666666666665"/>
      <point x="685.3333333333333" y="594.6666666666666"/>
      <point x="636" y="148" type="curve" smooth="yes"/>
      <point x="622" y="0" type="line"/>
      <point x="330" y="0" type="line"/>
      <point x="344" y="148" type="line" smooth="yes"/>
      <point x="389.33333333333337" y="576.0"/>
      <point x="537.0" y="931.0"/>
      <point x="797" y="1231" type="curve"/>
      <point x="284" y="1231" type="line"/>
      <point x="273" y="1087" type="line"/>
      <point x="49" y="1087" type="line"/>
      <point x="49" y="1456" type="line"/>
      <point x="1078" y="1456" type="line"/>
    </contour>
  </outline>
</glyph>
<glyph name="eight" format="1">
  <advance width="1115"/>
  <unicode hex="0038"/>
  <outline>
    <contour>
      <point x="1026" y="1070" type="curve" smooth="yes"/>
      <point x="1026.0" y="924.6666666666667"/>
      <point x="943.6666666666667" y="808.6666666666667"/>
      <point x="809" y="746" type="curve"/>
      <point x="963.6666666666669" y="680.6666666666667"/>
      <point x="1059.0" y="554.0"/>
      <point x="1059" y="398" type="curve" smooth="yes"/>
      <point x="1059.0" y="128.66666666666674"/>
      <point x="858.6666666666665" y="-21.0"/>
      <point x="564" y="-21" type="curve" smooth="yes"/>
      <point x="267.99999999999994" y="-21.0"/>
      <point x="67.0" y="128.66666666666674"/>
      <point x="67" y="398" type="curve" smooth="yes"/>
      <point x="67.0" y="555.3333333333333"/>
      <point x="161.33333333333337" y="680.6666666666667"/>
      <point x="316" y="746" type="curve"/>
      <point x="180.0" y="808.6666666666667"/>
      <point x="100.0" y="924.6666666666667"/>
      <point x="100" y="1070" type="curve" smooth="yes"/>
      <point x="100.0" y="1328.6666666666665"/>
      <point x="284.6666666666667" y="1477.0"/>
      <point x="562" y="1477" type="curve" smooth="yes"/>
      <point x="839.3333333333333" y="1477.0"/>
      <point x="1026.0" y="1328.6666666666665"/>
    </contour>
    <contour>
      <point x="768" y="418" type="curve" smooth="yes"/>
      <point x="768.0" y="548.6666666666666"/>
      <point x="683.3333333333333" y="634.0"/>
      <point x="562" y="634" type="curve" smooth="yes"/>
      <point x="440.66666666666663" y="634.0"/>
      <point x="359.0" y="548.6666666666666"/>
      <point x="359" y="418" type="curve" smooth="yes"/>
      <point x="359.0" y="284.66666666666674"/>
      <point x="440.0" y="203.0"/>
      <point x="564" y="203" type="curve" smooth="yes"/>
      <point x="685.3333333333333" y="203.0"/>
      <point x="768.0" y="286.0"/>
    </contour>
    <contour>
      <point x="734" y="1057" type="curve" smooth="yes"/>
      <point x="734.0" y="1174.3333333333335"/>
      <point x="667.3333333333333" y="1252.0"/>
      <point x="562" y="1252" type="curve" smooth="yes"/>
      <point x="455.33333333333337" y="1252.0"/>
      <point x="393.0" y="1177.0"/>
      <point x="393" y="1057" type="curve" smooth="yes"/>
      <point x="393.0" y="935.6666666666667"/>
      <point x="456.0" y="859.0"/>
      <point x="564" y="859" type="curve" smooth="yes"/>
      <point x="669.3333333333333" y="859.0"/>
      <point x="734.0" y="935.6666666666667"/>
    </contour>
  </outline>
</glyph>
<glyph name="less" format="1">
  <advance width="1012"/>
  <unicode hex="003C"/>
  <outline>
    <contour>
      <point x="343.0" y="550.0" type="line"/>
      <point x="343.0" y="544.0" type="line"/>
      <point x="392.0" y="527.0" type="line"/>
      <point x="919.0" y="341.0" type="line"/>
      <point x="919.0" y="69.0" type="line"/>
      <point x="58.0" y="436.0" type="line"/>
      <point x="58.0" y="663.0" type="line"/>
      <point x="919.0" y="1029.0" type="line"/>
      <point x="919.0" y="757.0" type="line"/>
      <point x="397.0" y="569.0" type="line"/>
    </contour>
  </outline>
</glyph>
<glyph name="equal" format="1">
  <advance width="1123"/>
  <unicode hex="003D"/>
  <outline>
    <contour>
      <point x="1019" y="763" type="line"/>
      <point x="123" y="763" type="line"/>
      <point x="123" y="992" type="line"/>
      <point x="1019" y="992" type="line"/>
    </contour>
    <contour>
      <point x="1019" y="332" type="line"/>
      <point x="123" y="332" type="line"/>
      <point x="123" y="561" type="line"/>
      <point x="1019" y="561" type="line"/>
    </contour>
  </outline>
</glyph>
<glyph name="greater" format="1">
  <advance width="1031"/>
  <unicode hex="003E"/>
  <outline>
    <contour>
      <point x="689.0" y="539.0" type="line"/>
      <point x="689.0" y="545.0" type="line"/>
      <point x="618.0" y="570.0" type="line"/>
      <point x="104.0" y="751.0" type="line"/>
      <point x="104.0" y="1020.0" type="line"/>
      <point x="975.0" y="654.0" type="line"/>
      <point x="975.0" y="427.0" type="line"/>
      <point x="104.0" y="60.0" type="line"/>
      <point x="104.0" y="330.0" type="line"/>
      <point x="631.0" y="518.0" type="line"/>
    </contour>
  </outline>
</glyph>
<glyph name="question" format="1">
  <advance width="985"/>
  <unicode hex="003F"/>
  <outline>
    <contour>
      <point x="326" y="414" type="line"/>
      <point x="327.33333333333337" y="600.6666666666666"/>
      <point x="367.66666666666674" y="653.0"/>
      <point x="529" y="777" type="curve" smooth="yes"/>
      <point x="623.6666666666667" y="854.3333333333333"/>
      <point x="685.0" y="941.3333333333333"/>
      <point x="685" y="1052" type="curve" smooth="yes"/>
      <point x="685.0" y="1174.6666666666665"/>
      <point x="618.0" y="1248.0"/>
      <point x="498" y="1248" type="curve" smooth="yes"/>
      <point x="399.33333333333337" y="1248.0"/>
      <point x="321.33333333333337" y="1188.3333333333335"/>
      <point x="320" y="1075" type="curve"/>
      <point x="36" y="1075" type="line"/>
      <point x="34" y="1081" type="line"/>
      <point x="30.0" y="1337.0"/>
      <point x="220.66666666666674" y="1477.0"/>
      <point x="498" y="1477" type="curve" smooth="yes"/>
      <point x="796.6666666666665" y="1477.0"/>
      <point x="977.0" y="1315.0"/>
      <point x="977" y="1055" type="curve" smooth="yes"/>
      <point x="977.0" y="885.6666666666667"/>
      <point x="865.3333333333333" y="736.3333333333333"/>
      <point x="716" y="639" type="curve"/>
      <point x="634.6666666666667" y="576.3333333333333"/>
      <point x="617.0" y="524.6666666666666"/>
      <point x="617" y="414" type="curve"/>
    </contour>
    <contour>
      <point x="619" y="0" type="line"/>
      <point x="325" y="0" type="line"/>
      <point x="325" y="250" type="line"/>
      <point x="619" y="250" type="line"/>
    </contour>
  </outline>
</glyph>
<glyph name="at" format="1">
  <advance width="1806"/>
  <unicode hex="0040"/>
  <outline>
    <contour>
      <point x="1731" y="513" type="curve" smooth="yes"/>
      <point x="1719.0" y="222.33333333333331"/>
      <point x="1563.0" y="-21.0"/>
      <point x="1247" y="-21" type="curve" smooth="yes"/>
      <point x="1143.0" y="-21.0"/>
      <point x="1063.0" y="40.666666666666686"/>
      <point x="1031" y="146" type="curve"/>
      <point x="972.3333333333333" y="36.666666666666686"/>
      <point x="885.3333333333333" y="-18.0"/>
      <point x="768" y="-18" type="curve" smooth="yes"/>
      <point x="580.0" y="-18.0"/>
      <point x="469.66666666666663" y="154.66666666666669"/>
      <point x="495" y="416" type="curve" smooth="yes"/>
      <point x="528.3333333333334" y="754.6666666666665"/>
      <point x="701.6666666666667" y="976.0"/>
      <point x="927" y="976" type="curve" smooth="yes"/>
      <point x="1081.6666666666667" y="976.0"/>
      <point x="1154.6666666666665" y="942.0"/>
      <point x="1268" y="870" type="curve"/>
      <point x="1265" y="866" type="line"/>
      <point x="1270" y="866" type="line"/>
      <point x="1219" y="293" type="line" smooth="yes"/>
      <point x="1209.6666666666665" y="167.66666666666669"/>
      <point x="1242.0" y="128.0"/>
      <point x="1290" y="128" type="curve" smooth="yes"/>
      <point x="1443.3333333333335" y="128.0"/>
      <point x="1541.3333333333335" y="290.3333333333333"/>
      <point x="1552" y="513" type="curve" smooth="yes"/>
      <point x="1573.3333333333335" y="985.0000000000002"/>
      <point x="1369.3333333333333" y="1262.0"/>
      <point x="944" y="1262" type="curve" smooth="yes"/>
      <point x="538.6666666666667" y="1262.0"/>
      <point x="284.0" y="955.3333333333333"/>
      <point x="264" y="478" type="curve" smooth="yes"/>
      <point x="240.0" y="4.666666666666686"/>
      <point x="471.0" y="-287.0"/>
      <point x="879" y="-287" type="curve" smooth="yes"/>
      <point x="992.3333333333331" y="-287.0"/>
      <point x="1123.3333333333335" y="-257.00000000000006"/>
      <point x="1210" y="-217" type="curve"/>
      <point x="1248" y="-364" type="line"/>
      <point x="1158.6666666666665" y="-420.0"/>
      <point x="1007.0" y="-453.0"/>
      <point x="875" y="-453" type="curve" smooth="yes"/>
      <point x="347.0" y="-453.0"/>
      <point x="44.33333333333334" y="-99.33333333333326"/>
      <point x="67" y="478" type="curve" smooth="yes"/>
      <point x="91.0" y="1047.3333333333333"/>
      <point x="429.3333333333335" y="1418.0"/>
      <point x="948" y="1418" type="curve" smooth="yes"/>
      <point x="1464.0" y="1418.0"/>
      <point x="1752.3333333333335" y="1073.0"/>
    </contour>
    <contour>
      <point x="721" y="416" type="curve" smooth="yes"/>
      <point x="707.6666666666667" y="246.66666666666677"/>
      <point x="746.6666666666667" y="158.0"/>
      <point x="832" y="158" type="curve" smooth="yes"/>
      <point x="906.6666666666667" y="158.0"/>
      <point x="967.0" y="187.66666666666669"/>
      <point x="1015" y="281" type="curve"/>
      <point x="1015.0" y="283.66666666666663"/>
      <point x="1016.0" y="290.33333333333337"/>
      <point x="1016" y="293" type="curve"/>
      <point x="1060" y="789" type="line"/>
      <point x="1029.3333333333335" y="798.3333333333333"/>
      <point x="998.0000000000001" y="804.0"/>
      <point x="966" y="804" type="curve" smooth="yes"/>
      <point x="818.0" y="804.0"/>
      <point x="745.0" y="676.0"/>
    </contour>
  </outline>
</glyph>
<glyph name="A" format="1">
  <advance width="1512"/>
  <unicode hex="0041"/>
  <outline>
    <contour>
      <point x="41" y="175" type="line"/>
      <point x="145" y="190" type="line"/>
      <point x="608" y="1456" type="line"/>
      <point x="907" y="1456" type="line"/>
      <point x="1367" y="190" type="line"/>
      <point x="1471" y="175" type="line"/>
      <point x="1471" y="0" type="line"/>
      <point x="975" y="0" type="line"/>
      <point x="975" y="175" type="line"/>
      <point x="1076" y="193" type="line"/>
      <point x="1012" y="393" type="line"/>
      <point x="500" y="393" type="line"/>
      <point x="436" y="193" type="line"/>
      <point x="537" y="175" type="line"/>
      <point x="537" y="0" type="line"/>
      <point x="41" y="0" type="line"/>
    </contour>
    <contour>
      <point x="569.0" y="608.0" type="line"/>
      <point x="943" y="608" type="line"/>
      <point x="773" y="1107" type="line"/>
      <point x="759" y="1151" type="line"/>
      <point x="753" y="1151" type="line"/>
      <point x="738" y="1104" type="line"/>
    </contour>
  </outline>
</glyph>
<glyph name="B" format="1">
  <advance width="1354"/>
  <unicode hex="0042"/>
  <outline>
    <contour>
      <point x="703" y="1456" type="line" smooth="yes"/>
      <point x="1045.6666666666665" y="1456.0"/>
      <point x="1248.0" y="1322.3333333333335"/>
      <point x="1248" y="1057" type="curve" smooth="yes"/>
      <point x="1248.0" y="922.3333333333333"/>
      <point x="1175.0" y="810.3333333333333"/>
      <point x="1039" y="757" type="curve"/>
      <point x="1213.6666666666665" y="719.6666666666667"/>
      <point x="1301.0" y="585.3333333333333"/>
      <point x="1301" y="424" type="curve" smooth="yes"/>
      <point x="1301.0" y="145.33333333333337"/>
      <point x="1109.3333333333333" y="0.0"/>
      <point x="772" y="0" type="curve" smooth="yes"/>
      <point x="56" y="0" type="line"/>
      <point x="56" y="175" type="line"/>
      <point x="211" y="205" type="line"/>
      <point x="211" y="1250" type="line"/>
      <point x="56" y="1280" type="line"/>
      <point x="56" y="1456" type="line"/>
      <point x="211" y="1456" type="line"/>
    </contour>
    <contour>
      <point x="503" y="644" type="line"/>
      <point x="503" y="224" type="line"/>
      <point x="772" y="224" type="line" smooth="yes"/>
      <point x="926.6666666666667" y="224.0"/>
      <point x="1010.0" y="292.0"/>
      <point x="1010" y="424" type="curve" smooth="yes"/>
      <point x="1010.0" y="566.6666666666666"/>
      <point x="943.3333333333333" y="644.0"/>
      <point x="794" y="644" type="curve" smooth="yes"/>
    </contour>
    <contour>
      <point x="503" y="846" type="line"/>
      <point x="713" y="846" type="line" smooth="yes"/>
      <point x="869.0" y="846.0"/>
      <point x="956.0" y="911.3333333333333"/>
      <point x="956" y="1034" type="curve" smooth="yes"/>
      <point x="956.0" y="1168.6666666666665"/>
      <point x="871.0" y="1231.0"/>
      <point x="703" y="1231" type="curve" smooth="yes"/>
      <point x="503" y="1231" type="line"/>
    </contour>
  </outline>
</glyph>
<glyph name="E" format="1">
  <advance width="1308"/>
  <unicode hex="0045"/>
  <outline>
    <contour>
      <point x="56" y="0" type="line"/>
      <point x="56" y="175" type="line"/>
      <point x="211" y="205" type="line"/>
      <point x="211" y="1250" type="line"/>
      <point x="56" y="1280" type="line"/>
      <point x="56" y="1456" type="line"/>
      <point x="1186" y="1456" type="line"/>
      <point x="1186" y="1063" type="line"/>
      <point x="962" y="1063" type="line"/>
      <point x="949" y="1231" type="line"/>
      <point x="503" y="1231" type="line"/>
      <point x="503" y="865" type="line"/>
      <point x="996" y="865" type="line"/>
      <point x="996" y="640" type="line"/>
      <point x="503" y="640" type="line"/>
      <point x="503" y="224" type="line"/>
      <point x="973" y="224" type="line"/>
      <point x="986" y="398" type="line"/>
      <point x="1208" y="398" type="line"/>
      <point x="1208" y="0" type="line"/>
    </contour>
  </outline>
</glyph>
<glyph name="F" format="1">
  <advance width="1265"/>
  <unicode hex="0046"/>
  <outline>
    <contour>
      <point x="56" y="175" type="line"/>
      <point x="211" y="205" type="line"/>
      <point x="211" y="1250" type="line"/>
      <point x="56" y="1280" type="line"/>
      <point x="56" y="1456" type="line"/>
      <point x="1215" y="1456" type="line"/>
      <point x="1215" y="1057" type="line"/>
      <point x="991" y="1057" type="line"/>
      <point x="978" y="1231" type="line"/>
      <point x="503" y="1231" type="line"/>
      <point x="503" y="830" type="line"/>
      <point x="1013" y="830" type="line"/>
      <point x="1013" y="605" type="line"/>
      <point x="503" y="605" type="line"/>
      <point x="503" y="205" type="line"/>
      <point x="659" y="175" type="line"/>
      <point x="659" y="0" type="line"/>
      <point x="56" y="0" type="line"/>
    </contour>
  </outline>
</glyph>
<glyph name="J" format="1">
  <advance width="1202"/>
  <unicode hex="004A"/>
  <outline>
    <contour>
      <point x="1175" y="1456" type="line"/>
      <point x="1175" y="1280" type="line"/>
      <point x="1019" y="1250" type="line"/>
      <point x="1019" y="437" type="line" smooth="yes"/>
      <point x="1019" y="156"/>
      <point x="853" y="-21"/>
      <point x="553" y="-21" type="curve" smooth="yes"/>
      <point x="249" y="-21"/>
      <point x="47" y="131"/>
      <point x="35" y="457" type="curve"/>
      <point x="37" y="463" type="line"/>
      <point x="311" y="463" type="line"/>
      <point x="321" y="272"/>
      <point x="400" y="207"/>
      <point x="524" y="207" type="curve" smooth="yes"/>
      <point x="642" y="207"/>
      <point x="728" y="285"/>
      <point x="728" y="437" type="curve" smooth="yes"/>
      <point x="728" y="1250" type="line"/>
      <point x="532" y="1280" type="line"/>
      <point x="532" y="1456" type="line"/>
    </contour>
  </outline>
</glyph>
<glyph name="K" format="1">
  <advance width="1564"/>
  <unicode hex="004B"/>
  <outline>
    <contour>
      <point x="56.0" y="175.0" type="line"/>
      <point x="211.0" y="205.0" type="line"/>
      <point x="211.0" y="1250.0" type="line"/>
      <point x="56.0" y="1280.0" type="line"/>
      <point x="56.0" y="1456.0" type="line"/>
      <point x="651.0" y="1456.0" type="line"/>
      <point x="651.0" y="1280.0" type="line"/>
      <point x="503.0" y="1250.0" type="line"/>
      <point x="503" y="859" type="line"/>
      <point x="665" y="859" type="line"/>
      <point x="1015" y="1265" type="line"/>
      <point x="1017" y="1268" type="line"/>
      <point x="874" y="1280" type="line"/>
      <point x="874" y="1456" type="line"/>
      <point x="1451" y="1456" type="line"/>
      <point x="1451" y="1280" type="line"/>
      <point x="1314" y="1253" type="line"/>
      <point x="904" y="771" type="line"/>
      <point x="1390" y="200" type="line"/>
      <point x="1533" y="175" type="line"/>
      <point x="1533" y="0" type="line"/>
      <point x="897" y="0" type="line"/>
      <point x="897" y="175" type="line"/>
      <point x="1033" y="187" type="line"/>
      <point x="1034" y="187" type="line"/>
      <point x="672" y="616" type="line"/>
      <point x="503" y="616" type="line"/>
      <point x="503.0" y="205.0" type="line"/>
      <point x="651.0" y="175.0" type="line"/>
      <point x="651.0" y="0.0" type="line"/>
      <point x="56.0" y="0.0" type="line"/>
    </contour>
  </outline>
</glyph>
<glyph name="M" format="1">
  <advance width="2083"/>
  <unicode hex="004D"/>
  <outline>
    <contour>
      <point x="1594" y="1142" type="line"/>
      <point x="1149" y="0" type="line"/>
      <point x="931" y="0" type="line"/>
      <point x="476" y="1133" type="line"/>
      <point x="470" y="1132" type="line"/>
      <point x="487" y="514" type="line"/>
      <point x="487" y="205" type="line"/>
      <point x="659" y="175" type="line"/>
      <point x="659" y="0" type="line"/>
      <point x="56" y="0" type="line"/>
      <point x="56" y="175" type="line"/>
      <point x="211" y="205" type="line"/>
      <point x="211" y="1250" type="line"/>
      <point x="56" y="1280" type="line"/>
      <point x="56" y="1456" type="line"/>
      <point x="211" y="1456" type="line"/>
      <point x="643" y="1456" type="line"/>
      <point x="1048" y="441" type="line"/>
      <point x="1054" y="441" type="line"/>
      <point x="1448" y="1456" type="line"/>
      <point x="2035" y="1456" type="line"/>
      <point x="2035" y="1280" type="line"/>
      <point x="1879" y="1250" type="line"/>
      <point x="1879" y="205" type="line"/>
      <point x="2035" y="175" type="line"/>
      <point x="2035" y="0" type="line"/>
      <point x="1432" y="0" type="line"/>
      <point x="1432" y="175" type="line"/>
      <point x="1595" y="205" type="line"/>
      <point x="1595" y="484" type="line"/>
      <point x="1600" y="1141" type="line"/>
    </contour>
  </outline>
</glyph>
<glyph name="U" format="1">
  <advance width="1547"/>
  <unicode hex="0055"/>
  <outline>
    <contour>
      <point x="642" y="1456" type="line"/>
      <point x="642" y="1280" type="line"/>
      <point x="486" y="1250" type="line"/>
      <point x="486" y="490" type="line" smooth="yes"/>
      <point x="486.0" y="298.0000000000001"/>
      <point x="595.9999999999999" y="203.0"/>
      <point x="776" y="203" type="curve" smooth="yes"/>
      <point x="958.6666666666667" y="203.0"/>
      <point x="1069.0" y="296.66666666666674"/>
      <point x="1069" y="490" type="curve" smooth="yes"/>
      <point x="1069" y="1250" type="line"/>
      <point x="914" y="1280" type="line"/>
      <point x="914" y="1456" type="line"/>
      <point x="1517" y="1456" type="line"/>
      <point x="1517" y="1280" type="line"/>
      <point x="1361" y="1250" type="line"/>
      <point x="1361" y="490" type="line" smooth="yes"/>
      <point x="1361.0" y="163.33333333333337"/>
      <point x="1125.3333333333333" y="-21.0"/>
      <point x="776" y="-21" type="curve" smooth="yes"/>
      <point x="428.0" y="-21.0"/>
      <point x="194.0" y="163.33333333333337"/>
      <point x="194" y="490" type="curve" smooth="yes"/>
      <point x="194" y="1250" type="line"/>
      <point x="39" y="1280" type="line"/>
      <point x="39" y="1456" type="line"/>
    </contour>
  </outline>
</glyph>
<glyph name="V" format="1">
  <advance width="1535"/>
  <unicode hex="0056"/>
  <outline>
    <contour>
      <point x="613" y="1280" type="line"/>
      <point x="482" y="1260" type="line"/>
      <point x="770" y="401" type="line"/>
      <point x="788" y="321" type="line"/>
      <point x="794" y="321" type="line"/>
      <point x="819" y="399" type="line"/>
      <point x="1103" y="1260" type="line"/>
      <point x="950" y="1280" type="line"/>
      <point x="950" y="1456" type="line"/>
      <point x="1502" y="1456" type="line"/>
      <point x="1502" y="1280" type="line"/>
      <point x="1370" y="1264" type="line"/>
      <point x="931" y="0" type="line"/>
      <point x="632" y="0" type="line"/>
      <point x="164" y="1264" type="line"/>
      <point x="34" y="1280" type="line"/>
      <point x="34" y="1456" type="line"/>
      <point x="613" y="1456" type="line"/>
    </contour>
  </outline>
</glyph>
<glyph name="W" format="1">
  <advance width="2192"/>
  <unicode hex="0057"/>
  <outline>
    <contour>
      <point x="2162" y="1280" type="line"/>
      <point x="2022" y="1265" type="line"/>
      <point x="1681" y="0" type="line"/>
      <point x="1416" y="0" type="line"/>
      <point x="1140" y="851" type="line"/>
      <point x="1106" y="971" type="line"/>
      <point x="1100" y="971" type="line"/>
      <point x="1061" y="847" type="line"/>
      <point x="782" y="0" type="line"/>
      <point x="515" y="0" type="line"/>
      <point x="178" y="1265" type="line"/>
      <point x="29" y="1280" type="line"/>
      <point x="29" y="1456" type="line"/>
      <point x="615" y="1456" type="line"/>
      <point x="615" y="1280" type="line"/>
      <point x="457" y="1257" type="line"/>
      <point x="628" y="549" type="line"/>
      <point x="659" y="419" type="line"/>
      <point x="665" y="418" type="line"/>
      <point x="708" y="569" type="line"/>
      <point x="990" y="1456" type="line"/>
      <point x="1206" y="1456" type="line"/>
      <point x="1504" y="509" type="line"/>
      <point x="1541" y="408" type="line"/>
      <point x="1547" y="409" type="line"/>
      <point x="1578" y="524" type="line"/>
      <point x="1752" y="1257" type="line"/>
      <point x="1587" y="1280" type="line"/>
      <point x="1587" y="1456" type="line"/>
      <point x="2162" y="1456" type="line"/>
    </contour>
  </outline>
</glyph>
<glyph name="X" format="1">
  <advance width="1510"/>
  <unicode hex="0058"/>
  <outline>
    <contour>
      <point x="33" y="175" type="line"/>
      <point x="161" y="199" type="line"/>
      <point x="569" y="721" type="line"/>
      <point x="167" y="1255" type="line"/>
      <point x="49" y="1280" type="line"/>
      <point x="49" y="1456" type="line"/>
      <point x="618" y="1456" type="line"/>
      <point x="618" y="1280" type="line"/>
      <point x="479" y="1267" type="line"/>
      <point x="743" y="917" type="line"/>
      <point x="979" y="1267" type="line"/>
      <point x="843" y="1280" type="line"/>
      <point x="843" y="1456" type="line"/>
      <point x="1404" y="1456" type="line"/>
      <point x="1404" y="1280" type="line"/>
      <point x="1275" y="1255" type="line"/>
      <point x="916" y="747" type="line"/>
      <point x="1338" y="200" type="line"/>
      <point x="1476" y="175" type="line"/>
      <point x="1476" y="0" type="line"/>
      <point x="893" y="0" type="line"/>
      <point x="893" y="175" type="line"/>
      <point x="1019" y="187" type="line"/>
      <point x="745" y="557" type="line"/>
      <point x="473" y="187" type="line"/>
      <point x="595" y="175" type="line"/>
      <point x="595" y="0" type="line"/>
      <point x="33" y="0" type="line"/>
    </contour>
  </outline>
</glyph>
<glyph name="Z" format="1">
  <advance width="1226"/>
  <unicode hex="005A"/>
  <outline>
    <contour>
      <point x="1143" y="1456" type="line"/>
      <point x="1143" y="1270" type="line"/>
      <point x="430" y="224" type="line"/>
      <point x="937" y="224" type="line"/>
      <point x="961" y="410" type="line"/>
      <point x="1183" y="410" type="line"/>
      <point x="1165" y="0" type="line"/>
      <point x="74" y="0" type="line"/>
      <point x="74" y="192" type="line"/>
      <point x="784" y="1231" type="line"/>
      <point x="341" y="1231" type="line"/>
      <point x="318" y="1045" type="line"/>
      <point x="95" y="1045" type="line"/>
      <point x="107" y="1456" type="line"/>
    </contour>
  </outline>
</glyph>
<glyph name="bracketleft" format="1">
  <advance width="578"/>
  <unicode hex="005B"/>
  <outline>
    <contour>
      <point x="572" y="1475" type="line"/>
      <point x="431" y="1475" type="line"/>
      <point x="431" y="-120" type="line"/>
      <point x="572" y="-120" type="line"/>
      <point x="572" y="-336" type="line"/>
      <point x="139" y="-336" type="line"/>
      <point x="139" y="1691" type="line"/>
      <point x="572" y="1691" type="line"/>
    </contour>
  </outline>
</glyph>
<glyph name="backslash" format="1">
  <advance width="854"/>
  <unicode hex="005C"/>
  <outline>
    <contour>
      <point x="12" y="1456" type="line"/>
      <point x="300" y="1456" type="line"/>
      <point x="908" y="-125" type="line"/>
      <point x="620" y="-125" type="line"/>
    </contour>
  </outline>
</glyph>
<glyph name="bracketright" format="1">
  <advance width="569"/>
  <unicode hex="005D"/>
  <outline>
    <contour>
      <point x="11" y="1691" type="line"/>
      <point x="445" y="1691" type="line"/>
      <point x="445" y="-336" type="line"/>
      <point x="11" y="-336" type="line"/>
      <point x="11" y="-120" type="line"/>
      <point x="154" y="-120" type="line"/>
      <point x="154" y="1475" type="line"/>
      <point x="11" y="1475" type="line"/>
    </contour>
  </outline>
</glyph>
<glyph name="asciicircum" format="1">
  <advance width="884"/>
  <unicode hex="005E"/>
  <outline>
    <contour>
      <point x="276" y="729" type="line"/>
      <point x="45" y="729" type="line"/>
      <point x="344" y="1456" type="line"/>
      <point x="556" y="1456" type="line"/>
      <point x="855" y="729" type="line"/>
      <point x="624" y="729" type="line"/>
      <point x="459" y="1142" type="line"/>
      <point x="451" y="1176" type="line"/>
      <point x="445" y="1176" type="line"/>
      <point x="438" y="1142" type="line"/>
    </contour>
  </outline>
</glyph>
<glyph name="grave" format="1">
  <advance width="622"/>
  <unicode hex="0060"/>
  <outline>
    <contour>
      <point x="572.0" y="1212.0" type="line"/>
      <point x="564.0" y="1212.0" type="line"/>
      <point x="336.0" y="1212.0" type="line"/>
      <point x="64.0" y="1472.0" type="line"/>
      <point x="66.0" y="1478.0" type="line"/>
      <point x="376.0" y="1478.0" type="line"/>
    </contour>
  </outline>
</glyph>
<glyph name="e" format="1">
  <advance width="1081"/>
  <unicode hex="0065"/>
  <outline>
    <contour>
      <point x="581" y="-21" type="curve" smooth="yes"/>
      <point x="269" y="-21"/>
      <point x="67.0" y="202.0"/>
      <point x="67" y="510" type="curve" smooth="yes"/>
      <point x="67" y="550" type="line" smooth="yes"/>
      <point x="67.0" y="871.3333333333333"/>
      <point x="257.66666666666674" y="1103.3333333333335"/>
      <point x="555" y="1102" type="curve" smooth="yes"/>
      <point x="847.0" y="1102.0"/>
      <point x="1006" y="922"/>
      <point x="1006" y="613" type="curve" smooth="yes"/>
      <point x="1006" y="454" type="line"/>
      <point x="370" y="454" type="line"/>
      <point x="368" y="448" type="line"/>
      <point x="378.66666666666663" y="305.33333333333337"/>
      <point x="467" y="203"/>
      <point x="612" y="203" type="curve" smooth="yes"/>
      <point x="731" y="203"/>
      <point x="802" y="226"/>
      <point x="903" y="284" type="curve"/>
      <point x="982" y="104" type="line"/>
      <point x="893" y="32"/>
      <point x="756" y="-21"/>
    </contour>
    <contour>
      <point x="560" y="886" type="curve" smooth="yes"/>
      <point x="443" y="886"/>
      <point x="383.66666666666663" y="786.6666666666667"/>
      <point x="369" y="652" type="curve"/>
      <point x="372" y="647" type="line"/>
      <point x="733" y="647" type="line"/>
      <point x="733" y="673" type="line" smooth="yes"/>
      <point x="733" y="804"/>
      <point x="683" y="886"/>
    </contour>
  </outline>
</glyph>
<glyph name="h" format="1">
  <advance width="1302"/>
  <unicode hex="0068"/>
  <outline>
    <contour>
      <point x="47" y="175" type="line"/>
      <point x="188" y="205" type="line"/>
      <point x="188" y="1354" type="line"/>
      <point x="32" y="1384" type="line"/>
      <point x="32" y="1560" type="line"/>
      <point x="479" y="1560" type="line"/>
      <point x="479" y="944" type="line"/>
      <point x="547.0" y="1044.0"/>
      <point x="648.0" y="1102.0"/>
      <point x="768" y="1102" type="curve" smooth="yes"/>
      <point x="994.6666666666666" y="1102.0"/>
      <point x="1131.0" y="955.3333333333334"/>
      <point x="1131" y="642" type="curve" smooth="yes"/>
      <point x="1131" y="205" type="line"/>
      <point x="1271" y="175" type="line"/>
      <point x="1271" y="0" type="line"/>
      <point x="713" y="0" type="line"/>
      <point x="713" y="175" type="line"/>
      <point x="839" y="205" type="line"/>
      <point x="839" y="644" type="line" smooth="yes"/>
      <point x="839.0" y="812.0"/>
      <point x="779.3333333333333" y="875.0"/>
      <point x="662" y="875" type="curve" smooth="yes"/>
      <point x="580.6666666666667" y="875.0"/>
      <point x="520.3333333333334" y="844.3333333333333"/>
      <point x="479" y="791" type="curve"/>
      <point x="479" y="205" type="line"/>
      <point x="605" y="175" type="line"/>
      <point x="605" y="0" type="line"/>
      <point x="47" y="0" type="line"/>
    </contour>
  </outline>
</glyph>
<glyph name="k" format="1">
  <advance width="1316"/>
  <unicode hex="006B"/>
  <outline>
    <contour>
      <point x="32.0" y="1384.0" type="line"/>
      <point x="32.0" y="1560.0" type="line"/>
      <point x="479.0" y="1560.0" type="line"/>
      <point x="479.0" y="656.0" type="line"/>
      <point x="557" y="656" type="line"/>
      <point x="774" y="889" type="line"/>
      <point x="776" y="892" type="line"/>
      <point x="675" y="908" type="line"/>
      <point x="675" y="1082" type="line"/>
      <point x="1222" y="1082" type="line"/>
      <point x="1222" y="906" type="line"/>
      <point x="1072" y="871" type="line"/>
      <point x="839" y="599" type="line"/>
      <point x="1140" y="206" type="line"/>
      <point x="1277" y="175" type="line"/>
      <point x="1277" y="0" type="line"/>
      <point x="731" y="0" type="line"/>
      <point x="731" y="166" type="line"/>
      <point x="814" y="185" type="line"/>
      <point x="812" y="189" type="line"/>
      <point x="614" y="453" type="line"/>
      <point x="479.0" y="453.0" type="line"/>
      <point x="479.0" y="205.0" type="line"/>
      <point x="605.0" y="175.0" type="line"/>
      <point x="605.0" y="0.0" type="line"/>
      <point x="47.0" y="0.0" type="line"/>
      <point x="47.0" y="175.0" type="line"/>
      <point x="188.0" y="205.0" type="line"/>
      <point x="188.0" y="1354.0" type="line"/>
    </contour>
  </outline>
</glyph>
<glyph name="l" format="1">
  <advance width="653"/>
  <unicode hex="006C"/>
  <outline>
    <contour>
      <point x="32" y="1384" type="line"/>
      <point x="32" y="1560" type="line"/>
      <point x="480" y="1560" type="line"/>
      <point x="480" y="205" type="line"/>
      <point x="621" y="175" type="line"/>
      <point x="621" y="0" type="line"/>
      <point x="47" y="0" type="line"/>
      <point x="47" y="175" type="line"/>
      <point x="188" y="205" type="line"/>
      <point x="188" y="1354" type="line"/>
    </contour>
  </outline>
</glyph>
<glyph name="n" format="1">
  <advance width="1300"/>
  <unicode hex="006E"/>
  <outline>
    <contour>
      <point x="47" y="175" type="line"/>
      <point x="187" y="205" type="line"/>
      <point x="187" y="876" type="line"/>
      <point x="32" y="906" type="line"/>
      <point x="32" y="1082" type="line"/>
      <point x="459" y="1082" type="line"/>
      <point x="472" y="927" type="line"/>
      <point x="544.0" y="1037.6666666666667"/>
      <point x="651.3333333333333" y="1102.0"/>
      <point x="782" y="1102" type="curve" smooth="yes"/>
      <point x="1000.6666666666665" y="1102.0"/>
      <point x="1130.0" y="969.3333333333335"/>
      <point x="1130" y="676" type="curve" smooth="yes"/>
      <point x="1130" y="205" type="line"/>
      <point x="1270" y="175" type="line"/>
      <point x="1270" y="0" type="line"/>
      <point x="712" y="0" type="line"/>
      <point x="712" y="175" type="line"/>
      <point x="837" y="205" type="line"/>
      <point x="837" y="675" type="line" smooth="yes"/>
      <point x="837.0" y="820.3333333333333"/>
      <point x="778.6666666666667" y="875.0"/>
      <point x="660" y="875" type="curve" smooth="yes"/>
      <point x="582.6666666666667" y="875.0"/>
      <point x="520.3333333333334" y="842.3333333333333"/>
      <point x="479" y="785" type="curve"/>
      <point x="479" y="205" type="line"/>
      <point x="597" y="175" type="line"/>
      <point x="597" y="0" type="line"/>
      <point x="47" y="0" type="line"/>
    </contour>
  </outline>
</glyph>
<glyph name="q" format="1">
  <advance width="1154"/>
  <unicode hex="0071"/>
  <outline>
    <contour>
      <point x="67" y="532" type="line" smooth="yes"/>
      <point x="67.0" y="873.3333333333335"/>
      <point x="222.0000000000001" y="1102.0"/>
      <point x="490" y="1102" type="curve" smooth="yes"/>
      <point x="607.3333333333333" y="1102.0"/>
      <point x="697.6666666666667" y="1048.0"/>
      <point x="763" y="952" type="curve"/>
      <point x="786" y="1082" type="line"/>
      <point x="1039" y="1082" type="line"/>
      <point x="1039" y="-210" type="line"/>
      <point x="1170" y="-239" type="line"/>
      <point x="1170" y="-416" type="line"/>
      <point x="576" y="-416" type="line"/>
      <point x="576" y="-244" type="line"/>
      <point x="747" y="-210" type="line"/>
      <point x="747" y="100" type="line"/>
      <point x="683.0" y="20.0"/>
      <point x="597.3333333333333" y="-21.0"/>
      <point x="488" y="-21" type="curve" smooth="yes"/>
      <point x="221.33333333333343" y="-21.0"/>
      <point x="67.0" y="190.99999999999994"/>
      <point x="67" y="511" type="curve" smooth="yes"/>
    </contour>
    <contour>
      <point x="359" y="511" type="line" smooth="yes"/>
      <point x="359.0" y="320.33333333333337"/>
      <point x="418.0" y="203.0"/>
      <point x="562" y="203" type="curve" smooth="yes"/>
      <point x="647.3333333333333" y="203.0"/>
      <point x="708.3333333333333" y="234.66666666666663"/>
      <point x="747" y="296" type="curve"/>
      <point x="747" y="777" type="line"/>
      <point x="708.3333333333333" y="841.0"/>
      <point x="648.0" y="877.0"/>
      <point x="564" y="877" type="curve" smooth="yes"/>
      <point x="421.33333333333337" y="877.0"/>
      <point x="359.0" y="737.3333333333333"/>
      <point x="359" y="532" type="curve" smooth="yes"/>
    </contour>
  </outline>
</glyph>
<glyph name="r" format="1">
  <advance width="886"/>
  <unicode hex="0072"/>
  <outline>
    <contour>
      <point x="85.0" y="175.0" type="line"/>
      <point x="225.0" y="205.0" type="line"/>
      <point x="225" y="876" type="line"/>
      <point x="70" y="906" type="line"/>
      <point x="70" y="1082" type="line"/>
      <point x="497" y="1082" type="line"/>
      <point x="508" y="948" type="line"/>
      <point x="510.0" y="924.0" type="line"/>
      <point x="561.0" y="1036.0"/>
      <point x="642" y="1102"/>
      <point x="747.0" y="1102.0" type="curve" smooth="yes"/>
      <point x="788" y="1102"/>
      <point x="834" y="1096"/>
      <point x="862" y="1086" type="curve"/>
      <point x="831" y="817" type="line"/>
      <point x="687" y="824" type="line" smooth="yes"/>
      <point x="601" y="828"/>
      <point x="549" y="796"/>
      <point x="517" y="735" type="curve"/>
      <point x="517.0" y="205.0" type="line"/>
      <point x="657.0" y="175.0" type="line"/>
      <point x="657.0" y="0.0" type="line"/>
      <point x="85.0" y="0.0" type="line"/>
    </contour>
  </outline>
</glyph>
<glyph name="t" format="1">
  <advance width="764"/>
  <unicode hex="0074"/>
  <outline>
    <contour>
      <point x="494" y="1347" type="line"/>
      <point x="494" y="1082" type="line"/>
      <point x="684" y="1082" type="line"/>
      <point x="684" y="877" type="line"/>
      <point x="494" y="877" type="line"/>
      <point x="494" y="326" type="line" smooth="yes"/>
      <point x="494.0" y="241.99999999999994"/>
      <point x="531.3333333333333" y="209.0"/>
      <point x="590" y="209" type="curve" smooth="yes"/>
      <point x="630.0" y="209.0"/>
      <point x="655.6666666666667" y="212.0"/>
      <point x="693" y="220" type="curve"/>
      <point x="718" y="9" type="line"/>
      <point x="652.6666666666667" y="-11.0"/>
      <point x="591.6666666666667" y="-21.0"/>
      <point x="517" y="-21" type="curve" smooth="yes"/>
      <point x="315.66666666666674" y="-21.0"/>
      <point x="203.0" y="85.0"/>
      <point x="203" y="325" type="curve" smooth="yes"/>
      <point x="203" y="877" type="line"/>
      <point x="44" y="877" type="line"/>
      <point x="44" y="1082" type="line"/>
      <point x="203" y="1082" type="line"/>
      <point x="203" y="1347" type="line"/>
    </contour>
  </outline>
</glyph>
<glyph name="u" format="1">
  <advance width="1278"/>
  <unicode hex="0075"/>
  <outline>
    <contour>
      <point x="820" y="137" type="line"/>
      <point x="750.6666666666667" y="35.666666666666686"/>
      <point x="647.6666666666667" y="-21.0"/>
      <point x="517" y="-21" type="curve" smooth="yes"/>
      <point x="289.0" y="-21.0"/>
      <point x="152.0" y="121.0"/>
      <point x="152" y="429" type="curve" smooth="yes"/>
      <point x="152" y="876" type="line"/>
      <point x="33" y="906" type="line"/>
      <point x="33" y="1082" type="line"/>
      <point x="152" y="1082" type="line"/>
      <point x="444" y="1082" type="line"/>
      <point x="444" y="427" type="line" smooth="yes"/>
      <point x="444.0" y="269.66666666666674"/>
      <point x="497.0" y="206.0"/>
      <point x="601" y="206" type="curve" smooth="yes"/>
      <point x="693.0" y="206.0"/>
      <point x="760.3333333333333" y="237.0"/>
      <point x="803" y="293" type="curve"/>
      <point x="803" y="876" type="line"/>
      <point x="675" y="906" type="line"/>
      <point x="675" y="1082" type="line"/>
      <point x="803" y="1082" type="line"/>
      <point x="1095" y="1082" type="line"/>
      <point x="1095" y="205" type="line"/>
      <point x="1226" y="175" type="line"/>
      <point x="1226" y="0" type="line"/>
      <point x="839" y="0" type="line"/>
    </contour>
  </outline>
</glyph>
<glyph name="v" format="1">
  <advance width="1264"/>
  <unicode hex="0076"/>
  <outline>
    <contour>
      <point x="556" y="907" type="line"/>
      <point x="442" y="887" type="line"/>
      <point x="605" y="396" type="line"/>
      <point x="629" y="312" type="line"/>
      <point x="635" y="312" type="line"/>
      <point x="664" y="396" type="line"/>
      <point x="843" y="886" type="line"/>
      <point x="710" y="907" type="line"/>
      <point x="710" y="1082" type="line"/>
      <point x="1234" y="1082" type="line"/>
      <point x="1234" y="906" type="line"/>
      <point x="1114" y="886" type="line"/>
      <point x="771" y="0" type="line"/>
      <point x="475" y="0" type="line"/>
      <point x="148" y="888" type="line"/>
      <point x="31" y="906" type="line"/>
      <point x="31" y="1082" type="line"/>
      <point x="556" y="1082" type="line"/>
    </contour>
  </outline>
</glyph>
<glyph name="braceleft" format="1">
  <advance width="654"/>
  <unicode hex="007B"/>
  <outline>
    <contour>
      <point x="577" y="-360" type="line"/>
      <point x="317.0" y="-286.66666666666663"/>
      <point x="217.0" y="-122.0"/>
      <point x="217" y="106" type="curve" smooth="yes"/>
      <point x="217" y="309" type="line" smooth="yes"/>
      <point x="217.0" y="441.0"/>
      <point x="160.33333333333331" y="518.0"/>
      <point x="39" y="518" type="curve"/>
      <point x="39" y="719" type="line"/>
      <point x="160.33333333333331" y="719.0"/>
      <point x="217.0" y="794.3333333333333"/>
      <point x="217" y="929" type="curve" smooth="yes"/>
      <point x="217" y="1132" type="line" smooth="yes"/>
      <point x="217.0" y="1360.0"/>
      <point x="317.0" y="1523.6666666666665"/>
      <point x="577" y="1597" type="curve"/>
      <point x="633" y="1440" type="line"/>
      <point x="518.3333333333333" y="1398.6666666666665"/>
      <point x="478.0" y="1289.3333333333335"/>
      <point x="478" y="1132" type="curve" smooth="yes"/>
      <point x="478" y="929" type="line" smooth="yes"/>
      <point x="478.0" y="790.3333333333333"/>
      <point x="418.0" y="679.0"/>
      <point x="298" y="619" type="curve"/>
      <point x="418.00000000000006" y="556.3333333333333"/>
      <point x="478.0" y="444.99999999999994"/>
      <point x="478" y="309" type="curve" smooth="yes"/>
      <point x="478" y="106" type="line" smooth="yes"/>
      <point x="478.0" y="-51.333333333333314"/>
      <point x="518.3333333333333" y="-160.66666666666669"/>
      <point x="633" y="-202" type="curve"/>
    </contour>
  </outline>
</glyph>
<glyph name="braceright" format="1">
  <advance width="651"/>
  <unicode hex="007D"/>
  <outline>
    <contour>
      <point x="11" y="-202" type="line"/>
      <point x="123.0" y="-160.66666666666669"/>
      <point x="165.0" y="-51.333333333333314"/>
      <point x="165" y="106" type="curve" smooth="yes"/>
      <point x="165" y="309" type="line" smooth="yes"/>
      <point x="165.0" y="447.6666666666667"/>
      <point x="225.66666666666669" y="558.0"/>
      <point x="351" y="618" type="curve"/>
      <point x="225.66666666666663" y="678.0"/>
      <point x="165.0" y="789.0"/>
      <point x="165" y="929" type="curve" smooth="yes"/>
      <point x="165" y="1132" type="line" smooth="yes"/>
      <point x="165.0" y="1289.3333333333335"/>
      <point x="123.00000000000003" y="1398.6666666666665"/>
      <point x="11" y="1440" type="curve"/>
      <point x="67" y="1597" type="line"/>
      <point x="325.66666666666663" y="1523.6666666666665"/>
      <point x="427.0" y="1360.0"/>
      <point x="427" y="1132" type="curve" smooth="yes"/>
      <point x="427" y="929" type="line" smooth="yes"/>
      <point x="427.0" y="794.3333333333333"/>
      <point x="482.66666666666674" y="719.0"/>
      <point x="604" y="719" type="curve"/>
      <point x="604" y="518" type="line"/>
      <point x="482.66666666666674" y="518.0"/>
      <point x="427.0" y="441.0"/>
      <point x="427" y="309" type="curve" smooth="yes"/>
      <point x="427" y="106" type="line" smooth="yes"/>
      <point x="427.0" y="-122.0"/>
      <point x="325.66666666666663" y="-286.66666666666663"/>
      <point x="67" y="-360" type="curve"/>
    </contour>
  </outline>
</glyph>
<glyph name="asciitilde" format="1">
  <advance width="1323"/>
  <unicode hex="007E"/>
  <outline>
    <contour>
      <point x="1214" y="758" type="line"/>
      <point x="1214.0" y="543.3333333333333"/>
      <point x="1082.0" y="378.0"/>
      <point x="902" y="378" type="curve" smooth="yes"/>
      <point x="788.6666666666667" y="378.0"/>
      <point x="699.0" y="417.66666666666663"/>
      <point x="595" y="511" type="curve" smooth="yes"/>
      <point x="528.3333333333333" y="569.6666666666667"/>
      <point x="483.6666666666667" y="595.0"/>
      <point x="425" y="595" type="curve" smooth="yes"/>
      <point x="355.66666666666663" y="595.0"/>
      <point x="301.0" y="516.6666666666666"/>
      <point x="301" y="422" type="curve"/>
      <point x="100" y="448" type="line"/>
      <point x="100.0" y="664.0"/>
      <point x="227.33333333333337" y="825.0"/>
      <point x="410" y="825" type="curve" smooth="yes"/>
      <point x="520.6666666666666" y="825.0"/>
      <point x="619.0" y="780.0"/>
      <point x="719" y="692" type="curve" smooth="yes"/>
      <point x="784.3333333333333" y="632.0"/>
      <point x="829.6666666666667" y="608.0"/>
      <point x="887" y="608" type="curve" smooth="yes"/>
      <point x="955.0" y="608.0"/>
      <point x="1012.0" y="687.6666666666667"/>
      <point x="1012" y="785" type="curve"/>
    </contour>
  </outline>
</glyph>
<glyph name="sterling" format="1">
  <advance width="1177"/>
  <unicode hex="00A3"/>
  <outline>
    <contour>
      <point x="515" y="588" type="line"/>
      <point x="519" y="503" type="line" smooth="yes"/>
      <point x="519.0" y="399.0"/>
      <point x="477.66666666666663" y="300.0"/>
      <point x="403" y="224" type="curve"/>
      <point x="882" y="224" type="line"/>
      <point x="894" y="368" type="line"/>
      <point x="1117" y="368" type="line"/>
      <point x="1117" y="0" type="line"/>
      <point x="120" y="0" type="line"/>
      <point x="120" y="224" type="line"/>
      <point x="130" y="224" type="line"/>
      <point x="192.66666666666669" y="240.0"/>
      <point x="224.0" y="371.33333333333337"/>
      <point x="224" y="490" type="curve" smooth="yes"/>
      <point x="220" y="588" type="line"/>
      <point x="57" y="588" type="line"/>
      <point x="57" y="813" type="line"/>
      <point x="212" y="813" type="line"/>
      <point x="204" y="1027" type="line" smooth="yes"/>
      <point x="204.0" y="1307.0"/>
      <point x="377.66666666666674" y="1477.0"/>
      <point x="647" y="1477" type="curve" smooth="yes"/>
      <point x="933.6666666666665" y="1477.0"/>
      <point x="1100.3333333333335" y="1315.0"/>
      <point x="1095" y="1071" type="curve"/>
      <point x="1093" y="1065" type="line"/>
      <point x="808" y="1065" type="line"/>
      <point x="808.0" y="1193.0"/>
      <point x="739.3333333333333" y="1252.0"/>
      <point x="646" y="1252" type="curve" smooth="yes"/>
      <point x="551.3333333333333" y="1252.0"/>
      <point x="495.0" y="1169.6666666666665"/>
      <point x="495" y="1027" type="curve" smooth="yes"/>
      <point x="505" y="813" type="line"/>
      <point x="861" y="813" type="line"/>
      <point x="861" y="588" type="line"/>
    </contour>
  </outline>
</glyph>
<glyph name="currency" format="1">
  <advance width="1432"/>
  <unicode hex="00A4"/>
  <outline>
    <contour>
      <point x="1074" y="107" type="line"/>
      <point x="971.3333333333333" y="25.666666666666686"/>
      <point x="845.3333333333333" y="-20.0"/>
      <point x="712" y="-20" type="curve" smooth="yes"/>
      <point x="577.3333333333333" y="-20.0"/>
      <point x="452.00000000000006" y="24.666666666666643"/>
      <point x="352" y="106" type="curve"/>
      <point x="223" y="-26" type="line"/>
      <point x="82" y="118" type="line"/>
      <point x="217" y="255" type="line"/>
      <point x="151.66666666666669" y="356.33333333333337"/>
      <point x="117.0" y="477.33333333333326"/>
      <point x="117" y="608" type="curve" smooth="yes"/>
      <point x="117.0" y="742.6666666666667"/>
      <point x="155.33333333333337" y="867.6666666666667"/>
      <point x="226" y="973" type="curve"/>
      <point x="82" y="1120" type="line"/>
      <point x="223" y="1264" type="line"/>
      <point x="365" y="1119" type="line"/>
      <point x="463.6666666666666" y="1192.3333333333335"/>
      <point x="582.6666666666667" y="1234.0"/>
      <point x="712" y="1234" type="curve" smooth="yes"/>
      <point x="840.0" y="1234.0"/>
      <point x="961.0" y="1191.6666666666665"/>
      <point x="1061" y="1117" type="curve"/>
      <point x="1206" y="1265" type="line"/>
      <point x="1348" y="1120" type="line"/>
      <point x="1200" y="969" type="line"/>
      <point x="1268.0" y="865.0"/>
      <point x="1307.0" y="741.3333333333333"/>
      <point x="1307" y="608" type="curve" smooth="yes"/>
      <point x="1307.0" y="478.66666666666674"/>
      <point x="1271.6666666666665" y="359.0"/>
      <point x="1209" y="259" type="curve"/>
      <point x="1348" y="118" type="line"/>
      <point x="1206" y="-27" type="line"/>
    </contour>
    <contour>
      <point x="302" y="608" type="curve" smooth="yes"/>
      <point x="302.0" y="362.66666666666674"/>
      <point x="484.0" y="169.0"/>
      <point x="712" y="169" type="curve" smooth="yes"/>
      <point x="938.6666666666667" y="169.0"/>
      <point x="1121.0" y="361.3333333333334"/>
      <point x="1121" y="608" type="curve" smooth="yes"/>
      <point x="1121.0" y="851.9999999999999"/>
      <point x="938.6666666666669" y="1045.0"/>
      <point x="712" y="1045" type="curve" smooth="yes"/>
      <point x="484.0" y="1045.0"/>
      <point x="302.0" y="852.0"/>
    </contour>
  </outline>
</glyph>
<glyph name="yen" format="1">
  <advance width="1401"/>
  <unicode hex="00A5"/>
  <outline>
    <contour>
      <point x="1369.0" y="1280.0" type="line"/>
      <point x="1203.0" y="1258.0" type="line"/>
      <point x="927.0" y="742.0" type="line"/>
      <point x="1171.0" y="742.0" type="line"/>
      <point x="1171.0" y="577.0" type="line"/>
      <point x="847.0" y="577.0" type="line"/>
      <point x="847.0" y="452.0" type="line"/>
      <point x="1171.0" y="452.0" type="line"/>
      <point x="1171.0" y="288.0" type="line"/>
      <point x="847.0" y="288.0" type="line"/>
      <point x="847.0" y="205.0" type="line"/>
      <point x="987.0" y="175.0" type="line"/>
      <point x="987.0" y="0.0" type="line"/>
      <point x="400.0" y="0.0" type="line"/>
      <point x="400.0" y="175.0" type="line"/>
      <point x="555.0" y="205.0" type="line"/>
      <point x="555.0" y="288.0" type="line"/>
      <point x="216.0" y="288.0" type="line"/>
      <point x="216.0" y="452.0" type="line"/>
      <point x="555.0" y="452.0" type="line"/>
      <point x="555.0" y="577.0" type="line"/>
      <point x="216.0" y="577.0" type="line"/>
      <point x="216.0" y="742.0" type="line"/>
      <point x="483.0" y="742.0" type="line"/>
      <point x="207.0" y="1258.0" type="line"/>
      <point x="41.0" y="1280.0" type="line"/>
      <point x="41.0" y="1456.0" type="line"/>
      <point x="577.0" y="1456.0" type="line"/>
      <point x="577.0" y="1280.0" type="line"/>
      <point x="509.0" y="1267.0" type="line"/>
      <point x="689.0" y="878.0" type="line"/>
      <point x="702.0" y="849.0" type="line"/>
      <point x="708.0" y="849.0" type="line"/>
      <point x="718.0" y="871.0" type="line"/>
      <point x="901.0" y="1267.0" type="line"/>
      <point x="833.0" y="1280.0" type="line"/>
      <point x="833.0" y="1456.0" type="line"/>
      <point x="1369.0" y="1456.0" type="line"/>
    </contour>
  </outline>
</glyph>
<glyph name="brokenbar" format="1">
  <advance width="513"/>
  <unicode hex="00A6"/>
  <outline>
    <contour>
      <point x="134" y="-270" type="line"/>
      <point x="134" y="525" type="line"/>
      <point x="395" y="525" type="line"/>
      <point x="395" y="-270" type="line"/>
    </contour>
    <contour>
      <point x="395" y="698" type="line"/>
      <point x="134" y="698" type="line"/>
      <point x="134" y="1456" type="line"/>
      <point x="395" y="1456" type="line"/>
    </contour>
  </outline>
</glyph>
<glyph name="dieresis" format="1">
  <advance width="1031"/>
  <unicode hex="00A8"/>
  <outline>
    <contour>
      <point x="911" y="1252" type="line"/>
      <point x="644" y="1252" type="line"/>
      <point x="644" y="1456" type="line"/>
      <point x="911" y="1456" type="line"/>
    </contour>
    <contour>
      <point x="411" y="1252" type="line"/>
      <point x="144" y="1252" type="line"/>
      <point x="144" y="1456" type="line"/>
      <point x="411" y="1456" type="line"/>
    </contour>
  </outline>
</glyph>
<glyph name="copyright" format="1">
  <advance width="1566"/>
  <unicode hex="00A9"/>
  <outline>
    <contour>
      <point x="1097" y="596" type="line"/>
      <point x="1099" y="590" type="line"/>
      <point x="1104.3333333333335" y="388.66666666666686"/>
      <point x="979.3333333333334" y="282.0"/>
      <point x="770" y="282" type="curve" smooth="yes"/>
      <point x="556.6666666666667" y="282.0"/>
      <point x="421.0" y="435.66666666666674"/>
      <point x="421" y="669" type="curve" smooth="yes"/>
      <point x="421" y="788" type="line" smooth="yes"/>
      <point x="421.0" y="1018.6666666666666"/>
      <point x="556.6666666666666" y="1175.0"/>
      <point x="770" y="1175" type="curve" smooth="yes"/>
      <point x="979.3333333333333" y="1175.0"/>
      <point x="1105.3333333333335" y="1065.6666666666667"/>
      <point x="1100" y="867" type="curve"/>
      <point x="1098" y="861" type="line"/>
      <point x="950" y="861" type="line"/>
      <point x="950.0" y="986.3333333333331"/>
      <point x="890.0000000000001" y="1040.0"/>
      <point x="770" y="1040" type="curve" smooth="yes"/>
      <point x="644.6666666666667" y="1040.0"/>
      <point x="576.0" y="939.6666666666667"/>
      <point x="576" y="789" type="curve" smooth="yes"/>
      <point x="576" y="669" type="line" smooth="yes"/>
      <point x="576.0" y="515.6666666666666"/>
      <point x="644.6666666666667" y="417.0"/>
      <point x="770" y="417" type="curve" smooth="yes"/>
      <point x="890.0" y="417.0"/>
      <point x="949.0" y="468.0"/>
      <point x="949" y="596" type="curve"/>
    </contour>
    <contour>
      <point x="196" y="729" type="curve" smooth="yes"/>
      <point x="196.0" y="377.0"/>
      <point x="457.3333333333335" y="104.0"/>
      <point x="784" y="104" type="curve" smooth="yes"/>
      <point x="1109.3333333333333" y="104.0"/>
      <point x="1371.0" y="377.0"/>
      <point x="1371" y="729" type="curve" smooth="yes"/>
      <point x="1371.0" y="1079.6666666666665"/>
      <point x="1109.3333333333333" y="1351.0"/>
      <point x="784" y="1351" type="curve" smooth="yes"/>
      <point x="456.0" y="1351.0"/>
      <point x="196.0" y="1079.6666666666665"/>
    </contour>
    <contour>
      <point x="74" y="729" type="curve" smooth="yes"/>
      <point x="74.0" y="1149.0"/>
      <point x="389.3333333333335" y="1476.0"/>
      <point x="784" y="1476" type="curve" smooth="yes"/>
      <point x="1177.3333333333333" y="1476.0"/>
      <point x="1494.0" y="1149.0"/>
      <point x="1494" y="729" type="curve" smooth="yes"/>
      <point x="1494.0" y="307.66666666666674"/>
      <point x="1176.0" y="-21.0"/>
      <point x="784" y="-21" type="curve" smooth="yes"/>
      <point x="389.3333333333335" y="-21.0"/>
      <point x="74.0" y="307.66666666666674"/>
    </contour>
  </outline>
</glyph>
<glyph name="ordfeminine" format="1">
  <advance width="867"/>
  <unicode hex="00AA"/>
  <outline>
    <contour>
      <point x="586" y="706" type="line"/>
      <point x="575.3333333333333" y="734.0"/>
      <point x="569.0" y="765.3333333333333"/>
      <point x="565" y="800" type="curve"/>
      <point x="521.0" y="737.3333333333333"/>
      <point x="447.0" y="692.0"/>
      <point x="343" y="692" type="curve" smooth="yes"/>
      <point x="184.33333333333337" y="692.0"/>
      <point x="94.0" y="778.6666666666667"/>
      <point x="94" y="920" type="curve" smooth="yes"/>
      <point x="94.0" y="1068.0"/>
      <point x="208.99999999999994" y="1151.0"/>
      <point x="425" y="1151" type="curve" smooth="yes"/>
      <point x="562" y="1151" type="line"/>
      <point x="562" y="1202" type="line" smooth="yes"/>
      <point x="562.0" y="1284.6666666666665"/>
      <point x="522.0" y="1329.0"/>
      <point x="446" y="1329" type="curve" smooth="yes"/>
      <point x="358.0" y="1329.0"/>
      <point x="308.0" y="1292.6666666666665"/>
      <point x="308" y="1230" type="curve"/>
      <point x="143" y="1243" type="line"/>
      <point x="142" y="1249" type="line"/>
      <point x="134.0" y="1379.6666666666665"/>
      <point x="259.33333333333337" y="1477.0"/>
      <point x="446" y="1477" type="curve" smooth="yes"/>
      <point x="624.6666666666667" y="1477.0"/>
      <point x="737.0" y="1379.6666666666665"/>
      <point x="737" y="1201" type="curve" smooth="yes"/>
      <point x="737" y="887" type="line" smooth="yes"/>
      <point x="737.0" y="819.0"/>
      <point x="744.3333333333333" y="762.0"/>
      <point x="763" y="706" type="curve"/>
    </contour>
    <contour>
      <point x="386" y="836" type="curve" smooth="yes"/>
      <point x="454.0" y="836.0"/>
      <point x="539.3333333333333" y="884.3333333333333"/>
      <point x="562" y="931" type="curve"/>
      <point x="562" y="1034" type="line"/>
      <point x="426" y="1034" type="line" smooth="yes"/>
      <point x="327.33333333333337" y="1034.0"/>
      <point x="269.0" y="985.3333333333333"/>
      <point x="269" y="924" type="curve" smooth="yes"/>
      <point x="269.0" y="866.6666666666667"/>
      <point x="307.33333333333337" y="836.0"/>
    </contour>
  </outline>
</glyph>
<glyph name="logicalnot" format="1">
  <advance width="1098"/>
  <unicode hex="00AC"/>
  <outline>
    <contour>
      <point x="949" y="374" type="line"/>
      <point x="749" y="374" type="line"/>
      <point x="749" y="634" type="line"/>
      <point x="114" y="634" type="line"/>
      <point x="114" y="805" type="line"/>
      <point x="949" y="805" type="line"/>
    </contour>
  </outline>
</glyph>
<glyph name="registered" format="1">
  <advance width="1566"/>
  <unicode hex="00AE"/>
  <outline>
    <contour>
      <point x="74" y="729" type="curve" smooth="yes"/>
      <point x="74.0" y="1149.0"/>
      <point x="389.3333333333335" y="1476.0"/>
      <point x="784" y="1476" type="curve" smooth="yes"/>
      <point x="1177.3333333333333" y="1476.0"/>
      <point x="1494.0" y="1149.0"/>
      <point x="1494" y="729" type="curve" smooth="yes"/>
      <point x="1494.0" y="307.66666666666674"/>
      <point x="1176.0" y="-21.0"/>
      <point x="784" y="-21" type="curve" smooth="yes"/>
      <point x="389.3333333333335" y="-21.0"/>
      <point x="74.0" y="307.66666666666674"/>
    </contour>
    <contour>
      <point x="196" y="729" type="curve" smooth="yes"/>
      <point x="196.0" y="377.0"/>
      <point x="457.3333333333335" y="104.0"/>
      <point x="784" y="104" type="curve" smooth="yes"/>
      <point x="1109.3333333333333" y="104.0"/>
      <point x="1371.0" y="377.0"/>
      <point x="1371" y="729" type="curve" smooth="yes"/>
      <point x="1371.0" y="1079.6666666666665"/>
      <point x="1109.3333333333333" y="1351.0"/>
      <point x="784" y="1351" type="curve" smooth="yes"/>
      <point x="456.0" y="1351.0"/>
      <point x="196.0" y="1079.6666666666665"/>
    </contour>
    <contour>
      <point x="640" y="653" type="line"/>
      <point x="640" y="316" type="line"/>
      <point x="489" y="316" type="line"/>
      <point x="489" y="1166" type="line"/>
      <point x="770" y="1166" type="line" smooth="yes"/>
      <point x="971.3333333333333" y="1166.0"/>
      <point x="1095.0" y="1072.0"/>
      <point x="1095" y="904" type="curve" smooth="yes"/>
      <point x="1095.0" y="826.6666666666667"/>
      <point x="1055.6666666666667" y="769.3333333333333"/>
      <point x="981" y="728" type="curve"/>
      <point x="1058.3333333333333" y="688.0"/>
      <point x="1092.0" y="613.6666666666667"/>
      <point x="1092" y="515" type="curve" smooth="yes"/>
      <point x="1092" y="459" type="line" smooth="yes"/>
      <point x="1092.0" y="404.33333333333337"/>
      <point x="1095.6666666666665" y="360.0"/>
      <point x="1109" y="332" type="curve"/>
      <point x="1109" y="316" type="line"/>
      <point x="954" y="316" type="line"/>
      <point x="942.0" y="344.0"/>
      <point x="941.0" y="404.0"/>
      <point x="941" y="460" type="curve" smooth="yes"/>
      <point x="941" y="514" type="line" smooth="yes"/>
      <point x="941.0" y="608.6666666666667"/>
      <point x="899.3333333333333" y="653.0"/>
      <point x="798" y="653" type="curve" smooth="yes"/>
    </contour>
    <contour>
      <point x="640" y="787" type="line"/>
      <point x="776" y="787" type="line" smooth="yes"/>
      <point x="870.6666666666667" y="787.0"/>
      <point x="945.0" y="828.3333333333333"/>
      <point x="945" y="903" type="curve" smooth="yes"/>
      <point x="945.0" y="999.0"/>
      <point x="899.3333333333333" y="1033.0"/>
      <point x="770" y="1033" type="curve" smooth="yes"/>
      <point x="640" y="1033" type="line"/>
    </contour>
  </outline>
</glyph>
<glyph name="degree" format="1">
  <advance width="745"/>
  <unicode hex="00B0"/>
  <outline>
    <contour>
      <point x="106" y="1203" type="curve" smooth="yes"/>
      <point x="106.0" y="1352.3333333333335"/>
      <point x="228.66666666666674" y="1477.0"/>
      <point x="378" y="1477" type="curve" smooth="yes"/>
      <point x="524.6666666666666" y="1477.0"/>
      <point x="646.0" y="1352.3333333333335"/>
      <point x="646" y="1203" type="curve" smooth="yes"/>
      <point x="646.0" y="1050.9999999999998"/>
      <point x="525.9999999999999" y="932.0"/>
      <point x="378" y="932" type="curve" smooth="yes"/>
      <point x="227.33333333333326" y="932.0"/>
      <point x="106.0" y="1052.3333333333335"/>
    </contour>
    <contour>
      <point x="253" y="1203" type="curve" smooth="yes"/>
      <point x="253.0" y="1132.3333333333335"/>
      <point x="308.66666666666663" y="1079.0"/>
      <point x="378" y="1079" type="curve" smooth="yes"/>
      <point x="447.33333333333337" y="1079.0"/>
      <point x="500.0" y="1131.0"/>
      <point x="500" y="1203" type="curve" smooth="yes"/>
      <point x="500.0" y="1275.0"/>
      <point x="446.0" y="1331.0"/>
      <point x="378" y="1331" type="curve" smooth="yes"/>
      <point x="308.66666666666663" y="1331.0"/>
      <point x="253.0" y="1275.0"/>
    </contour>
  </outline>
</glyph>
<glyph name="plusminus" format="1">
  <advance width="1040"/>
  <unicode hex="00B1"/>
  <outline>
    <contour>
      <point x="655" y="947" type="line"/>
      <point x="982" y="947" type="line"/>
      <point x="982" y="715" type="line"/>
      <point x="655" y="715" type="line"/>
      <point x="655" y="332" type="line"/>
      <point x="399" y="332" type="line"/>
      <point x="399" y="715" type="line"/>
      <point x="66" y="715" type="line"/>
      <point x="66" y="947" type="line"/>
      <point x="399" y="947" type="line"/>
      <point x="399" y="1310" type="line"/>
      <point x="655" y="1310" type="line"/>
    </contour>
    <contour>
      <point x="953" y="1" type="line"/>
      <point x="119" y="1" type="line"/>
      <point x="119" y="229" type="line"/>
      <point x="953" y="229" type="line"/>
    </contour>
  </outline>
</glyph>
<glyph name="twosuperior" format="1">
  <advance width="823"/>
  <unicode hex="00B2"/>
  <outline>
    <contour>
      <point x="729" y="667" type="line"/>
      <point x="106" y="667" type="line"/>
      <point x="106" y="822" type="line"/>
      <point x="416" y="1074" type="line" smooth="yes"/>
      <point x="496.0" y="1140.6666666666665"/>
      <point x="511.0" y="1177.3333333333335"/>
      <point x="511" y="1232" type="curve" smooth="yes"/>
      <point x="511.0" y="1284.0"/>
      <point x="480.33333333333337" y="1324.0"/>
      <point x="415" y="1324" type="curve" smooth="yes"/>
      <point x="341.66666666666663" y="1324.0"/>
      <point x="304.0" y="1279.6666666666665"/>
      <point x="304" y="1217" type="curve"/>
      <point x="103" y="1217" type="line"/>
      <point x="101" y="1223" type="line"/>
      <point x="93.0" y="1364.3333333333335"/>
      <point x="222.66666666666674" y="1479.0"/>
      <point x="420" y="1479" type="curve" smooth="yes"/>
      <point x="612.0" y="1479.0"/>
      <point x="721.0" y="1388.3333333333335"/>
      <point x="721" y="1231" type="curve" smooth="yes"/>
      <point x="721.0" y="1121.6666666666665"/>
      <point x="655.3333333333333" y="1058.3333333333333"/>
      <point x="490" y="921" type="curve" smooth="yes"/>
      <point x="381" y="828" type="line"/>
      <point x="383" y="822" type="line"/>
      <point x="729" y="822" type="line"/>
    </contour>
  </outline>
</glyph>
<glyph name="paragraph" format="1">
  <advance width="1127"/>
  <unicode hex="00B6"/>
  <outline>
    <contour>
      <point x="54" y="988" type="curve" smooth="yes"/>
      <point x="54" y="1264"/>
      <point x="235" y="1456"/>
      <point x="546" y="1456" type="curve" smooth="yes"/>
      <point x="1076" y="1456" type="line"/>
      <point x="1076" y="1280" type="line"/>
      <point x="921" y="1250" type="line"/>
      <point x="921" y="205" type="line"/>
      <point x="1076" y="175" type="line"/>
      <point x="1076" y="0" type="line"/>
      <point x="473" y="0" type="line"/>
      <point x="473" y="175" type="line"/>
      <point x="629" y="205" type="line"/>
      <point x="629" y="520" type="line"/>
      <point x="546" y="520" type="line" smooth="yes"/>
      <point x="235" y="520"/>
      <point x="54" y="709"/>
    </contour>
  </outline>
</glyph>
<glyph name="AE" format="1">
  <advance width="2047"/>
  <unicode hex="00C6"/>
  <outline>
    <contour>
      <point x="66" y="175" type="line"/>
      <point x="202" y="195" type="line"/>
      <point x="880" y="1456" type="line"/>
      <point x="1897" y="1456" type="line"/>
      <point x="1897" y="1087" type="line"/>
      <point x="1674" y="1087" type="line"/>
      <point x="1663" y="1228" type="line"/>
      <point x="1301" y="1228" type="line"/>
      <point x="1317" y="862" type="line"/>
      <point x="1816" y="862" type="line"/>
      <point x="1816" y="635" type="line"/>
      <point x="1326" y="635" type="line"/>
      <point x="1343" y="227" type="line"/>
      <point x="1724" y="227" type="line"/>
      <point x="1736" y="368" type="line"/>
      <point x="1958" y="368" type="line"/>
      <point x="1958" y="0" type="line"/>
      <point x="906" y="0" type="line"/>
      <point x="906" y="175" type="line"/>
      <point x="1052" y="203" type="line"/>
      <point x="1046" y="354" type="line"/>
      <point x="616" y="354" type="line"/>
      <point x="533" y="189" type="line"/>
      <point x="617" y="175" type="line"/>
      <point x="617" y="0" type="line"/>
      <point x="66" y="0" type="line"/>
    </contour>
    <contour>
      <point x="730.0" y="582.0" type="line"/>
      <point x="1036.0" y="582.0" type="line"/>
      <point x="1013.0" y="1136.0" type="line"/>
      <point x="1008.0" y="1137.0" type="line"/>
      <point x="998.0" y="1116.0" type="line"/>
    </contour>
  </outline>
</glyph>
<glyph name="multiply" format="1">
  <advance width="1068"/>
  <unicode hex="00D7"/>
  <outline>
    <contour>
      <point x="61" y="371" type="line"/>
      <point x="370" y="686" type="line"/>
      <point x="61" y="1001" type="line"/>
      <point x="232" y="1165" type="line"/>
      <point x="536" y="855" type="line"/>
      <point x="840" y="1165" type="line"/>
      <point x="1011" y="1001" type="line"/>
      <point x="702" y="686" type="line"/>
      <point x="1011" y="371" type="line"/>
      <point x="840" y="207" type="line"/>
      <point x="536" y="517" type="line"/>
      <point x="232" y="207" type="line"/>
    </contour>
  </outline>
</glyph>
<glyph name="Thorn" format="1">
  <advance width="1306"/>
  <unicode hex="00DE"/>
  <outline>
    <contour>
      <point x="67" y="175" type="line"/>
      <point x="223" y="205" type="line"/>
      <point x="223" y="1250" type="line"/>
      <point x="67" y="1280" type="line"/>
      <point x="67" y="1456" type="line"/>
      <point x="515" y="1456" type="line"/>
      <point x="671" y="1456" type="line"/>
      <point x="671" y="1280" type="line"/>
      <point x="515" y="1250" type="line"/>
      <point x="515" y="1186" type="line"/>
      <point x="736" y="1186" type="line" smooth="yes"/>
      <point x="1074.6666666666665" y="1186.0"/>
      <point x="1274.0" y="1004.6666666666665"/>
      <point x="1274" y="738" type="curve" smooth="yes"/>
      <point x="1274.0" y="470.0"/>
      <point x="1074.6666666666665" y="289.0"/>
      <point x="736" y="289" type="curve" smooth="yes"/>
      <point x="515" y="289" type="line"/>
      <point x="515" y="205" type="line"/>
      <point x="671" y="175" type="line"/>
      <point x="671" y="0" type="line"/>
      <point x="67" y="0" type="line"/>
    </contour>
    <contour>
      <point x="515" y="961" type="line"/>
      <point x="515" y="514" type="line"/>
      <point x="736" y="514" type="line" smooth="yes"/>
      <point x="900.0" y="514.0"/>
      <point x="982.0" y="609.3333333333333"/>
      <point x="982" y="736" type="curve" smooth="yes"/>
      <point x="982.0" y="862.6666666666667"/>
      <point x="900.0" y="961.0"/>
      <point x="736" y="961" type="curve" smooth="yes"/>
    </contour>
  </outline>
</glyph>
<glyph name="germandbls" format="1">
  <advance width="1321"/>
  <unicode hex="00DF"/>
  <outline>
    <contour>
      <point x="486" y="0" type="line"/>
      <point x="39" y="0" type="line"/>
      <point x="39" y="175" type="line"/>
      <point x="194" y="205" type="line"/>
      <point x="194" y="1101" type="line" smooth="yes"/>
      <point x="194.0" y="1402.3333333333335"/>
      <point x="377.66666666666674" y="1573.0"/>
      <point x="675" y="1573" type="curve" smooth="yes"/>
      <point x="916.3333333333333" y="1573.0"/>
      <point x="1093.0" y="1440.6666666666665"/>
      <point x="1093" y="1206" type="curve" smooth="yes"/>
      <point x="1093.0" y="1062.0"/>
      <point x="987.0" y="925.6666666666667"/>
      <point x="987" y="835" type="curve" smooth="yes"/>
      <point x="987.0" y="760.3333333333333"/>
      <point x="1286.0" y="542.6666666666666"/>
      <point x="1286" y="356" type="curve" smooth="yes"/>
      <point x="1286.0" y="104.0"/>
      <point x="1128.3333333333333" y="-21.0"/>
      <point x="839" y="-21" type="curve" smooth="yes"/>
      <point x="736.3333333333333" y="-21.0"/>
      <point x="625.3333333333333" y="0.3333333333333357"/>
      <point x="576" y="35" type="curve"/>
      <point x="630" y="258" type="line"/>
      <point x="678.0" y="228.66666666666669"/>
      <point x="753.0" y="203.0"/>
      <point x="833" y="203" type="curve" smooth="yes"/>
      <point x="934.3333333333333" y="203.0"/>
      <point x="995.0" y="257.33333333333337"/>
      <point x="995" y="344" type="curve" smooth="yes"/>
      <point x="995.0" y="438.66666666666663"/>
      <point x="695.0" y="636.6666666666667"/>
      <point x="695" y="826" type="curve" smooth="yes"/>
      <point x="695.0" y="946.0000000000001"/>
      <point x="805.0" y="1091.0"/>
      <point x="805" y="1191" type="curve" smooth="yes"/>
      <point x="805.0" y="1285.6666666666665"/>
      <point x="749.3333333333333" y="1349.0"/>
      <point x="656" y="1349" type="curve" smooth="yes"/>
      <point x="554.6666666666667" y="1349.0"/>
      <point x="486.0" y="1253.0"/>
      <point x="486" y="1097" type="curve" smooth="yes"/>
    </contour>
  </outline>
</glyph>
<glyph name="ae" format="1">
  <advance width="1784"/>
  <unicode hex="00E6"/>
  <outline>
    <contour>
      <point x="1273" y="-21" type="curve" smooth="yes"/>
      <point x="1101.0" y="-21.0"/>
      <point x="965.3333333333333" y="34.666666666666686"/>
      <point x="876" y="136" type="curve"/>
      <point x="796.0" y="45.33333333333334"/>
      <point x="659.3333333333333" y="-21.0"/>
      <point x="474" y="-21" type="curve" smooth="yes"/>
      <point x="218.0" y="-21.0"/>
      <point x="73.0" y="107.66666666666669"/>
      <point x="73" y="317" type="curve" smooth="yes"/>
      <point x="73.0" y="529.0"/>
      <point x="246.0" y="648.0"/>
      <point x="570" y="648" type="curve" smooth="yes"/>
      <point x="751" y="648" type="line"/>
      <point x="751" y="707" type="line" smooth="yes"/>
      <point x="751.0" y="812.3333333333333"/>
      <point x="693.6666666666667" y="877.0"/>
      <point x="595" y="877" type="curve" smooth="yes"/>
      <point x="487.0" y="877.0"/>
      <point x="422.0" y="820.6666666666667"/>
      <point x="422" y="746" type="curve"/>
      <point x="139" y="764" type="line"/>
      <point x="137" y="770" type="line"/>
      <point x="129.0" y="962.0000000000001"/>
      <point x="315.3333333333335" y="1102.0"/>
      <point x="598" y="1102" type="curve" smooth="yes"/>
      <point x="734.0" y="1102.0"/>
      <point x="848.3333333333333" y="1064.3333333333335"/>
      <point x="927" y="995" type="curve"/>
      <point x="1008.3333333333331" y="1064.3333333333335"/>
      <point x="1118.0" y="1102.0"/>
      <point x="1250" y="1102" type="curve" smooth="yes"/>
      <point x="1532.6666666666665" y="1102.0"/>
      <point x="1704.0" y="913.3333333333333"/>
      <point x="1704" y="612" type="curve" smooth="yes"/>
      <point x="1704" y="454" type="line"/>
      <point x="1054" y="454" type="line"/>
      <point x="1052" y="448" type="line"/>
      <point x="1057.3333333333335" y="298.66666666666674"/>
      <point x="1138.6666666666665" y="203.0"/>
      <point x="1304" y="203" type="curve" smooth="yes"/>
      <point x="1426.6666666666665" y="203.0"/>
      <point x="1494.0" y="229.33333333333337"/>
      <point x="1598" y="284" type="curve"/>
      <point x="1675" y="100" type="line"/>
      <point x="1592.3333333333335" y="36.0"/>
      <point x="1441.0" y="-21.0"/>
    </contour>
    <contour>
      <point x="530" y="185" type="curve" smooth="yes"/>
      <point x="607.3333333333333" y="185.0"/>
      <point x="701.6666666666667" y="232.0"/>
      <point x="751" y="288" type="curve"/>
      <point x="751" y="464" type="line"/>
      <point x="572" y="464" type="line" smooth="yes"/>
      <point x="441.33333333333337" y="464.0"/>
      <point x="365.0" y="397.0"/>
      <point x="365" y="313" type="curve" smooth="yes"/>
      <point x="365.0" y="234.33333333333337"/>
      <point x="420.66666666666663" y="185.0"/>
    </contour>
    <contour>
      <point x="1250" y="877" type="curve" smooth="yes"/>
      <point x="1123.3333333333335" y="877.0"/>
      <point x="1063.3333333333335" y="789.0"/>
      <point x="1054" y="649" type="curve"/>
      <point x="1056" y="644" type="line"/>
      <point x="1418" y="644" type="line"/>
      <point x="1418" y="672" type="line" smooth="yes"/>
      <point x="1418.0" y="797.3333333333333"/>
      <point x="1360.6666666666665" y="877.0"/>
    </contour>
  </outline>
</glyph>
<glyph name="oslash" format="1">
  <advance width="1178"/>
  <unicode hex="00F8"/>
  <outline>
    <contour>
      <point x="76" y="551" type="line" smooth="yes"/>
      <point x="76.0" y="873.6666666666665"/>
      <point x="267.33333333333337" y="1102.0"/>
      <point x="586" y="1102" type="curve" smooth="yes"/>
      <point x="646.0" y="1102.0"/>
      <point x="701.3333333333333" y="1092.6666666666665"/>
      <point x="756" y="1078" type="curve"/>
      <point x="823" y="1215" type="line"/>
      <point x="985" y="1215" type="line"/>
      <point x="887" y="1014" type="line"/>
      <point x="1021.6666666666667" y="918.0"/>
      <point x="1097.0" y="751.0"/>
      <point x="1097" y="551" type="curve" smooth="yes"/>
      <point x="1097" y="530" type="line" smooth="yes"/>
      <point x="1097.0" y="204.66666666666669"/>
      <point x="905.3333333333333" y="-21.0"/>
      <point x="588" y="-21" type="curve" smooth="yes"/>
      <point x="517.3333333333333" y="-21.0"/>
      <point x="453.33333333333337" y="-10.0"/>
      <point x="396" y="10" type="curve"/>
      <point x="322" y="-141" type="line"/>
      <point x="160" y="-141" type="line"/>
      <point x="268" y="80" type="line"/>
      <point x="142.6666666666667" y="175.99999999999997"/>
      <point x="76.0" y="336.6666666666667"/>
      <point x="76" y="530" type="curve" smooth="yes"/>
    </contour>
    <contour>
      <point x="806" y="551" type="line" smooth="yes"/>
      <point x="806.0" y="633.6666666666667"/>
      <point x="792.3333333333333" y="708.0"/>
      <point x="767" y="756" type="curve"/>
      <point x="761" y="756" type="line"/>
      <point x="499" y="221" type="line"/>
      <point x="523.0" y="209.0"/>
      <point x="553.3333333333333" y="203.0"/>
      <point x="588" y="203" type="curve" smooth="yes"/>
      <point x="738.6666666666667" y="203.0"/>
      <point x="806.0" y="334.0"/>
      <point x="806" y="530" type="curve" smooth="yes"/>
    </contour>
    <contour>
      <point x="368" y="530" type="line" smooth="yes"/>
      <point x="368.0" y="456.66666666666663"/>
      <point x="376.33333333333337" y="393.33333333333337"/>
      <point x="395" y="352" type="curve"/>
      <point x="400" y="351" type="line"/>
      <point x="653" y="867" type="line"/>
      <point x="631.6666666666667" y="872.3333333333333"/>
      <point x="608.6666666666667" y="877.0"/>
      <point x="586" y="877" type="curve" smooth="yes"/>
      <point x="434.0" y="877.0"/>
      <point x="368.0" y="743.0"/>
      <point x="368" y="551" type="curve" smooth="yes"/>
    </contour>
  </outline>
</glyph>
<glyph name="Hbar" format="1">
  <advance width="1567"/>
  <unicode hex="0126"/>
  <outline>
    <contour>
      <point x="1526" y="1456" type="line"/>
      <point x="1526" y="1280" type="line"/>
      <point x="1370" y="1250" type="line"/>
      <point x="1370" y="1110" type="line"/>
      <point x="1493" y="1110" type="line"/>
      <point x="1493" y="958" type="line"/>
      <point x="1370" y="958" type="line"/>
      <point x="1370" y="205" type="line"/>
      <point x="1526" y="175" type="line"/>
      <point x="1526" y="0" type="line"/>
      <point x="923" y="0" type="line"/>
      <point x="923" y="175" type="line"/>
      <point x="1079" y="205" type="line"/>
      <point x="1079" y="605" type="line"/>
      <point x="485" y="605" type="line"/>
      <point x="485" y="205" type="line"/>
      <point x="641" y="175" type="line"/>
      <point x="641" y="0" type="line"/>
      <point x="38" y="0" type="line"/>
      <point x="38" y="175" type="line"/>
      <point x="193" y="205" type="line"/>
      <point x="193" y="958" type="line"/>
      <point x="71" y="958" type="line"/>
      <point x="71" y="1110" type="line"/>
      <point x="193" y="1110" type="line"/>
      <point x="193" y="1250" type="line"/>
      <point x="38" y="1280" type="line"/>
      <point x="38" y="1456" type="line"/>
      <point x="641" y="1456" type="line"/>
      <point x="641" y="1280" type="line"/>
      <point x="485" y="1250" type="line"/>
      <point x="485" y="1110" type="line"/>
      <point x="1079" y="1110" type="line"/>
      <point x="1079" y="1250" type="line"/>
      <point x="923" y="1280" type="line"/>
      <point x="923" y="1456" type="line"/>
      <point x="1079" y="1456" type="line"/>
      <point x="1370" y="1456" type="line"/>
    </contour>
    <contour>
      <point x="485" y="830" type="line"/>
      <point x="1079" y="830" type="line"/>
      <point x="1079" y="958" type="line"/>
      <point x="485" y="958" type="line"/>
    </contour>
  </outline>
</glyph>
<glyph name="hbar" format="1">
  <advance width="1332"/>
  <unicode hex="0127"/>
  <outline>
    <contour>
      <point x="77" y="175" type="line"/>
      <point x="218" y="205" type="line"/>
      <point x="218" y="1120" type="line"/>
      <point x="9" y="1120" type="line"/>
      <point x="9" y="1275" type="line"/>
      <point x="218" y="1275" type="line"/>
      <point x="218" y="1354" type="line"/>
      <point x="62" y="1384" type="line"/>
      <point x="62" y="1560" type="line"/>
      <point x="509" y="1560" type="line"/>
      <point x="509" y="1275" type="line"/>
      <point x="710" y="1275" type="line"/>
      <point x="710" y="1120" type="line"/>
      <point x="509" y="1120" type="line"/>
      <point x="509" y="944" type="line"/>
      <point x="577.0" y="1044.0"/>
      <point x="678.0" y="1102.0"/>
      <point x="798" y="1102" type="curve" smooth="yes"/>
      <point x="1024.6666666666665" y="1102.0"/>
      <point x="1161.0" y="955.3333333333334"/>
      <point x="1161" y="642" type="curve" smooth="yes"/>
      <point x="1161" y="205" type="line"/>
      <point x="1301" y="175" type="line"/>
      <point x="1301" y="0" type="line"/>
      <point x="743" y="0" type="line"/>
      <point x="743" y="175" type="line"/>
      <point x="869" y="205" type="line"/>
      <point x="869" y="644" type="line" smooth="yes"/>
      <point x="869.0" y="812.0"/>
      <point x="809.3333333333333" y="875.0"/>
      <point x="692" y="875" type="curve" smooth="yes"/>
      <point x="610.6666666666667" y="875.0"/>
      <point x="550.3333333333333" y="844.3333333333333"/>
      <point x="509" y="791" type="curve"/>
      <point x="509" y="205" type="line"/>
      <point x="635" y="175" type="line"/>
      <point x="635" y="0" type="line"/>
      <point x="77" y="0" type="line"/>
    </contour>
  </outline>
</glyph>
<glyph name="kgreenlandic" format="1">
  <advance width="1270"/>
  <unicode hex="0138"/>
  <outline>
    <contour>
      <point x="47.0" y="175.0" type="line"/>
      <point x="188.0" y="205.0" type="line"/>
      <point x="188.0" y="876.0" type="line"/>
      <point x="42.0" y="906.0" type="line"/>
      <point x="42.0" y="1082.0" type="line"/>
      <point x="479.0" y="1082.0" type="line"/>
      <point x="479.0" y="662.0" type="line"/>
      <point x="574.0" y="662.0" type="line"/>
      <point x="733.0" y="888.0" type="line"/>
      <point x="736.0" y="893.0" type="line"/>
      <point x="640.0" y="906.0" type="line"/>
      <point x="640.0" y="1082.0" type="line"/>
      <point x="1171.0" y="1082.0" type="line"/>
      <point x="1171.0" y="906.0" type="line"/>
      <point x="1044.0" y="877.0" type="line"/>
      <point x="830.0" y="603.0" type="line"/>
      <point x="1099.0" y="198.0" type="line"/>
      <point x="1210.0" y="175.0" type="line"/>
      <point x="1210.0" y="0.0" type="line"/>
      <point x="886.0" y="0.0" type="line"/>
      <point x="604.0" y="453.0" type="line"/>
      <point x="479.0" y="453.0" type="line"/>
      <point x="479.0" y="205.0" type="line"/>
      <point x="605.0" y="175.0" type="line"/>
      <point x="605.0" y="0.0" type="line"/>
      <point x="47.0" y="0.0" type="line"/>
    </contour>
  </outline>
</glyph>
<glyph name="lslash" format="1">
  <advance width="653"/>
  <unicode hex="0142"/>
  <outline>
    <contour>
      <point x="473" y="905" type="line"/>
      <point x="619" y="954" type="line"/>
      <point x="619" y="759" type="line"/>
      <point x="473" y="710" type="line"/>
      <point x="473" y="205" type="line"/>
      <point x="614" y="175" type="line"/>
      <point x="614" y="0" type="line"/>
      <point x="40" y="0" type="line"/>
      <point x="40" y="175" type="line"/>
      <point x="181" y="205" type="line"/>
      <point x="181" y="614" type="line"/>
      <point x="54" y="572" type="line"/>
      <point x="54" y="767" type="line"/>
      <point x="181" y="809" type="line"/>
      <point x="181" y="1354" type="line"/>
      <point x="25" y="1384" type="line"/>
      <point x="25" y="1560" type="line"/>
      <point x="473" y="1560" type="line"/>
    </contour>
  </outline>
</glyph>
<glyph name="Eng" format="1">
  <advance width="1584"/>
  <unicode hex="014A"/>
  <outline>
    <contour>
      <point x="68" y="1280" type="line"/>
      <point x="68" y="1456" type="line"/>
      <point x="516" y="1456" type="line"/>
      <point x="1103" y="475" type="line"/>
      <point x="1109" y="476" type="line"/>
      <point x="1109" y="1250" type="line"/>
      <point x="954" y="1280" type="line"/>
      <point x="954" y="1456" type="line"/>
      <point x="1556" y="1456" type="line"/>
      <point x="1556" y="1280" type="line"/>
      <point x="1401" y="1250" type="line"/>
      <point x="1401" y="-40" type="line" smooth="yes"/>
      <point x="1401.0" y="-293.3333333333333"/>
      <point x="1259.0" y="-437.0"/>
      <point x="1019" y="-437" type="curve" smooth="yes"/>
      <point x="964.3333333333333" y="-437.0"/>
      <point x="924.3333333333333" y="-432.0"/>
      <point x="875" y="-420" type="curve"/>
      <point x="889" y="-199" type="line"/>
      <point x="919.6666666666667" y="-207.0"/>
      <point x="952.0" y="-212.0"/>
      <point x="988" y="-212" type="curve" smooth="yes"/>
      <point x="1064.0" y="-212.0"/>
      <point x="1109.0" y="-149.33333333333331"/>
      <point x="1109" y="-40" type="curve" smooth="yes"/>
      <point x="1109" y="0" type="line"/>
      <point x="522" y="982" type="line"/>
      <point x="516" y="981" type="line"/>
      <point x="516" y="205" type="line"/>
      <point x="671" y="175" type="line"/>
      <point x="671" y="0" type="line"/>
      <point x="68" y="0" type="line"/>
      <point x="68" y="175" type="line"/>
      <point x="224" y="205" type="line"/>
      <point x="224" y="1250" type="line"/>
    </contour>
  </outline>
</glyph>
<glyph name="eng" format="1">
  <advance width="1282"/>
  <unicode hex="014B"/>
  <outline>
    <contour>
      <point x="93" y="175" type="line"/>
      <point x="233" y="205" type="line"/>
      <point x="233" y="876" type="line"/>
      <point x="78" y="906" type="line"/>
      <point x="78" y="1082" type="line"/>
      <point x="504" y="1082" type="line"/>
      <point x="518" y="930" type="line"/>
      <point x="588.6666666666667" y="1038.0"/>
      <point x="696.6666666666667" y="1102.0"/>
      <point x="826" y="1102" type="curve" smooth="yes"/>
      <point x="1043.333333333333" y="1102.0"/>
      <point x="1173.0" y="965.6666666666667"/>
      <point x="1173" y="663" type="curve" smooth="yes"/>
      <point x="1173" y="-40" type="line" smooth="yes"/>
      <point x="1173.0" y="-293.3333333333334"/>
      <point x="1030.6666666666665" y="-437.0"/>
      <point x="792" y="-437" type="curve" smooth="yes"/>
      <point x="737.3333333333333" y="-437.0"/>
      <point x="695.0" y="-432.0"/>
      <point x="647" y="-420" type="curve"/>
      <point x="661" y="-196" type="line"/>
      <point x="690.3333333333333" y="-202.66666666666669"/>
      <point x="723.6666666666667" y="-208.0"/>
      <point x="761" y="-208" type="curve" smooth="yes"/>
      <point x="838.3333333333333" y="-208.0"/>
      <point x="881.0" y="-149.33333333333331"/>
      <point x="881" y="-40" type="curve" smooth="yes"/>
      <point x="881" y="662" type="line" smooth="yes"/>
      <point x="881.0" y="816.6666666666667"/>
      <point x="827.0" y="875.0"/>
      <point x="719" y="875" type="curve" smooth="yes"/>
      <point x="633.6666666666667" y="875.0"/>
      <point x="567.6666666666667" y="842.0"/>
      <point x="525" y="786" type="curve"/>
      <point x="525" y="205" type="line"/>
      <point x="665" y="175" type="line"/>
      <point x="665" y="0" type="line"/>
      <point x="93" y="0" type="line"/>
    </contour>
  </outline>
</glyph>
<glyph name="OE" format="1">
  <advance width="1996"/>
  <unicode hex="0152"/>
  <outline>
    <contour>
      <point x="1724" y="640" type="line"/>
      <point x="1231" y="640" type="line"/>
      <point x="1231" y="224" type="line"/>
      <point x="1701" y="224" type="line"/>
      <point x="1714" y="398" type="line"/>
      <point x="1936" y="398" type="line"/>
      <point x="1936" y="0" type="line"/>
      <point x="998" y="0" type="line"/>
      <point x="875.3333333333333" y="-13.333333333333332"/>
      <point x="799.3333333333333" y="-21.0"/>
      <point x="710" y="-21" type="curve" smooth="yes"/>
      <point x="350.0" y="-21.0"/>
      <point x="103.0" y="222.66666666666674"/>
      <point x="103" y="576" type="curve" smooth="yes"/>
      <point x="103" y="880" type="line" smooth="yes"/>
      <point x="103.0" y="1233.3333333333335"/>
      <point x="347.99999999999994" y="1477.0"/>
      <point x="708" y="1477" type="curve" smooth="yes"/>
      <point x="800.0" y="1477.0"/>
      <point x="892.6666666666667" y="1468.0"/>
      <point x="998" y="1456" type="curve"/>
      <point x="1934" y="1456" type="line"/>
      <point x="1934" y="1057" type="line"/>
      <point x="1710" y="1057" type="line"/>
      <point x="1697" y="1231" type="line"/>
      <point x="1231" y="1231" type="line"/>
      <point x="1231" y="865" type="line"/>
      <point x="1724" y="865" type="line"/>
    </contour>
    <contour>
      <point x="710" y="204" type="curve" smooth="yes"/>
      <point x="787.3333333333333" y="204.0"/>
      <point x="864.3333333333333" y="210.0"/>
      <point x="939" y="222" type="curve"/>
      <point x="939" y="1233" type="line"/>
      <point x="860.3333333333333" y="1243.6666666666665"/>
      <point x="784.0" y="1252.0"/>
      <point x="708" y="1252" type="curve" smooth="yes"/>
      <point x="510.66666666666686" y="1252.0"/>
      <point x="394.0" y="1123.3333333333335"/>
      <point x="394" y="882" type="curve" smooth="yes"/>
      <point x="394" y="576" type="line" smooth="yes"/>
      <point x="394.0" y="333.33333333333337"/>
      <point x="512.6666666666667" y="204.0"/>
    </contour>
  </outline>
</glyph>
<glyph name="oe" format="1">
  <advance width="1875"/>
  <unicode hex="0153"/>
  <outline>
    <contour>
      <point x="92" y="551" type="line" smooth="yes"/>
      <point x="92.0" y="873.6666666666665"/>
      <point x="283.33333333333337" y="1102.0"/>
      <point x="602" y="1102" type="curve" smooth="yes"/>
      <point x="755.3333333333333" y="1102.0"/>
      <point x="881.6666666666667" y="1048.3333333333333"/>
      <point x="971" y="955" type="curve"/>
      <point x="1056.3333333333333" y="1049.6666666666667"/>
      <point x="1176.0" y="1102.0"/>
      <point x="1320" y="1102" type="curve" smooth="yes"/>
      <point x="1612.0" y="1102.0"/>
      <point x="1781.0" y="913.0"/>
      <point x="1781" y="613" type="curve" smooth="yes"/>
      <point x="1781" y="454" type="line"/>
      <point x="1134" y="454" type="line"/>
      <point x="1132" y="448" type="line"/>
      <point x="1142.6666666666665" y="305.33333333333337"/>
      <point x="1230.3333333333335" y="203.0"/>
      <point x="1377" y="203" type="curve" smooth="yes"/>
      <point x="1506.3333333333335" y="203.0"/>
      <point x="1577.0" y="228.0"/>
      <point x="1677" y="284" type="curve"/>
      <point x="1757" y="104" type="line"/>
      <point x="1669.0" y="33.33333333333334"/>
      <point x="1520.6666666666665" y="-21.0"/>
      <point x="1346" y="-21" type="curve" smooth="yes"/>
      <point x="1190.0" y="-21.0"/>
      <point x="1062.3333333333333" y="31.0"/>
      <point x="973" y="127" type="curve"/>
      <point x="885.0" y="31.0"/>
      <point x="758.6666666666667" y="-21.0"/>
      <point x="604" y="-21" type="curve" smooth="yes"/>
      <point x="282.66666666666674" y="-21.0"/>
      <point x="92.0" y="204.66666666666674"/>
      <point x="92" y="530" type="curve" smooth="yes"/>
    </contour>
    <contour>
      <point x="384" y="530" type="line" smooth="yes"/>
      <point x="384.0" y="332.6666666666668"/>
      <point x="449.33333333333326" y="203.0"/>
      <point x="604" y="203" type="curve" smooth="yes"/>
      <point x="754.6666666666667" y="203.0"/>
      <point x="822.0" y="334.0"/>
      <point x="822" y="530" type="curve" smooth="yes"/>
      <point x="822" y="551" type="line" smooth="yes"/>
      <point x="822.0" y="743.0"/>
      <point x="754.0" y="877.0"/>
      <point x="602" y="877" type="curve" smooth="yes"/>
      <point x="450.0" y="877.0"/>
      <point x="384.0" y="743.0"/>
      <point x="384" y="551" type="curve" smooth="yes"/>
    </contour>
    <contour>
      <point x="1320" y="877" type="curve" smooth="yes"/>
      <point x="1212.0" y="877.0"/>
      <point x="1148.6666666666665" y="786.6666666666667"/>
      <point x="1134" y="652" type="curve"/>
      <point x="1136" y="647" type="line"/>
      <point x="1495" y="647" type="line"/>
      <point x="1495" y="673" type="line" smooth="yes"/>
      <point x="1495.0" y="797.0"/>
      <point x="1437.3333333333335" y="877.0"/>
    </contour>
  </outline>
</glyph>
<glyph name="longs" format="1">
  <advance width="753"/>
  <unicode hex="017F"/>
  <outline>
    <contour>
      <point x="44" y="175" type="line"/>
      <point x="184" y="205" type="line"/>
      <point x="184" y="1202" type="line" smooth="yes"/>
      <point x="184.0" y="1444.6666666666665"/>
      <point x="330.66666666666674" y="1581.0"/>
      <point x="584" y="1581" type="curve" smooth="yes"/>
      <point x="633.3333333333333" y="1581.0"/>
      <point x="682.6666666666667" y="1573.3333333333335"/>
      <point x="744" y="1560" type="curve"/>
      <point x="720" y="1345" type="line"/>
      <point x="682.6666666666667" y="1351.6666666666665"/>
      <point x="660.3333333333333" y="1356.0"/>
      <point x="623" y="1356" type="curve" smooth="yes"/>
      <point x="528.3333333333333" y="1356.0"/>
      <point x="476.0" y="1299.3333333333335"/>
      <point x="476" y="1202" type="curve" smooth="yes"/>
      <point x="476" y="205" type="line"/>
      <point x="631" y="175" type="line"/>
      <point x="631" y="0" type="line"/>
      <point x="44" y="0" type="line"/>
    </contour>
  </outline>
</glyph>
<glyph name="florin" format="1">
  <advance width="797"/>
  <unicode hex="0192"/>
  <outline>
    <contour>
      <point x="714" y="877" type="line"/>
      <point x="507" y="877" type="line"/>
      <point x="506" y="-40" type="line"/>
      <point x="506.0" y="-293.3333333333333"/>
      <point x="364.0" y="-437.0"/>
      <point x="124" y="-437" type="curve" smooth="yes"/>
      <point x="70.66666666666669" y="-437.0"/>
      <point x="29.0" y="-432.0"/>
      <point x="-19" y="-420" type="curve"/>
      <point x="-4" y="-199" type="line"/>
      <point x="24.0" y="-207.0"/>
      <point x="58.0" y="-212.0"/>
      <point x="94" y="-212" type="curve" smooth="yes"/>
      <point x="170.0" y="-212.0"/>
      <point x="214.0" y="-149.33333333333331"/>
      <point x="214" y="-40" type="curve" smooth="yes"/>
      <point x="214" y="877" type="line"/>
      <point x="54" y="877" type="line"/>
      <point x="54" y="1082" type="line"/>
      <point x="214" y="1082" type="line"/>
      <point x="214" y="1202" type="line" smooth="yes"/>
      <point x="214.0" y="1444.6666666666665"/>
      <point x="360.33333333333337" y="1581.0"/>
      <point x="615" y="1581" type="curve" smooth="yes"/>
      <point x="664.3333333333333" y="1581.0"/>
      <point x="711.0" y="1573.3333333333335"/>
      <point x="775" y="1560" type="curve"/>
      <point x="750" y="1343" type="line"/>
      <point x="719.3333333333333" y="1348.3333333333335"/>
      <point x="689.6666666666667" y="1353.0"/>
      <point x="651" y="1353" type="curve" smooth="yes"/>
      <point x="556.3333333333333" y="1353.0"/>
      <point x="507.0" y="1299.3333333333335"/>
      <point x="507" y="1202" type="curve" smooth="yes"/>
      <point x="507" y="1082" type="line"/>
      <point x="714" y="1082" type="line"/>
    </contour>
  </outline>
</glyph>
<glyph name="Uhorn" format="1">
  <advance width="1774"/>
  <unicode hex="01AF"/>
  <outline>
    <contour>
      <point x="1357" y="1178" type="line"/>
      <point x="1363" y="1177" type="line"/>
      <point x="1533.6666666666665" y="1179.6666666666665"/>
      <point x="1570.0" y="1273.3333333333335"/>
      <point x="1570" y="1492" type="curve"/>
      <point x="1759" y="1492" type="line"/>
      <point x="1761" y="1487" type="line"/>
      <point x="1765.0" y="1181.6666666666665"/>
      <point x="1654.3333333333335" y="1022.6666666666667"/>
      <point x="1357" y="1012" type="curve"/>
      <point x="1357" y="490" type="line" smooth="yes"/>
      <point x="1357.0" y="163.33333333333337"/>
      <point x="1120.3333333333333" y="-21.0"/>
      <point x="771" y="-21" type="curve" smooth="yes"/>
      <point x="423.0" y="-21.0"/>
      <point x="189.0" y="163.33333333333337"/>
      <point x="189" y="490" type="curve" smooth="yes"/>
      <point x="189" y="1250" type="line"/>
      <point x="34" y="1280" type="line"/>
      <point x="34" y="1456" type="line"/>
      <point x="637" y="1456" type="line"/>
      <point x="637" y="1280" type="line"/>
      <point x="482" y="1250" type="line"/>
      <point x="482" y="490" type="line" smooth="yes"/>
      <point x="482.0" y="297.99999999999994"/>
      <point x="591.0" y="203.0"/>
      <point x="771" y="203" type="curve" smooth="yes"/>
      <point x="953.6666666666667" y="203.0"/>
      <point x="1064.0" y="296.66666666666674"/>
      <point x="1064" y="490" type="curve" smooth="yes"/>
      <point x="1064" y="1250" type="line"/>
      <point x="909" y="1280" type="line"/>
      <point x="909" y="1456" type="line"/>
      <point x="1357" y="1456" type="line"/>
    </contour>
  </outline>
</glyph>
<glyph name="uhorn" format="1">
  <advance width="1373"/>
  <unicode hex="01B0"/>
  <outline>
    <contour>
      <point x="1107.0" y="1082.0" type="line"/>
      <point x="1107.0" y="958.0" type="line"/>
      <point x="1113.0" y="957.0" type="line"/>
      <point x="1200.0" y="972.0"/>
      <point x="1220.0" y="1035.0"/>
      <point x="1220.0" y="1176.0" type="curve"/>
      <point x="1391.0" y="1176.0" type="line"/>
      <point x="1391.0" y="1173.0"/>
      <point x="1391.0" y="1171.0"/>
      <point x="1391.0" y="1168.0" type="curve" smooth="yes"/>
      <point x="1389.0" y="951.0"/>
      <point x="1310.0" y="837.0"/>
      <point x="1107.0" y="809.0" type="curve"/>
      <point x="1107.0" y="205.0" type="line"/>
      <point x="1238.0" y="175.0" type="line"/>
      <point x="1238.0" y="0.0" type="line"/>
      <point x="851.0" y="0.0" type="line"/>
      <point x="832.0" y="137.0" type="line"/>
      <point x="763.0" y="36.0"/>
      <point x="660.0" y="-21.0"/>
      <point x="529.0" y="-21.0" type="curve" smooth="yes"/>
      <point x="301.0" y="-21.0"/>
      <point x="164.0" y="121.0"/>
      <point x="164.0" y="429.0" type="curve" smooth="yes"/>
      <point x="164.0" y="876.0" type="line"/>
      <point x="45.0" y="906.0" type="line"/>
      <point x="45.0" y="1082.0" type="line"/>
      <point x="456.0" y="1082.0" type="line"/>
      <point x="456.0" y="427.0" type="line" smooth="yes"/>
      <point x="456.0" y="270.0"/>
      <point x="509.0" y="206.0"/>
      <point x="613.0" y="206.0" type="curve" smooth="yes"/>
      <point x="705.0" y="206.0"/>
      <point x="772.0" y="237.0"/>
      <point x="815.0" y="293.0" type="curve"/>
      <point x="815.0" y="876.0" type="line"/>
      <point x="687.0" y="906.0" type="line"/>
      <point x="687.0" y="1082.0" type="line"/>
    </contour>
  </outline>
</glyph>
<glyph name="jdotless" format="1">
  <advance width="621"/>
  <unicode hex="0237"/>
  <outline>
    <contour>
      <point x="506" y="-40" type="line" smooth="yes"/>
      <point x="506.0" y="-294.66666666666663"/>
      <point x="365.0" y="-437.0"/>
      <point x="125" y="-437" type="curve" smooth="yes"/>
      <point x="70.33333333333334" y="-437.0"/>
      <point x="29.0" y="-432.0"/>
      <point x="-19" y="-420" type="curve"/>
      <point x="-4" y="-199" type="line"/>
      <point x="24.0" y="-207.0"/>
      <point x="58.0" y="-212.0"/>
      <point x="94" y="-212" type="curve" smooth="yes"/>
      <point x="170.0" y="-212.0"/>
      <point x="215.0" y="-149.33333333333331"/>
      <point x="215" y="-40" type="curve" smooth="yes"/>
      <point x="215" y="876" type="line"/>
      <point x="59" y="906" type="line"/>
      <point x="59" y="1082" type="line"/>
      <point x="506" y="1082" type="line"/>
    </contour>
  </outline>
</glyph>
<glyph name="schwa" format="1">
  <advance width="1119"/>
  <unicode hex="0259"/>
  <outline>
    <contour>
      <point x="527" y="1104" type="curve" smooth="yes"/>
      <point x="839.0000000000001" y="1104.0"/>
      <point x="1041.0" y="879.9999999999999"/>
      <point x="1041" y="572" type="curve" smooth="yes"/>
      <point x="1041" y="532" type="line" smooth="yes"/>
      <point x="1041.0" y="208.0"/>
      <point x="850.0" y="-20.333333333333336"/>
      <point x="554" y="-19" type="curve" smooth="yes"/>
      <point x="259.33333333333337" y="-19.0"/>
      <point x="92.0" y="169.0"/>
      <point x="92" y="469" type="curve" smooth="yes"/>
      <point x="92" y="628" type="line"/>
      <point x="738" y="628" type="line"/>
      <point x="740" y="634" type="line"/>
      <point x="729.3333333333333" y="775.3333333333333"/>
      <point x="641.3333333333333" y="879.0"/>
      <point x="496" y="879" type="curve" smooth="yes"/>
      <point x="365.33333333333337" y="879.0"/>
      <point x="294.66666666666663" y="852.6666666666667"/>
      <point x="196" y="798" type="curve"/>
      <point x="116" y="978" type="line"/>
      <point x="204.0" y="1048.6666666666667"/>
      <point x="352.33333333333337" y="1104.0"/>
    </contour>
    <contour>
      <point x="554" y="205" type="curve" smooth="yes"/>
      <point x="660.6666666666667" y="205.0"/>
      <point x="723.0" y="294.0"/>
      <point x="739" y="430" type="curve"/>
      <point x="736" y="435" type="line"/>
      <point x="379" y="435" type="line"/>
      <point x="379" y="409" type="line" smooth="yes"/>
      <point x="379.0" y="283.66666666666663"/>
      <point x="435.33333333333337" y="205.0"/>
    </contour>
  </outline>
</glyph>
<glyph name="circumflex" format="1">
  <advance width="890"/>
  <unicode hex="02C6"/>
  <outline>
    <contour>
      <point x="828" y="1275" type="line"/>
      <point x="828" y="1252" type="line"/>
      <point x="611" y="1252" type="line"/>
      <point x="456" y="1398" type="line"/>
      <point x="302" y="1252" type="line"/>
      <point x="90" y="1252" type="line"/>
      <point x="90" y="1278" type="line"/>
      <point x="372" y="1518" type="line"/>
      <point x="541" y="1518" type="line"/>
    </contour>
  </outline>
</glyph>
<glyph name="breve" format="1">
  <advance width="873"/>
  <unicode hex="02D8"/>
  <outline>
    <contour>
      <point x="785" y="1456" type="line"/>
      <point x="787" y="1450" type="line"/>
      <point x="793.6666666666667" y="1280.6666666666665"/>
      <point x="657.6666666666667" y="1162.0"/>
      <point x="447" y="1162" type="curve" smooth="yes"/>
      <point x="235.00000000000006" y="1162.0"/>
      <point x="98.0" y="1280.6666666666665"/>
      <point x="106" y="1450" type="curve"/>
      <point x="108" y="1456" type="line"/>
      <point x="306" y="1456" type="line"/>
      <point x="306.0" y="1378.6666666666665"/>
      <point x="349.66666666666663" y="1322.0"/>
      <point x="447" y="1322" type="curve" smooth="yes"/>
      <point x="541.6666666666666" y="1322.0"/>
      <point x="586.0" y="1377.3333333333335"/>
      <point x="586" y="1456" type="curve"/>
    </contour>
  </outline>
</glyph>
<glyph name="ring" format="1">
  <advance width="654"/>
  <unicode hex="02DA"/>
  <outline>
    <contour>
      <point x="114" y="1298" type="curve" smooth="yes"/>
      <point x="114.0" y="1408.6666666666665"/>
      <point x="207.0" y="1494.0"/>
      <point x="327" y="1494" type="curve" smooth="yes"/>
      <point x="444.3333333333334" y="1494.0"/>
      <point x="536.0" y="1408.6666666666665"/>
      <point x="536" y="1298" type="curve" smooth="yes"/>
      <point x="536.0" y="1186.0"/>
      <point x="444.3333333333334" y="1106.0"/>
      <point x="327" y="1106" type="curve" smooth="yes"/>
      <point x="205.66666666666663" y="1106.0"/>
      <point x="114.0" y="1186.0"/>
    </contour>
    <contour>
      <point x="229" y="1298" type="curve" smooth="yes"/>
      <point x="229.0" y="1240.6666666666665"/>
      <point x="271.0" y="1200.0"/>
      <point x="327" y="1200" type="curve" smooth="yes"/>
      <point x="381.66666666666663" y="1200.0"/>
      <point x="420.0" y="1240.6666666666665"/>
      <point x="420" y="1298" type="curve" smooth="yes"/>
      <point x="420.0" y="1356.6666666666665"/>
      <point x="381.66666666666663" y="1398.0"/>
      <point x="327" y="1398" type="curve" smooth="yes"/>
      <point x="271.0" y="1398.0"/>
      <point x="229.0" y="1355.3333333333335"/>
    </contour>
  </outline>
</glyph>
<glyph name="ogonek" format="1">
  <advance width="467"/>
  <unicode hex="02DB"/>
  <outline>
    <contour>
      <point x="362" y="0" type="line"/>
      <point x="291.33333333333337" y="-70.66666666666666"/>
      <point x="259.0" y="-110.66666666666669"/>
      <point x="259" y="-176" type="curve" smooth="yes"/>
      <point x="259.0" y="-212.0"/>
      <point x="274.66666666666663" y="-246.0"/>
      <point x="344" y="-246" type="curve" smooth="yes"/>
      <point x="381.33333333333337" y="-246.0"/>
      <point x="407.33333333333337" y="-236.66666666666669"/>
      <point x="438" y="-226" type="curve"/>
      <point x="473" y="-380" type="line"/>
      <point x="425.0" y="-405.33333333333337"/>
      <point x="369.33333333333337" y="-424.0"/>
      <point x="288" y="-424" type="curve" smooth="yes"/>
      <point x="142.66666666666666" y="-424.0"/>
      <point x="40.0" y="-344.66666666666663"/>
      <point x="40" y="-210" type="curve" smooth="yes"/>
      <point x="40.0" y="-107.33333333333337"/>
      <point x="99.33333333333337" y="-12.0"/>
      <point x="230" y="60" type="curve"/>
    </contour>
  </outline>
</glyph>
<glyph name="tilde" format="1">
  <advance width="950"/>
  <unicode hex="02DC"/>
  <outline>
    <contour>
      <point x="857" y="1484" type="line"/>
      <point x="857.0" y="1356.0"/>
      <point x="768.3333333333333" y="1253.0"/>
      <point x="647" y="1253" type="curve" smooth="yes"/>
      <point x="553.6666666666667" y="1253.0"/>
      <point x="417.33333333333337" y="1340.0"/>
      <point x="348" y="1340" type="curve" smooth="yes"/>
      <point x="300.0" y="1340.0"/>
      <point x="263.0" y="1290.0"/>
      <point x="263" y="1230" type="curve"/>
      <point x="108" y="1272" type="line"/>
      <point x="108.0" y="1397.3333333333335"/>
      <point x="197.0" y="1505.0"/>
      <point x="317" y="1505" type="curve" smooth="yes"/>
      <point x="391.66666666666663" y="1505.0"/>
      <point x="546.6666666666667" y="1418.0"/>
      <point x="616" y="1418" type="curve" smooth="yes"/>
      <point x="662.6666666666667" y="1418.0"/>
      <point x="702.0" y="1466.3333333333335"/>
      <point x="702" y="1529" type="curve"/>
    </contour>
  </outline>
</glyph>
<glyph name="hungarumlaut" format="1">
  <advance width="971"/>
  <unicode hex="02DD"/>
  <outline>
    <contour>
      <point x="677" y="1518" type="line"/>
      <point x="940" y="1518" type="line"/>
      <point x="942" y="1512" type="line"/>
      <point x="657" y="1252" type="line"/>
      <point x="439" y="1252" type="line"/>
      <point x="437" y="1257" type="line"/>
    </contour>
    <contour>
      <point x="289.0" y="1518.0" type="line"/>
      <point x="549.0" y="1518.0" type="line"/>
      <point x="551.0" y="1513.0" type="line"/>
      <point x="311.0" y="1252.0" type="line"/>
      <point x="97.0" y="1252.0" type="line"/>
      <point x="90.0" y="1252.0" type="line"/>
    </contour>
  </outline>
</glyph>
<glyph name="acutecomb" format="1">
  <advance width="521"/>
  <unicode hex="0301"/>
  <outline>
    <contour>
      <point x="228" y="1516" type="line"/>
      <point x="458" y="1516" type="line"/>
      <point x="267" y="1202" type="line"/>
      <point x="93" y="1202" type="line"/>
    </contour>
  </outline>
</glyph>
<glyph name="hookabovecomb" format="1">
  <advance width="612"/>
  <unicode hex="0309"/>
  <outline>
    <contour>
      <point x="147" y="1264" type="line"/>
      <point x="132" y="1401" type="line"/>
      <point x="229.33333333333326" y="1405.0"/>
      <point x="269.0" y="1423.0"/>
      <point x="269" y="1467" type="curve" smooth="yes"/>
      <point x="269.0" y="1516.3333333333335"/>
      <point x="214.99999999999994" y="1536.0"/>
      <point x="127" y="1536" type="curve"/>
      <point x="134" y="1669" type="line"/>
      <point x="380.66666666666663" y="1669.0"/>
      <point x="516.0" y="1595.3333333333335"/>
      <point x="516" y="1474" type="curve" smooth="yes"/>
      <point x="516.0" y="1388.6666666666665"/>
      <point x="450.0" y="1341.0"/>
      <point x="366" y="1329" type="curve"/>
      <point x="365" y="1264" type="line"/>
    </contour>
  </outline>
</glyph>
<glyph name="tonos" format="1">
  <advance width="514"/>
  <unicode hex="0384"/>
  <outline>
    <contour>
      <point x="205" y="1634" type="line"/>
      <point x="483" y="1634" type="line"/>
      <point x="273" y="1270" type="line"/>
      <point x="129" y="1270" type="line"/>
    </contour>
  </outline>
</glyph>
<glyph name="Gamma" format="1">
  <advance width="1223"/>
  <unicode hex="0393"/>
  <outline>
    <contour>
      <point x="65" y="175" type="line"/>
      <point x="220" y="205" type="line"/>
      <point x="220" y="1250" type="line"/>
      <point x="65" y="1280" type="line"/>
      <point x="65" y="1456" type="line"/>
      <point x="1169" y="1456" type="line"/>
      <point x="1169" y="1087" type="line"/>
      <point x="945" y="1087" type="line"/>
      <point x="933" y="1231" type="line"/>
      <point x="512" y="1231" type="line"/>
      <point x="512" y="205" type="line"/>
      <point x="668" y="175" type="line"/>
      <point x="668" y="0" type="line"/>
      <point x="65" y="0" type="line"/>
    </contour>
  </outline>
</glyph>
<glyph name="Theta" format="1">
  <advance width="1400"/>
  <unicode hex="0398"/>
  <outline>
    <contour>
      <point x="914" y="613" type="line"/>
      <point x="534" y="613" type="line"/>
      <point x="534" y="837" type="line"/>
      <point x="914" y="837" type="line"/>
    </contour>
    <contour>
      <point x="1384" y="717" type="line" smooth="yes"/>
      <point x="1384.0" y="290.33333333333337"/>
      <point x="1116.6666666666665" y="-21.0"/>
      <point x="722" y="-21" type="curve" smooth="yes"/>
      <point x="328.66666666666674" y="-21.0"/>
      <point x="64.0" y="290.33333333333337"/>
      <point x="64" y="717" type="curve" smooth="yes"/>
      <point x="64" y="739" type="line" smooth="yes"/>
      <point x="64.0" y="1163.0"/>
      <point x="327.66666666666674" y="1477.0"/>
      <point x="721" y="1477" type="curve" smooth="yes"/>
      <point x="1115.6666666666665" y="1477.0"/>
      <point x="1384.0" y="1163.0"/>
      <point x="1384" y="739" type="curve" smooth="yes"/>
    </contour>
    <contour>
      <point x="1093" y="741" type="line" smooth="yes"/>
      <point x="1093.0" y="1042.3333333333333"/>
      <point x="966.3333333333333" y="1249.0"/>
      <point x="721" y="1249" type="curve" smooth="yes"/>
      <point x="475.6666666666666" y="1249.0"/>
      <point x="356.0" y="1045.0"/>
      <point x="356" y="741" type="curve" smooth="yes"/>
      <point x="356" y="717" type="line" smooth="yes"/>
      <point x="356.0" y="410.3333333333335"/>
      <point x="478.0" y="206.0"/>
      <point x="722" y="206" type="curve" smooth="yes"/>
      <point x="968.6666666666667" y="206.0"/>
      <point x="1093.0" y="410.3333333333334"/>
      <point x="1093" y="717" type="curve" smooth="yes"/>
    </contour>
  </outline>
</glyph>
<glyph name="Pi" format="1">
  <advance width="1602"/>
  <unicode hex="03A0"/>
  <outline>
    <contour>
      <point x="65" y="175" type="line"/>
      <point x="220" y="205" type="line"/>
      <point x="220" y="1250" type="line"/>
      <point x="65" y="1280" type="line"/>
      <point x="65" y="1456" type="line"/>
      <point x="1553" y="1456" type="line"/>
      <point x="1553" y="1280" type="line"/>
      <point x="1398" y="1250" type="line"/>
      <point x="1398" y="205" type="line"/>
      <point x="1553" y="175" type="line"/>
      <point x="1553" y="0" type="line"/>
      <point x="951" y="0" type="line"/>
      <point x="951" y="175" type="line"/>
      <point x="1106" y="205" type="line"/>
      <point x="1106" y="1231" type="line"/>
      <point x="512" y="1231" type="line"/>
      <point x="512" y="205" type="line"/>
      <point x="668" y="175" type="line"/>
      <point x="668" y="0" type="line"/>
      <point x="65" y="0" type="line"/>
    </contour>
  </outline>
</glyph>
<glyph name="Psi" format="1">
  <advance width="1733"/>
  <unicode hex="03A8"/>
  <outline>
    <contour>
      <point x="1168" y="1280" type="line"/>
      <point x="1028" y="1250" type="line"/>
      <point x="1028" y="621" type="line"/>
      <point x="1034" y="620" type="line"/>
      <point x="1187.3333333333335" y="640.0"/>
      <point x="1269.0" y="763.0"/>
      <point x="1269" y="979" type="curve" smooth="yes"/>
      <point x="1269" y="1456" type="line"/>
      <point x="1702" y="1456" type="line"/>
      <point x="1702" y="1280" type="line"/>
      <point x="1561" y="1250" type="line"/>
      <point x="1561" y="979" type="line" smooth="yes"/>
      <point x="1561.0" y="632.3333333333335"/>
      <point x="1356.0" y="417.66666666666663"/>
      <point x="1028" y="383" type="curve"/>
      <point x="1028" y="205" type="line"/>
      <point x="1183" y="175" type="line"/>
      <point x="1183" y="0" type="line"/>
      <point x="581" y="0" type="line"/>
      <point x="581" y="175" type="line"/>
      <point x="736" y="205" type="line"/>
      <point x="736" y="382" type="line"/>
      <point x="402.66666666666674" y="411.33333333333337"/>
      <point x="195.0" y="627.0"/>
      <point x="195" y="979" type="curve" smooth="yes"/>
      <point x="195" y="1250" type="line"/>
      <point x="55" y="1280" type="line"/>
      <point x="55" y="1456" type="line"/>
      <point x="486" y="1456" type="line"/>
      <point x="486" y="979" type="line" smooth="yes"/>
      <point x="486.0" y="768.3333333333333"/>
      <point x="575.3333333333333" y="644.0"/>
      <point x="730" y="620" type="curve"/>
      <point x="736" y="622" type="line"/>
      <point x="736" y="1250" type="line"/>
      <point x="596" y="1280" type="line"/>
      <point x="596" y="1456" type="line"/>
      <point x="1168" y="1456" type="line"/>
    </contour>
  </outline>
</glyph>
<glyph name="gamma" format="1">
  <advance width="1113"/>
  <unicode hex="03B3"/>
  <outline>
    <contour>
      <point x="1096" y="906" type="line"/>
      <point x="1005" y="892" type="line"/>
      <point x="708" y="14" type="line"/>
      <point x="708" y="-417" type="line"/>
      <point x="416" y="-417" type="line"/>
      <point x="416" y="56" type="line"/>
      <point x="182" y="786" type="line" smooth="yes"/>
      <point x="166.0" y="839.3333333333333"/>
      <point x="140.33333333333331" y="856.0"/>
      <point x="87" y="856" type="curve" smooth="yes"/>
      <point x="75.0" y="856.0"/>
      <point x="53.0" y="853.3333333333333"/>
      <point x="49" y="852" type="curve"/>
      <point x="26" y="1073" type="line"/>
      <point x="59.33333333333333" y="1083.6666666666665"/>
      <point x="130.0" y="1093.0"/>
      <point x="178" y="1093" type="curve" smooth="yes"/>
      <point x="318.0" y="1093.0"/>
      <point x="356.66666666666663" y="1061.0"/>
      <point x="398" y="933" type="curve" smooth="yes"/>
      <point x="559" y="403" type="line"/>
      <point x="569" y="342" type="line"/>
      <point x="575" y="342" type="line"/>
      <point x="588" y="403" type="line"/>
      <point x="714" y="885" type="line"/>
      <point x="605" y="906" type="line"/>
      <point x="605" y="1082" type="line"/>
      <point x="1096" y="1082" type="line"/>
    </contour>
  </outline>
</glyph>
<glyph name="zeta" format="1">
  <advance width="1025"/>
  <unicode hex="03B6"/>
  <outline>
    <contour>
      <point x="968" y="1456" type="line"/>
      <point x="968" y="1295" type="line"/>
      <point x="608" y="868" type="line" smooth="yes"/>
      <point x="462.66666666666674" y="696.0"/>
      <point x="407.0" y="590.0"/>
      <point x="407" y="422" type="curve" smooth="yes"/>
      <point x="407.0" y="303.33333333333337"/>
      <point x="454.66666666666663" y="255.33333333333331"/>
      <point x="568" y="226" type="curve" smooth="yes"/>
      <point x="646" y="202" type="line" smooth="yes"/>
      <point x="854.0" y="140.66666666666669"/>
      <point x="938.3333333333333" y="95.33333333333331"/>
      <point x="937" y="-54" type="curve"/>
      <point x="937.0" y="-160.66666666666666"/>
      <point x="821.3333333333333" y="-309.33333333333337"/>
      <point x="704" y="-388" type="curve"/>
      <point x="556" y="-279" type="line"/>
      <point x="617.3333333333333" y="-213.66666666666669"/>
      <point x="648.0" y="-152.66666666666669"/>
      <point x="648" y="-110" type="curve" smooth="yes"/>
      <point x="649.3333333333333" y="-63.33333333333334"/>
      <point x="618.6666666666667" y="-32.33333333333333"/>
      <point x="536" y="-11" type="curve" smooth="yes"/>
      <point x="462" y="8" type="line" smooth="yes"/>
      <point x="220.66666666666674" y="70.66666666666666"/>
      <point x="117.0" y="182.0"/>
      <point x="117" y="382" type="curve" smooth="yes"/>
      <point x="117.0" y="586.0"/>
      <point x="202.66666666666674" y="758.3333333333333"/>
      <point x="388" y="985" type="curve" smooth="yes"/>
      <point x="593" y="1227" type="line"/>
      <point x="591" y="1232" type="line"/>
      <point x="75" y="1232" type="line"/>
      <point x="75" y="1456" type="line"/>
    </contour>
  </outline>
</glyph>
<glyph name="theta" format="1">
  <advance width="1184"/>
  <unicode hex="03B8"/>
  <outline>
    <contour>
      <point x="1099" y="567" type="line" smooth="yes"/>
      <point x="1099.0" y="181.66666666666663"/>
      <point x="909.3333333333333" y="-21.0"/>
      <point x="608" y="-21" type="curve" smooth="yes"/>
      <point x="303.99999999999994" y="-21.0"/>
      <point x="114.0" y="181.66666666666686"/>
      <point x="114" y="567" type="curve" smooth="yes"/>
      <point x="114" y="888" type="line" smooth="yes"/>
      <point x="114.0" y="1272.0"/>
      <point x="303.33333333333337" y="1477.0"/>
      <point x="606" y="1477" type="curve" smooth="yes"/>
      <point x="907.3333333333333" y="1477.0"/>
      <point x="1099.0" y="1272.0"/>
      <point x="1099" y="888" type="curve" smooth="yes"/>
    </contour>
    <contour>
      <point x="808" y="623" type="line"/>
      <point x="405" y="623" type="line"/>
      <point x="405" y="539" type="line" smooth="yes"/>
      <point x="405.0" y="304.33333333333337"/>
      <point x="474.66666666666674" y="203.0"/>
      <point x="608" y="203" type="curve" smooth="yes"/>
      <point x="738.6666666666667" y="203.0"/>
      <point x="808.0" y="304.33333333333337"/>
      <point x="808" y="539" type="curve" smooth="yes"/>
    </contour>
    <contour>
      <point x="405" y="840" type="line"/>
      <point x="808" y="840" type="line"/>
      <point x="808" y="918" type="line" smooth="yes"/>
      <point x="808.0" y="1148.6666666666665"/>
      <point x="736.6666666666667" y="1252.0"/>
      <point x="606" y="1252" type="curve" smooth="yes"/>
      <point x="474.0" y="1252.0"/>
      <point x="405.0" y="1150.0"/>
      <point x="405" y="918" type="curve" smooth="yes"/>
    </contour>
  </outline>
</glyph>
<glyph name="pi" format="1">
  <advance width="1305"/>
  <unicode hex="03C0"/>
  <outline>
    <contour>
      <point x="1203" y="1082" type="line"/>
      <point x="1203" y="868" type="line"/>
      <point x="1066" y="868" type="line"/>
      <point x="1066" y="322" type="line" smooth="yes"/>
      <point x="1066.0" y="235.33333333333337"/>
      <point x="1094.3333333333335" y="207.0"/>
      <point x="1157" y="207" type="curve" smooth="yes"/>
      <point x="1195.6666666666665" y="207.0"/>
      <point x="1208.6666666666665" y="210.33333333333331"/>
      <point x="1254" y="225" type="curve"/>
      <point x="1284" y="15" type="line"/>
      <point x="1221.3333333333335" y="-11.666666666666664"/>
      <point x="1171.3333333333335" y="-20.0"/>
      <point x="1098" y="-20" type="curve" smooth="yes"/>
      <point x="888.6666666666667" y="-20.0"/>
      <point x="774.0" y="92.66666666666669"/>
      <point x="774" y="326" type="curve" smooth="yes"/>
      <point x="774" y="868" type="line"/>
      <point x="501" y="868" type="line"/>
      <point x="501" y="0" type="line"/>
      <point x="209" y="0" type="line"/>
      <point x="209" y="868" type="line"/>
      <point x="58" y="868" type="line"/>
      <point x="58" y="1082" type="line"/>
    </contour>
  </outline>
</glyph>
<glyph name="rho" format="1">
  <advance width="1176"/>
  <unicode hex="03C1"/>
  <outline>
    <contour>
      <point x="1092" y="511" type="line" smooth="yes"/>
      <point x="1092.0" y="190.9999999999999"/>
      <point x="938.3333333333331" y="-21.0"/>
      <point x="673" y="-21" type="curve" smooth="yes"/>
      <point x="559.6666666666666" y="-21.0"/>
      <point x="473.0" y="20.6666666666667"/>
      <point x="409" y="98" type="curve"/>
      <point x="409" y="-416" type="line"/>
      <point x="117" y="-416" type="line"/>
      <point x="117" y="577" type="line" smooth="yes"/>
      <point x="117.0" y="890.3333333333333"/>
      <point x="308.00000000000006" y="1102.0"/>
      <point x="612" y="1102" type="curve" smooth="yes"/>
      <point x="917.3333333333335" y="1102.0"/>
      <point x="1092.0" y="874.6666666666663"/>
      <point x="1092" y="532" type="curve" smooth="yes"/>
    </contour>
    <contour>
      <point x="800" y="532" type="line" smooth="yes"/>
      <point x="800.0" y="737.3333333333333"/>
      <point x="737.0" y="877.0"/>
      <point x="597" y="877" type="curve" smooth="yes"/>
      <point x="470.33333333333326" y="877.0"/>
      <point x="409" y="742"/>
      <point x="409" y="553" type="curve"/>
      <point x="409" y="297" type="line"/>
      <point x="445.0" y="235.66666666666669"/>
      <point x="505.33333333333314" y="203.0"/>
      <point x="596" y="203" type="curve" smooth="yes"/>
      <point x="738.6666666666667" y="203.0"/>
      <point x="800.0" y="321.66666666666674"/>
      <point x="800" y="511" type="curve" smooth="yes"/>
    </contour>
  </outline>
</glyph>
<glyph name="tau" format="1">
  <advance width="987"/>
  <unicode hex="03C4"/>
  <outline>
    <contour>
      <point x="934" y="1082" type="line"/>
      <point x="934" y="859" type="line"/>
      <point x="625" y="859" type="line"/>
      <point x="625" y="321" type="line" smooth="yes"/>
      <point x="625.0" y="234.33333333333337"/>
      <point x="653.3333333333333" y="206.0"/>
      <point x="716" y="206" type="curve" smooth="yes"/>
      <point x="754.6666666666667" y="206.0"/>
      <point x="767.6666666666667" y="209.33333333333331"/>
      <point x="813" y="224" type="curve"/>
      <point x="843" y="14" type="line"/>
      <point x="780.3333333333333" y="-12.666666666666664"/>
      <point x="730.3333333333333" y="-21.0"/>
      <point x="657" y="-21" type="curve" smooth="yes"/>
      <point x="447.66666666666674" y="-21.0"/>
      <point x="333.0" y="91.66666666666669"/>
      <point x="333" y="325" type="curve" smooth="yes"/>
      <point x="333" y="859" type="line"/>
      <point x="37" y="859" type="line"/>
      <point x="38" y="1082" type="line"/>
    </contour>
  </outline>
</glyph>
<glyph name="upsilon" format="1">
  <advance width="1206"/>
  <unicode hex="03C5"/>
  <outline>
    <contour>
      <point x="478" y="417" type="line"/>
      <point x="478.0" y="266.3333333333335"/>
      <point x="527.0" y="203.0"/>
      <point x="603" y="203" type="curve" smooth="yes"/>
      <point x="736.3333333333333" y="203.0"/>
      <point x="824.0" y="375.33333333333337"/>
      <point x="824" y="566" type="curve" smooth="yes"/>
      <point x="820.0" y="735.3333333333333"/>
      <point x="783.3333333333333" y="907.3333333333333"/>
      <point x="722" y="1082" type="curve"/>
      <point x="1000" y="1082" type="line"/>
      <point x="1068.0" y="943.3333333333333"/>
      <point x="1115.0" y="770.0"/>
      <point x="1115" y="566" type="curve" smooth="yes"/>
      <point x="1115.0" y="218.00000000000006"/>
      <point x="947.6666666666665" y="-21.0"/>
      <point x="613" y="-21" type="curve" smooth="yes"/>
      <point x="345.0" y="-21.0"/>
      <point x="187.0" y="123.0"/>
      <point x="187" y="419" type="curve" smooth="yes"/>
      <point x="187" y="785" type="line" smooth="yes"/>
      <point x="187.0" y="845.0"/>
      <point x="164.0" y="866.0"/>
      <point x="116" y="866" type="curve" smooth="yes"/>
      <point x="90.66666666666666" y="866.0"/>
      <point x="80.0" y="863.0"/>
      <point x="48" y="855" type="curve"/>
      <point x="18" y="1053" type="line"/>
      <point x="68.66666666666666" y="1079.6666666666665"/>
      <point x="158.66666666666669" y="1101.0"/>
      <point x="240" y="1101" type="curve" smooth="yes"/>
      <point x="391.9999999999999" y="1101.0"/>
      <point x="479.0" y="1024.3333333333335"/>
      <point x="479" y="867" type="curve"/>
    </contour>
  </outline>
</glyph>
<glyph name="chi" format="1">
  <advance width="1191"/>
  <unicode hex="03C7"/>
  <outline>
    <contour>
      <point x="32" y="175" type="line"/>
      <point x="133" y="191" type="line"/>
      <point x="425" y="543" type="line"/>
      <point x="143" y="889" type="line"/>
      <point x="42" y="906" type="line"/>
      <point x="42" y="1082" type="line"/>
      <point x="332" y="1081" type="line"/>
      <point x="604" y="701" type="line"/>
      <point x="755" y="901" type="line"/>
      <point x="654" y="913" type="line"/>
      <point x="654" y="1082" type="line"/>
      <point x="1143" y="1082" type="line"/>
      <point x="1143" y="906" type="line"/>
      <point x="1045" y="889" type="line"/>
      <point x="767" y="548" type="line"/>
      <point x="1060" y="191" type="line"/>
      <point x="1162" y="175" type="line"/>
      <point x="1162" y="0" type="line"/>
      <point x="877" y="0" type="line"/>
      <point x="585" y="391" type="line"/>
      <point x="427" y="179" type="line"/>
      <point x="514" y="168" type="line"/>
      <point x="514" y="0" type="line"/>
      <point x="32" y="0" type="line"/>
    </contour>
  </outline>
</glyph>
<glyph name="omega" format="1">
  <advance width="1694"/>
  <unicode hex="03C9"/>
  <outline>
    <contour>
      <point x="529" y="1082" type="line"/>
      <point x="446.33333333333337" y="908.6666666666667"/>
      <point x="397.0" y="736.6666666666667"/>
      <point x="393" y="566" type="curve"/>
      <point x="393.0" y="355.33333333333337"/>
      <point x="438.33333333333337" y="203.0"/>
      <point x="549" y="203" type="curve" smooth="yes"/>
      <point x="643.6666666666667" y="203.0"/>
      <point x="708.0" y="290.00000000000006"/>
      <point x="708" y="490" type="curve" smooth="yes"/>
      <point x="708" y="836" type="line"/>
      <point x="1015" y="836" type="line"/>
      <point x="1015" y="490" type="line" smooth="yes"/>
      <point x="1015.0" y="290.00000000000006"/>
      <point x="1078.0" y="203.0"/>
      <point x="1174" y="203" type="curve" smooth="yes"/>
      <point x="1283.3333333333335" y="203.0"/>
      <point x="1330.0" y="355.33333333333337"/>
      <point x="1330" y="566" type="curve" smooth="yes"/>
      <point x="1324.6666666666665" y="736.6666666666667"/>
      <point x="1275.6666666666665" y="910.0"/>
      <point x="1193" y="1082" type="curve"/>
      <point x="1471" y="1082" type="line"/>
      <point x="1560.3333333333335" y="943.3333333333333"/>
      <point x="1621.0" y="770.0"/>
      <point x="1621" y="566" type="curve" smooth="yes"/>
      <point x="1621.0" y="207.33333333333337"/>
      <point x="1493.3333333333335" y="-21.0"/>
      <point x="1184" y="-21" type="curve" smooth="yes"/>
      <point x="1037.3333333333335" y="-21.0"/>
      <point x="923.6666666666667" y="51.66666666666677"/>
      <point x="861" y="189" type="curve"/>
      <point x="795.6666666666667" y="51.666666666666686"/>
      <point x="683.0" y="-21.0"/>
      <point x="539" y="-21" type="curve" smooth="yes"/>
      <point x="228.33333333333343" y="-21.0"/>
      <point x="101.0" y="208.66666666666669"/>
      <point x="101" y="566" type="curve" smooth="yes"/>
      <point x="101.0" y="770.0"/>
      <point x="160.33333333333337" y="943.3333333333333"/>
      <point x="251" y="1082" type="curve"/>
    </contour>
  </outline>
</glyph>
<glyph name="thetaSymbol" format="1">
  <advance width="1382"/>
  <unicode hex="03D1"/>
  <outline>
    <contour>
      <point x="706.0" y="213.0" type="curve" smooth="yes"/>
      <point x="872.0" y="213.0"/>
      <point x="975.0" y="332.0"/>
      <point x="984.0" y="533.0" type="curve" smooth="yes"/>
      <point x="984.0" y="537.0"/>
      <point x="984.0" y="541.0"/>
      <point x="984.0" y="545.0" type="curve"/>
      <point x="725.0" y="564.0"/>
      <point x="533.0" y="737.0"/>
      <point x="533.0" y="968.0" type="curve" smooth="yes"/>
      <point x="533.0" y="1071.0" type="line" smooth="yes"/>
      <point x="533.0" y="1318.0"/>
      <point x="691.0" y="1477.0"/>
      <point x="920.0" y="1477.0" type="curve" smooth="yes"/>
      <point x="1148.0" y="1477.0"/>
      <point x="1291.0" y="1323.0"/>
      <point x="1291.0" y="1071.0" type="curve" smooth="yes"/>
      <point x="1291.0" y="556.0" type="line" smooth="yes"/>
      <point x="1291.0" y="208.0"/>
      <point x="1057.0" y="-21.0"/>
      <point x="706.0" y="-21.0" type="curve" smooth="yes"/>
      <point x="351.0" y="-21.0"/>
      <point x="109.0" y="224.0"/>
      <point x="109.0" y="556.0" type="curve" smooth="yes"/>
      <point x="109.0" y="1252.0" type="line"/>
      <point x="417.0" y="1254.0" type="line"/>
      <point x="417.0" y="556.0" type="line" smooth="yes"/>
      <point x="417.0" y="353.0"/>
      <point x="527.0" y="213.0"/>
    </contour>
    <contour>
      <point x="810" y="966" type="line" smooth="yes"/>
      <point x="810.0" y="855.3333333333333"/>
      <point x="874.0" y="771.6666666666667"/>
      <point x="978" y="761" type="curve"/>
      <point x="984" y="763" type="line"/>
      <point x="984" y="1098" type="line" smooth="yes"/>
      <point x="984.0" y="1184.6666666666665"/>
      <point x="956.0" y="1229.0"/>
      <point x="904" y="1229" type="curve" smooth="yes"/>
      <point x="846.6666666666667" y="1229.0"/>
      <point x="810.0" y="1183.3333333333335"/>
      <point x="810" y="1098" type="curve" smooth="yes"/>
    </contour>
  </outline>
</glyph>
<glyph name="Lje-cy" format="1">
  <advance width="2171"/>
  <unicode hex="0409"/>
  <outline>
    <contour>
      <point x="1470" y="1456" type="line"/>
      <point x="1470" y="1280" type="line"/>
      <point x="1315" y="1250" type="line"/>
      <point x="1315" y="947" type="line"/>
      <point x="1565" y="947" type="line" smooth="yes"/>
      <point x="1898.3333333333333" y="947.0"/>
      <point x="2111.0" y="751.3333333333335"/>
      <point x="2111" y="474" type="curve" smooth="yes"/>
      <point x="2111.0" y="193.99999999999983"/>
      <point x="1898.3333333333333" y="0.0"/>
      <point x="1565" y="0" type="curve" smooth="yes"/>
      <point x="1023" y="0" type="line"/>
      <point x="1023" y="1231" type="line"/>
      <point x="637" y="1231" type="line"/>
      <point x="637" y="793" type="line" smooth="yes"/>
      <point x="637.0" y="231.66666666666674"/>
      <point x="458.33333333333326" y="0.0"/>
      <point x="89" y="0" type="curve" smooth="yes"/>
      <point x="46" y="0" type="line"/>
      <point x="46" y="224" type="line"/>
      <point x="86" y="224" type="line" smooth="yes"/>
      <point x="286.0" y="224.0"/>
      <point x="345.0" y="363.66666666666674"/>
      <point x="345" y="793" type="curve" smooth="yes"/>
      <point x="345" y="1250" type="line"/>
      <point x="189" y="1280" type="line"/>
      <point x="189" y="1456" type="line"/>
    </contour>
    <contour>
      <point x="1315" y="722" type="line"/>
      <point x="1315" y="224" type="line"/>
      <point x="1565" y="224" type="line" smooth="yes"/>
      <point x="1727.6666666666665" y="224.0"/>
      <point x="1820.0" y="334.66666666666674"/>
      <point x="1820" y="476" type="curve" smooth="yes"/>
      <point x="1820.0" y="612.0"/>
      <point x="1727.6666666666665" y="722.0"/>
      <point x="1565" y="722" type="curve" smooth="yes"/>
    </contour>
  </outline>
</glyph>
<glyph name="De-cy" format="1">
  <advance width="1575"/>
  <unicode hex="0414"/>
  <outline>
    <contour>
      <point x="1491" y="-358" type="line"/>
      <point x="1226" y="-358" type="line"/>
      <point x="1226" y="0" type="line"/>
      <point x="333" y="0" type="line"/>
      <point x="333" y="-358" type="line"/>
      <point x="64" y="-358" type="line"/>
      <point x="42" y="224" type="line"/>
      <point x="154" y="224" type="line"/>
      <point x="258.0" y="313.33333333333337"/>
      <point x="344.66666666666663" y="486.6666666666668"/>
      <point x="358" y="860" type="curve" smooth="yes"/>
      <point x="385" y="1252" type="line"/>
      <point x="243" y="1280" type="line"/>
      <point x="243" y="1456" type="line"/>
      <point x="1501" y="1456" type="line"/>
      <point x="1501" y="1280" type="line"/>
      <point x="1346" y="1250" type="line"/>
      <point x="1346" y="224" type="line"/>
      <point x="1518" y="224" type="line"/>
    </contour>
    <contour>
      <point x="651" y="860" type="line" smooth="yes"/>
      <point x="639.0" y="565.3333333333335"/>
      <point x="578.3333333333333" y="365.33333333333326"/>
      <point x="485" y="224" type="curve"/>
      <point x="1054" y="224" type="line"/>
      <point x="1054" y="1231" type="line"/>
      <point x="675" y="1231" type="line"/>
    </contour>
  </outline>
</glyph>
<glyph name="Zhe-cy" format="1">
  <advance width="2150"/>
  <unicode hex="0416"/>
  <outline>
    <contour>
      <point x="753.0" y="596.0" type="line"/>
      <point x="535.0" y="191.0" type="line"/>
      <point x="533.0" y="186.0" type="line"/>
      <point x="589.0" y="175.0" type="line"/>
      <point x="589.0" y="0.0" type="line"/>
      <point x="39.0" y="0.0" type="line"/>
      <point x="39.0" y="175.0" type="line"/>
      <point x="184.0" y="196.0" type="line"/>
      <point x="530.0" y="791.0" type="line"/>
      <point x="345.0" y="1089.0" type="line" smooth="yes"/>
      <point x="280.0" y="1184.0"/>
      <point x="240.0" y="1212.0"/>
      <point x="184.0" y="1212.0" type="curve" smooth="yes"/>
      <point x="155.0" y="1212.0"/>
      <point x="136.0" y="1207.0"/>
      <point x="109.0" y="1200.0" type="curve"/>
      <point x="66.0" y="1419.0" type="line"/>
      <point x="113.0" y="1450.0"/>
      <point x="174.0" y="1470.0"/>
      <point x="245.0" y="1470.0" type="curve" smooth="yes"/>
      <point x="389.0" y="1470.0"/>
      <point x="461.0" y="1415.0"/>
      <point x="557.0" y="1254.0" type="curve" smooth="yes"/>
      <point x="783.0" y="861.0" type="line"/>
      <point x="934.0" y="861.0" type="line"/>
      <point x="934.0" y="1250.0" type="line"/>
      <point x="778.0" y="1280.0" type="line"/>
      <point x="778.0" y="1456.0" type="line"/>
      <point x="1381.0" y="1456.0" type="line"/>
      <point x="1381.0" y="1280.0" type="line"/>
      <point x="1225.0" y="1250.0" type="line"/>
      <point x="1225.0" y="861.0" type="line"/>
      <point x="1376.0" y="861.0" type="line"/>
      <point x="1598.0" y="1254.0" type="line" smooth="yes"/>
      <point x="1690.0" y="1415.0"/>
      <point x="1763.0" y="1470.0"/>
      <point x="1908.0" y="1470.0" type="curve" smooth="yes"/>
      <point x="1977.0" y="1470.0"/>
      <point x="2037.0" y="1450.0"/>
      <point x="2088.0" y="1419.0" type="curve"/>
      <point x="2047.0" y="1200.0" type="line"/>
      <point x="2019.0" y="1207.0"/>
      <point x="1999.0" y="1212.0"/>
      <point x="1972.0" y="1212.0" type="curve" smooth="yes"/>
      <point x="1915.0" y="1212.0"/>
      <point x="1875.0" y="1184.0"/>
      <point x="1812.0" y="1089.0" type="curve" smooth="yes"/>
      <point x="1626.0" y="787.0" type="line"/>
      <point x="1964.0" y="196.0" type="line"/>
      <point x="2115.0" y="175.0" type="line"/>
      <point x="2115.0" y="0.0" type="line"/>
      <point x="1558.0" y="0.0" type="line"/>
      <point x="1558.0" y="175.0" type="line"/>
      <point x="1616.0" y="186.0" type="line"/>
      <point x="1614.0" y="189.0" type="line"/>
      <point x="1400.0" y="596.0" type="line"/>
      <point x="1225.0" y="596.0" type="line"/>
      <point x="1225.0" y="205.0" type="line"/>
      <point x="1381.0" y="175.0" type="line"/>
      <point x="1381.0" y="0.0" type="line"/>
      <point x="778.0" y="0.0" type="line"/>
      <point x="778.0" y="175.0" type="line"/>
      <point x="934.0" y="205.0" type="line"/>
      <point x="934.0" y="596.0" type="line"/>
    </contour>
  </outline>
</glyph>
<glyph name="Ze-cy" format="1">
  <advance width="1221"/>
  <unicode hex="0417"/>
  <outline>
    <contour>
      <point x="608" y="852" type="line" smooth="yes"/>
      <point x="764.0" y="852.0"/>
      <point x="837.0" y="927.6666666666667"/>
      <point x="837" y="1057" type="curve" smooth="yes"/>
      <point x="837.0" y="1170.3333333333335"/>
      <point x="749.3333333333333" y="1252.0"/>
      <point x="572" y="1252" type="curve" smooth="yes"/>
      <point x="457.33333333333326" y="1252.0"/>
      <point x="368.0" y="1215.0"/>
      <point x="316" y="1159" type="curve"/>
      <point x="286" y="978" type="line"/>
      <point x="69" y="978" type="line"/>
      <point x="69" y="1253" type="line"/>
      <point x="182.3333333333333" y="1386.3333333333335"/>
      <point x="370.6666666666667" y="1477.0"/>
      <point x="592" y="1477" type="curve" smooth="yes"/>
      <point x="922.6666666666665" y="1477.0"/>
      <point x="1128.0" y="1327.6666666666665"/>
      <point x="1128" y="1061" type="curve" smooth="yes"/>
      <point x="1128.0" y="927.6666666666667"/>
      <point x="1043.0" y="810.6666666666667"/>
      <point x="903" y="748" type="curve"/>
      <point x="1063.0" y="690.6666666666667"/>
      <point x="1151.0" y="573.3333333333333"/>
      <point x="1151" y="408" type="curve" smooth="yes"/>
      <point x="1151.0" y="139.9999999999999"/>
      <point x="923.9999999999998" y="-21.0"/>
      <point x="592" y="-21" type="curve" smooth="yes"/>
      <point x="299.99999999999994" y="-21.0"/>
      <point x="51.33333333333333" y="124.6666666666668"/>
      <point x="58" y="398" type="curve"/>
      <point x="60" y="404" type="line"/>
      <point x="344" y="404" type="line"/>
      <point x="344.0" y="290.66666666666663"/>
      <point x="446.66666666666674" y="203.0"/>
      <point x="592" y="203" type="curve" smooth="yes"/>
      <point x="756.0" y="203.0"/>
      <point x="859.0" y="289.66666666666663"/>
      <point x="859" y="411" type="curve" smooth="yes"/>
      <point x="859.0" y="564.3333333333333"/>
      <point x="774.6666666666667" y="633.0"/>
      <point x="608" y="633" type="curve" smooth="yes"/>
      <point x="431" y="633" type="line"/>
      <point x="431" y="852" type="line"/>
    </contour>
  </outline>
</glyph>
<glyph name="Ii-cy" format="1">
  <advance width="1605"/>
  <unicode hex="0418"/>
  <outline>
    <contour>
      <point x="672" y="1456" type="line"/>
      <point x="672" y="1280" type="line"/>
      <point x="516" y="1250" type="line"/>
      <point x="516" y="576" type="line"/>
      <point x="522" y="574" type="line"/>
      <point x="1109" y="1169" type="line"/>
      <point x="1109" y="1250" type="line"/>
      <point x="954" y="1280" type="line"/>
      <point x="954" y="1456" type="line"/>
      <point x="1109" y="1456" type="line"/>
      <point x="1402" y="1456" type="line"/>
      <point x="1557" y="1456" type="line"/>
      <point x="1557" y="1280" type="line"/>
      <point x="1402" y="1250" type="line"/>
      <point x="1402" y="205" type="line"/>
      <point x="1557" y="175" type="line"/>
      <point x="1557" y="0" type="line"/>
      <point x="954" y="0" type="line"/>
      <point x="954" y="175" type="line"/>
      <point x="1109" y="205" type="line"/>
      <point x="1109" y="863" type="line"/>
      <point x="1103" y="865" type="line"/>
      <point x="516" y="269" type="line"/>
      <point x="516" y="205" type="line"/>
      <point x="672" y="175" type="line"/>
      <point x="672" y="0" type="line"/>
      <point x="69" y="0" type="line"/>
      <point x="69" y="175" type="line"/>
      <point x="225" y="205" type="line"/>
      <point x="225" y="1250" type="line"/>
      <point x="69" y="1280" type="line"/>
      <point x="69" y="1456" type="line"/>
      <point x="225" y="1456" type="line"/>
      <point x="516" y="1456" type="line"/>
    </contour>
  </outline>
</glyph>
<glyph name="U-cy" format="1">
  <advance width="1407"/>
  <unicode hex="0423"/>
  <outline>
    <contour>
      <point x="1386" y="1280" type="line"/>
      <point x="1244" y="1261" type="line"/>
      <point x="829" y="276" type="line" smooth="yes"/>
      <point x="743.6666666666667" y="85.33333333333337"/>
      <point x="646.3333333333333" y="-21.0"/>
      <point x="433" y="-21" type="curve" smooth="yes"/>
      <point x="399.66666666666663" y="-21.0"/>
      <point x="350.33333333333337" y="-18.666666666666664"/>
      <point x="329" y="-16" type="curve"/>
      <point x="327" y="207" type="line"/>
      <point x="341.66666666666663" y="204.33333333333331"/>
      <point x="387.33333333333337" y="203.0"/>
      <point x="406" y="203" type="curve" smooth="yes"/>
      <point x="511.33333333333337" y="203.0"/>
      <point x="555.0" y="249.33333333333337"/>
      <point x="591" y="344" type="curve" smooth="yes"/>
      <point x="613" y="399" type="line"/>
      <point x="195" y="1259" type="line"/>
      <point x="40" y="1280" type="line"/>
      <point x="40" y="1456" type="line"/>
      <point x="575" y="1456" type="line"/>
      <point x="575" y="1280" type="line"/>
      <point x="502" y="1266" type="line"/>
      <point x="713" y="809" type="line"/>
      <point x="736" y="732" type="line"/>
      <point x="742" y="732" type="line"/>
      <point x="943" y="1263" type="line"/>
      <point x="856" y="1280" type="line"/>
      <point x="856" y="1456" type="line"/>
      <point x="1386" y="1456" type="line"/>
    </contour>
  </outline>
</glyph>
<glyph name="Che-cy" format="1">
  <advance width="1553"/>
  <unicode hex="0427"/>
  <outline>
    <contour>
      <point x="901" y="175" type="line"/>
      <point x="1056" y="205" type="line"/>
      <point x="1056" y="561" type="line"/>
      <point x="966.6666666666667" y="539.6666666666667"/>
      <point x="846.3333333333333" y="528.0"/>
      <point x="761" y="528" type="curve" smooth="yes"/>
      <point x="403.6666666666667" y="528.0"/>
      <point x="200.0" y="679.0"/>
      <point x="200" y="1003" type="curve" smooth="yes"/>
      <point x="200" y="1250" type="line"/>
      <point x="44" y="1280" type="line"/>
      <point x="44" y="1456" type="line"/>
      <point x="647" y="1456" type="line"/>
      <point x="647" y="1280" type="line"/>
      <point x="491" y="1250" type="line"/>
      <point x="491" y="1003" type="line" smooth="yes"/>
      <point x="491.0" y="813.6666666666667"/>
      <point x="571.6666666666667" y="753.0"/>
      <point x="761" y="753" type="curve" smooth="yes"/>
      <point x="843.6666666666667" y="753.0"/>
      <point x="968.0" y="764.6666666666667"/>
      <point x="1056" y="786" type="curve"/>
      <point x="1056" y="1250" type="line"/>
      <point x="901" y="1280" type="line"/>
      <point x="901" y="1456" type="line"/>
      <point x="1504" y="1456" type="line"/>
      <point x="1504" y="1280" type="line"/>
      <point x="1348" y="1250" type="line"/>
      <point x="1348" y="205" type="line"/>
      <point x="1504" y="175" type="line"/>
      <point x="1504" y="0" type="line"/>
      <point x="901" y="0" type="line"/>
    </contour>
  </outline>
</glyph>
<glyph name="Yeru-cy" format="1">
  <advance width="1940"/>
  <unicode hex="042B"/>
  <outline>
    <contour>
      <point x="496" y="1456" type="line"/>
      <point x="496" y="917" type="line"/>
      <point x="746" y="917" type="line" smooth="yes"/>
      <point x="1083.3333333333333" y="917.0"/>
      <point x="1293.0" y="738.6666666666665"/>
      <point x="1293" y="464" type="curve" smooth="yes"/>
      <point x="1293.0" y="185.33333333333337"/>
      <point x="1080.6666666666665" y="0.0"/>
      <point x="746" y="0" type="curve" smooth="yes"/>
      <point x="48" y="0" type="line"/>
      <point x="48" y="175" type="line"/>
      <point x="204" y="205" type="line"/>
      <point x="204" y="1250" type="line"/>
      <point x="48" y="1280" type="line"/>
      <point x="48" y="1456" type="line"/>
      <point x="204" y="1456" type="line"/>
    </contour>
    <contour>
      <point x="1292" y="175" type="line"/>
      <point x="1448" y="205" type="line"/>
      <point x="1448" y="1250" type="line"/>
      <point x="1292" y="1280" type="line"/>
      <point x="1292" y="1456" type="line"/>
      <point x="1895" y="1456" type="line"/>
      <point x="1895" y="1280" type="line"/>
      <point x="1739" y="1250" type="line"/>
      <point x="1739" y="205" type="line"/>
      <point x="1895" y="175" type="line"/>
      <point x="1895" y="0" type="line"/>
      <point x="1292" y="0" type="line"/>
    </contour>
    <contour>
      <point x="496" y="692" type="line"/>
      <point x="496" y="224" type="line"/>
      <point x="746" y="224" type="line" smooth="yes"/>
      <point x="910.0" y="224.0"/>
      <point x="1002.0" y="326.0"/>
      <point x="1002" y="466" type="curve" smooth="yes"/>
      <point x="1002.0" y="599.3333333333333"/>
      <point x="911.3333333333333" y="692.0"/>
      <point x="746" y="692" type="curve" smooth="yes"/>
    </contour>
    <contour>
      <point x="652" y="1456" type="line"/>
      <point x="652" y="1280" type="line"/>
      <point x="496" y="1250" type="line"/>
      <point x="496" y="1456" type="line"/>
    </contour>
  </outline>
</glyph>
<glyph name="Ereversed-cy" format="1">
  <advance width="1268"/>
  <unicode hex="042D"/>
  <outline>
    <contour>
      <point x="47" y="1254" type="line"/>
      <point x="165.66666666666663" y="1388.6666666666665"/>
      <point x="351.3333333333333" y="1477.0"/>
      <point x="578" y="1477" type="curve" smooth="yes"/>
      <point x="967.3333333333331" y="1477.0"/>
      <point x="1231.0" y="1178.6666666666665"/>
      <point x="1231" y="752" type="curve" smooth="yes"/>
      <point x="1231" y="703" type="line" smooth="yes"/>
      <point x="1231.0" y="277.66666666666674"/>
      <point x="964.6666666666665" y="-20.0"/>
      <point x="578" y="-20" type="curve" smooth="yes"/>
      <point x="351.3333333333333" y="-20.0"/>
      <point x="165.66666666666666" y="66.0"/>
      <point x="47" y="202" type="curve"/>
      <point x="47" y="490" type="line"/>
      <point x="264" y="490" type="line"/>
      <point x="294" y="297" type="line"/>
      <point x="344.66666666666663" y="239.66666666666663"/>
      <point x="445.66666666666663" y="204.0"/>
      <point x="563" y="204" type="curve" smooth="yes"/>
      <point x="780.3333333333333" y="204.0"/>
      <point x="911.0" y="363.6666666666667"/>
      <point x="931" y="609" type="curve"/>
      <point x="929" y="614" type="line"/>
      <point x="420" y="614" type="line"/>
      <point x="420" y="840" type="line"/>
      <point x="929" y="840" type="line"/>
      <point x="931" y="845" type="line"/>
      <point x="911.0" y="1091.6666666666667"/>
      <point x="782.0" y="1252.0"/>
      <point x="558" y="1252" type="curve" smooth="yes"/>
      <point x="436.66666666666663" y="1252.0"/>
      <point x="350.0" y="1216.3333333333335"/>
      <point x="294" y="1159" type="curve"/>
      <point x="264" y="966" type="line"/>
      <point x="47" y="966" type="line"/>
    </contour>
  </outline>
</glyph>
<glyph name="Iu-cy" format="1">
  <advance width="1979"/>
  <unicode hex="042E"/>
  <outline>
    <contour>
      <point x="19" y="1280" type="line"/>
      <point x="19" y="1456" type="line"/>
      <point x="622" y="1456" type="line"/>
      <point x="622" y="1280" type="line"/>
      <point x="466" y="1250" type="line"/>
      <point x="466" y="810" type="line"/>
      <point x="605" y="810" type="line"/>
      <point x="633.0" y="1199.3333333333333"/>
      <point x="889.6666666666665" y="1476.0"/>
      <point x="1259" y="1476" type="curve" smooth="yes"/>
      <point x="1653.6666666666665" y="1476.0"/>
      <point x="1922.0" y="1162.0"/>
      <point x="1922" y="738" type="curve" smooth="yes"/>
      <point x="1922" y="716" type="line" smooth="yes"/>
      <point x="1922.0" y="289.33333333333337"/>
      <point x="1654.6666666666665" y="-22.0"/>
      <point x="1260" y="-22" type="curve" smooth="yes"/>
      <point x="909.3333333333335" y="-22.0"/>
      <point x="659.0" y="225.0"/>
      <point x="611" y="585" type="curve"/>
      <point x="466" y="585" type="line"/>
      <point x="466" y="205" type="line"/>
      <point x="622" y="175" type="line"/>
      <point x="622" y="0" type="line"/>
      <point x="19" y="0" type="line"/>
      <point x="19" y="175" type="line"/>
      <point x="175" y="205" type="line"/>
      <point x="175" y="1250" type="line"/>
    </contour>
    <contour>
      <point x="1631" y="740" type="line" smooth="yes"/>
      <point x="1631.0" y="1041.3333333333333"/>
      <point x="1504.3333333333335" y="1248.0"/>
      <point x="1259" y="1248" type="curve" smooth="yes"/>
      <point x="1013.6666666666663" y="1248.0"/>
      <point x="894.0" y="1043.9999999999998"/>
      <point x="894" y="740" type="curve" smooth="yes"/>
      <point x="894" y="716" type="line" smooth="yes"/>
      <point x="894.0" y="409.3333333333335"/>
      <point x="1016.0" y="205.0"/>
      <point x="1260" y="205" type="curve" smooth="yes"/>
      <point x="1506.6666666666665" y="205.0"/>
      <point x="1631.0" y="409.3333333333334"/>
      <point x="1631" y="716" type="curve" smooth="yes"/>
    </contour>
  </outline>
</glyph>
<glyph name="be-cy" format="1">
  <advance width="1172"/>
  <unicode hex="0431"/>
  <outline>
    <contour>
      <point x="624" y="1022" type="curve" smooth="yes"/>
      <point x="928.0" y="1022.0"/>
      <point x="1110.0" y="815.3333333333333"/>
      <point x="1110" y="518" type="curve" smooth="yes"/>
      <point x="1110" y="497" type="line" smooth="yes"/>
      <point x="1110.0" y="190.33333333333331"/>
      <point x="918.6666666666665" y="-21.0"/>
      <point x="600" y="-21" type="curve" smooth="yes"/>
      <point x="280.0" y="-21.0"/>
      <point x="89.0" y="196.33333333333337"/>
      <point x="89" y="503" type="curve" smooth="yes"/>
      <point x="89" y="642" type="line" smooth="yes"/>
      <point x="90.33333333333334" y="1116.6666666666665"/>
      <point x="291.66666666666674" y="1369.3333333333335"/>
      <point x="589" y="1428" type="curve" smooth="yes"/>
      <point x="718.3333333333333" y="1449.3333333333335"/>
      <point x="779.0" y="1477.0"/>
      <point x="779" y="1557" type="curve"/>
      <point x="1005" y="1557" type="line"/>
      <point x="1008" y="1551" type="line"/>
      <point x="1013.3333333333333" y="1292.3333333333335"/>
      <point x="900.6666666666665" y="1242.6666666666665"/>
      <point x="602" y="1196" type="curve" smooth="yes"/>
      <point x="452.66666666666674" y="1170.6666666666665"/>
      <point x="363.33333333333337" y="1080.0"/>
      <point x="338" y="916" type="curve"/>
      <point x="342" y="911" type="line"/>
      <point x="415.33333333333337" y="976.3333333333333"/>
      <point x="517.3333333333333" y="1022.0"/>
    </contour>
    <contour>
      <point x="598" y="797" type="curve" smooth="yes"/>
      <point x="447.33333333333326" y="797.0"/>
      <point x="381.0" y="682.0"/>
      <point x="381" y="518" type="curve" smooth="yes"/>
      <point x="381" y="503" type="line" smooth="yes"/>
      <point x="381.0" y="324.33333333333337"/>
      <point x="446.66666666666674" y="203.0"/>
      <point x="600" y="203" type="curve" smooth="yes"/>
      <point x="750.6666666666667" y="203.0"/>
      <point x="818.0" y="319.66666666666674"/>
      <point x="818" y="497" type="curve" smooth="yes"/>
      <point x="818" y="518" type="line" smooth="yes"/>
      <point x="818.0" y="682.0"/>
      <point x="750.0" y="797.0"/>
    </contour>
  </outline>
</glyph>
<glyph name="ge-cy" format="1">
  <advance width="1088"/>
  <unicode hex="0433"/>
  <outline>
    <contour>
      <point x="215" y="876" type="line"/>
      <point x="60" y="906" type="line"/>
      <point x="60" y="1082" type="line"/>
      <point x="1008" y="1082" type="line"/>
      <point x="1008" y="701" type="line"/>
      <point x="825" y="701" type="line"/>
      <point x="813" y="856" type="line"/>
      <point x="507" y="856" type="line"/>
      <point x="507" y="205" type="line"/>
      <point x="662" y="175" type="line"/>
      <point x="662" y="0" type="line"/>
      <point x="60" y="0" type="line"/>
      <point x="60" y="175" type="line"/>
      <point x="215" y="205" type="line"/>
    </contour>
  </outline>
</glyph>
<glyph name="de-cy" format="1">
  <advance width="1348"/>
  <unicode hex="0434"/>
  <outline>
    <contour>
      <point x="143" y="226" type="line"/>
      <point x="276.33333333333326" y="364.66666666666663"/>
      <point x="311.66666666666663" y="468.99999999999994"/>
      <point x="317" y="717" type="curve" smooth="yes"/>
      <point x="319" y="876" type="line"/>
      <point x="166" y="906" type="line"/>
      <point x="166" y="1082" type="line"/>
      <point x="1120" y="1082" type="line"/>
      <point x="1276" y="1082" type="line"/>
      <point x="1276" y="906" type="line"/>
      <point x="1120" y="876" type="line"/>
      <point x="1120" y="224" type="line"/>
      <point x="1277" y="224" type="line"/>
      <point x="1257" y="-324" type="line"/>
      <point x="985" y="-324" type="line"/>
      <point x="985" y="0" type="line"/>
      <point x="347" y="0" type="line"/>
      <point x="347" y="-324" type="line"/>
      <point x="74" y="-324" type="line"/>
      <point x="49" y="226" type="line"/>
    </contour>
    <contour>
      <point x="609" y="717" type="line" smooth="yes"/>
      <point x="598.3333333333333" y="502.33333333333326"/>
      <point x="551.6666666666667" y="342.33333333333337"/>
      <point x="477" y="225" type="curve"/>
      <point x="830" y="225" type="line"/>
      <point x="830" y="849" type="line"/>
      <point x="610" y="849" type="line"/>
    </contour>
  </outline>
</glyph>
<glyph name="ii-cy" format="1">
  <advance width="1417"/>
  <unicode hex="0438"/>
  <outline>
    <contour>
      <point x="673" y="1082" type="line"/>
      <point x="673" y="906" type="line"/>
      <point x="533" y="876" type="line"/>
      <point x="533" y="425" type="line"/>
      <point x="539" y="424" type="line"/>
      <point x="891" y="1082" type="line"/>
      <point x="1183" y="1082" type="line"/>
      <point x="1338" y="1082" type="line"/>
      <point x="1338" y="906" type="line"/>
      <point x="1183" y="876" type="line"/>
      <point x="1183" y="205" type="line"/>
      <point x="1338" y="175" type="line"/>
      <point x="1338" y="0" type="line"/>
      <point x="751" y="0" type="line"/>
      <point x="751" y="175" type="line"/>
      <point x="891" y="205" type="line"/>
      <point x="891" y="658" type="line"/>
      <point x="885" y="659" type="line"/>
      <point x="533" y="0" type="line"/>
      <point x="85" y="0" type="line"/>
      <point x="85" y="175" type="line"/>
      <point x="241" y="205" type="line"/>
      <point x="241" y="876" type="line"/>
      <point x="85" y="906" type="line"/>
      <point x="85" y="1082" type="line"/>
      <point x="533" y="1082" type="line"/>
    </contour>
  </outline>
</glyph>
<glyph name="ka-cy" format="1">
  <advance width="1330"/>
  <unicode hex="043A"/>
  <outline>
    <contour>
      <point x="91" y="906" type="line"/>
      <point x="91" y="1082" type="line"/>
      <point x="671" y="1082" type="line"/>
      <point x="671" y="906" type="line"/>
      <point x="538" y="876" type="line"/>
      <point x="538" y="670" type="line"/>
      <point x="638" y="670" type="line"/>
      <point x="800" y="910" type="line" smooth="yes"/>
      <point x="881.3333333333333" y="1035.3333333333333"/>
      <point x="961.6666666666666" y="1099.0"/>
      <point x="1095" y="1099" type="curve" smooth="yes"/>
      <point x="1161.6666666666665" y="1099.0"/>
      <point x="1212.0" y="1079.0"/>
      <point x="1264" y="1047" type="curve"/>
      <point x="1215" y="845" type="line"/>
      <point x="1175.0" y="855.6666666666667"/>
      <point x="1176.6666666666665" y="857.0"/>
      <point x="1150" y="857" type="curve" smooth="yes"/>
      <point x="1110.0" y="857.0"/>
      <point x="1061.0" y="822.6666666666667"/>
      <point x="1029" y="776" type="curve" smooth="yes"/>
      <point x="889" y="572" type="line"/>
      <point x="1140" y="199" type="line"/>
      <point x="1287" y="175" type="line"/>
      <point x="1287" y="0" type="line"/>
      <point x="886" y="0" type="line"/>
      <point x="650" y="405" type="line"/>
      <point x="538" y="405" type="line"/>
      <point x="538" y="205" type="line"/>
      <point x="671" y="175" type="line"/>
      <point x="671" y="0" type="line"/>
      <point x="91" y="0" type="line"/>
      <point x="91" y="175" type="line"/>
      <point x="247" y="205" type="line"/>
      <point x="247" y="876" type="line"/>
    </contour>
  </outline>
</glyph>
<glyph name="el-cy" format="1">
  <advance width="1334"/>
  <unicode hex="043B"/>
  <outline>
    <contour>
      <point x="661" y="175" type="line"/>
      <point x="817" y="205" type="line"/>
      <point x="817" y="856" type="line"/>
      <point x="557" y="856" type="line"/>
      <point x="557" y="621" type="line" smooth="yes"/>
      <point x="557.0" y="194.33333333333337"/>
      <point x="439.0" y="0.0"/>
      <point x="123" y="0" type="curve" smooth="yes"/>
      <point x="77" y="0" type="line"/>
      <point x="73" y="230" type="line"/>
      <point x="105" y="231" type="line" smooth="yes"/>
      <point x="238.33333333333331" y="231.0"/>
      <point x="265.0" y="319.66666666666674"/>
      <point x="265" y="621" type="curve" smooth="yes"/>
      <point x="265" y="876" type="line"/>
      <point x="109" y="906" type="line"/>
      <point x="109" y="1082" type="line"/>
      <point x="1108" y="1082" type="line"/>
      <point x="1264" y="1082" type="line"/>
      <point x="1264" y="906" type="line"/>
      <point x="1108" y="876" type="line"/>
      <point x="1108" y="205" type="line"/>
      <point x="1264" y="175" type="line"/>
      <point x="1264" y="0" type="line"/>
      <point x="661" y="0" type="line"/>
    </contour>
  </outline>
</glyph>
<glyph name="en-cy" format="1">
  <advance width="1415"/>
  <unicode hex="043D"/>
  <outline>
    <contour>
      <point x="85" y="906" type="line"/>
      <point x="85" y="1082" type="line"/>
      <point x="658" y="1082" type="line"/>
      <point x="658" y="906" type="line"/>
      <point x="532" y="876" type="line"/>
      <point x="532" y="644" type="line"/>
      <point x="888" y="644" type="line"/>
      <point x="888" y="876" type="line"/>
      <point x="763" y="906" type="line"/>
      <point x="763" y="1082" type="line"/>
      <point x="888" y="1082" type="line"/>
      <point x="1180" y="1082" type="line"/>
      <point x="1336" y="1082" type="line"/>
      <point x="1336" y="906" type="line"/>
      <point x="1180" y="876" type="line"/>
      <point x="1180" y="205" type="line"/>
      <point x="1336" y="175" type="line"/>
      <point x="1336" y="0" type="line"/>
      <point x="763" y="0" type="line"/>
      <point x="763" y="175" type="line"/>
      <point x="888" y="205" type="line"/>
      <point x="888" y="420" type="line"/>
      <point x="532" y="420" type="line"/>
      <point x="532" y="205" type="line"/>
      <point x="658" y="175" type="line"/>
      <point x="658" y="0" type="line"/>
      <point x="85" y="0" type="line"/>
      <point x="85" y="175" type="line"/>
      <point x="241" y="205" type="line"/>
      <point x="241" y="876" type="line"/>
    </contour>
  </outline>
</glyph>
<glyph name="es-cy" format="1">
  <advance width="1079"/>
  <unicode hex="0441"/>
  <outline>
    <contour>
      <point x="571" y="203" type="curve" smooth="yes"/>
      <point x="675.0" y="203.0"/>
      <point x="743.0" y="268.66666666666663"/>
      <point x="743" y="370" type="curve"/>
      <point x="1007" y="370" type="line"/>
      <point x="1010" y="364" type="line"/>
      <point x="1015.3333333333333" y="145.33333333333337"/>
      <point x="823.0" y="-21.0"/>
      <point x="571" y="-21" type="curve" smooth="yes"/>
      <point x="248.33333333333337" y="-21.0"/>
      <point x="67.0" y="205.0"/>
      <point x="67" y="525" type="curve" smooth="yes"/>
      <point x="67" y="555" type="line" smooth="yes"/>
      <point x="67.0" y="873.6666666666665"/>
      <point x="253.00000000000006" y="1102.0"/>
      <point x="585" y="1102" type="curve" smooth="yes"/>
      <point x="759.6666666666667" y="1102.0"/>
      <point x="901.0" y="1047.6666666666667"/>
      <point x="993" y="953" type="curve"/>
      <point x="997" y="664" type="line"/>
      <point x="760" y="664" type="line"/>
      <point x="712" y="833" type="line"/>
      <point x="682.6666666666667" y="858.3333333333333"/>
      <point x="639.6666666666667" y="877.0"/>
      <point x="585" y="877" type="curve" smooth="yes"/>
      <point x="419.66666666666674" y="877.0"/>
      <point x="359.0" y="744.3333333333333"/>
      <point x="359" y="555" type="curve" smooth="yes"/>
      <point x="359" y="525" type="line" smooth="yes"/>
      <point x="359.0" y="331.66666666666674"/>
      <point x="413.66666666666674" y="203.0"/>
    </contour>
  </outline>
</glyph>
<glyph name="te-cy" format="1">
  <advance width="1243"/>
  <unicode hex="0442"/>
  <outline>
    <contour>
      <point x="1185" y="1082" type="line"/>
      <point x="1185" y="713" type="line"/>
      <point x="961" y="713" type="line"/>
      <point x="949" y="859" type="line"/>
      <point x="764" y="859" type="line"/>
      <point x="764" y="205" type="line"/>
      <point x="919" y="175" type="line"/>
      <point x="919" y="0" type="line"/>
      <point x="316" y="0" type="line"/>
      <point x="316" y="175" type="line"/>
      <point x="471" y="205" type="line"/>
      <point x="471" y="859" type="line"/>
      <point x="290" y="859" type="line"/>
      <point x="279" y="713" type="line"/>
      <point x="55" y="713" type="line"/>
      <point x="55" y="1082" type="line"/>
    </contour>
  </outline>
</glyph>
<glyph name="tse-cy" format="1">
  <advance width="1387"/>
  <unicode hex="0446"/>
  <outline>
    <contour>
      <point x="722" y="906" type="line"/>
      <point x="722" y="1082" type="line"/>
      <point x="1303" y="1082" type="line"/>
      <point x="1303" y="906" type="line"/>
      <point x="1148" y="875" type="line"/>
      <point x="1148" y="223" type="line"/>
      <point x="1311" y="223" type="line"/>
      <point x="1291" y="-321" type="line"/>
      <point x="1020" y="-321" type="line"/>
      <point x="1020" y="0" type="line"/>
      <point x="50" y="0" type="line"/>
      <point x="50" y="175" type="line"/>
      <point x="206" y="205" type="line"/>
      <point x="206" y="876" type="line"/>
      <point x="50" y="906" type="line"/>
      <point x="50" y="1082" type="line"/>
      <point x="630" y="1082" type="line"/>
      <point x="630" y="906" type="line"/>
      <point x="497" y="876" type="line"/>
      <point x="497" y="224" type="line"/>
      <point x="855" y="224" type="line"/>
      <point x="855" y="876" type="line"/>
    </contour>
  </outline>
</glyph>
<glyph name="che-cy" format="1">
  <advance width="1375"/>
  <unicode hex="0447"/>
  <outline>
    <contour>
      <point x="621" y="1082" type="line"/>
      <point x="621" y="907" type="line"/>
      <point x="496" y="877" type="line"/>
      <point x="496" y="742" type="line" smooth="yes"/>
      <point x="496.0" y="599.3333333333331"/>
      <point x="552.6666666666669" y="553.0"/>
      <point x="702" y="553" type="curve" smooth="yes"/>
      <point x="751.3333333333333" y="553.0"/>
      <point x="799.3333333333333" y="558.3333333333333"/>
      <point x="850" y="569" type="curve"/>
      <point x="850" y="876" type="line"/>
      <point x="724" y="906" type="line"/>
      <point x="724" y="1082" type="line"/>
      <point x="1298" y="1082" type="line"/>
      <point x="1298" y="906" type="line"/>
      <point x="1142" y="876" type="line"/>
      <point x="1142" y="205" type="line"/>
      <point x="1298" y="175" type="line"/>
      <point x="1298" y="0" type="line"/>
      <point x="694" y="0" type="line"/>
      <point x="694" y="175" type="line"/>
      <point x="850" y="205" type="line"/>
      <point x="850" y="343" type="line"/>
      <point x="800.6666666666667" y="332.33333333333337"/>
      <point x="747.3333333333333" y="328.0"/>
      <point x="702" y="328" type="curve" smooth="yes"/>
      <point x="383.3333333333335" y="328.0"/>
      <point x="204.0" y="462.0"/>
      <point x="204" y="742" type="curve" smooth="yes"/>
      <point x="204" y="877" type="line"/>
      <point x="49" y="907" type="line"/>
      <point x="49" y="1082" type="line"/>
      <point x="496" y="1082" type="line"/>
    </contour>
  </outline>
</glyph>
<glyph name="sha-cy" format="1">
  <advance width="1927"/>
  <unicode hex="0448"/>
  <outline>
    <contour>
      <point x="85" y="906" type="line"/>
      <point x="85" y="1082" type="line"/>
      <point x="532" y="1082" type="line"/>
      <point x="688" y="1082" type="line"/>
      <point x="688" y="906" type="line"/>
      <point x="532" y="876" type="line"/>
      <point x="532" y="224" type="line"/>
      <point x="827" y="224" type="line"/>
      <point x="827" y="1082" type="line"/>
      <point x="1119" y="1082" type="line"/>
      <point x="1119" y="224" type="line"/>
      <point x="1414" y="224" type="line"/>
      <point x="1414" y="876" type="line"/>
      <point x="1258" y="906" type="line"/>
      <point x="1258" y="1082" type="line"/>
      <point x="1705" y="1082" type="line"/>
      <point x="1861" y="1082" type="line"/>
      <point x="1861" y="906" type="line"/>
      <point x="1705" y="876" type="line"/>
      <point x="1705" y="205" type="line"/>
      <point x="1861" y="175" type="line"/>
      <point x="1861" y="0" type="line"/>
      <point x="85" y="0" type="line"/>
      <point x="85" y="175" type="line"/>
      <point x="241" y="205" type="line"/>
      <point x="241" y="876" type="line"/>
    </contour>
  </outline>
</glyph>
<glyph name="shcha-cy" format="1">
  <advance width="1942"/>
  <unicode hex="0449"/>
  <outline>
    <contour>
      <point x="1858" y="906" type="line"/>
      <point x="1702" y="876" type="line"/>
      <point x="1702" y="224" type="line"/>
      <point x="1872" y="224" type="line"/>
      <point x="1852" y="-321" type="line"/>
      <point x="1581" y="-321" type="line"/>
      <point x="1581" y="0" type="line"/>
      <point x="82" y="0" type="line"/>
      <point x="82" y="175" type="line"/>
      <point x="238" y="205" type="line"/>
      <point x="238" y="876" type="line"/>
      <point x="82" y="906" type="line"/>
      <point x="82" y="1082" type="line"/>
      <point x="238" y="1082" type="line"/>
      <point x="529" y="1082" type="line"/>
      <point x="685" y="1082" type="line"/>
      <point x="685" y="906" type="line"/>
      <point x="529" y="876" type="line"/>
      <point x="529" y="224" type="line"/>
      <point x="824" y="224" type="line"/>
      <point x="824" y="1082" type="line"/>
      <point x="1116" y="1082" type="line"/>
      <point x="1116" y="224" type="line"/>
      <point x="1411" y="224" type="line"/>
      <point x="1411" y="876" type="line"/>
      <point x="1255" y="906" type="line"/>
      <point x="1255" y="1082" type="line"/>
      <point x="1858" y="1082" type="line"/>
    </contour>
  </outline>
</glyph>
<glyph name="hardsign-cy" format="1">
  <advance width="1429"/>
  <unicode hex="044A"/>
  <outline>
    <contour>
      <point x="274" y="856" type="line"/>
      <point x="263" y="714" type="line"/>
      <point x="39" y="714" type="line"/>
      <point x="39" y="1082" type="line"/>
      <point x="918" y="1082" type="line"/>
      <point x="918" y="906" type="line"/>
      <point x="762" y="876" type="line"/>
      <point x="762" y="733" type="line"/>
      <point x="965" y="733" type="line" smooth="yes"/>
      <point x="1258.3333333333335" y="733.0"/>
      <point x="1434.0" y="590.6666666666666"/>
      <point x="1434" y="372" type="curve" smooth="yes"/>
      <point x="1434.0" y="148.0"/>
      <point x="1257.0" y="0.0"/>
      <point x="965" y="0" type="curve" smooth="yes"/>
      <point x="314" y="0" type="line"/>
      <point x="314" y="175" type="line"/>
      <point x="470" y="205" type="line"/>
      <point x="470" y="856" type="line"/>
    </contour>
    <contour>
      <point x="762" y="522" type="line"/>
      <point x="762" y="223" type="line"/>
      <point x="965" y="223" type="line" smooth="yes"/>
      <point x="1085.0" y="223.0"/>
      <point x="1143.0" y="282.0"/>
      <point x="1143" y="370" type="curve" smooth="yes"/>
      <point x="1143.0" y="460.66666666666663"/>
      <point x="1086.3333333333335" y="522.0"/>
      <point x="965" y="522" type="curve" smooth="yes"/>
    </contour>
  </outline>
</glyph>
<glyph name="softsign-cy" format="1">
  <advance width="1254"/>
  <unicode hex="044C"/>
  <outline>
    <contour>
      <point x="539" y="1082" type="line"/>
      <point x="539" y="733" type="line"/>
      <point x="742" y="733" type="line" smooth="yes"/>
      <point x="1035.3333333333333" y="733.0"/>
      <point x="1211.0" y="590.6666666666666"/>
      <point x="1211" y="372" type="curve" smooth="yes"/>
      <point x="1211.0" y="147.9999999999999"/>
      <point x="1034.0" y="0.0"/>
      <point x="742" y="0" type="curve" smooth="yes"/>
      <point x="91" y="0" type="line"/>
      <point x="91" y="175" type="line"/>
      <point x="247" y="205" type="line"/>
      <point x="247" y="876" type="line"/>
      <point x="91" y="906" type="line"/>
      <point x="91" y="1082" type="line"/>
      <point x="247" y="1082" type="line"/>
    </contour>
    <contour>
      <point x="539" y="522" type="line"/>
      <point x="539" y="223" type="line"/>
      <point x="742" y="223" type="line" smooth="yes"/>
      <point x="862.0" y="223.0"/>
      <point x="920.0" y="282.0"/>
      <point x="920" y="370" type="curve" smooth="yes"/>
      <point x="920.0" y="460.66666666666663"/>
      <point x="863.3333333333333" y="522.0"/>
      <point x="742" y="522" type="curve" smooth="yes"/>
    </contour>
    <contour>
      <point x="695" y="1082" type="line"/>
      <point x="695" y="906" type="line"/>
      <point x="539" y="876" type="line"/>
      <point x="539" y="1082" type="line"/>
    </contour>
  </outline>
</glyph>
<glyph name="e-cy" format="1">
  <advance width="1107"/>
  <unicode hex="0454"/>
  <outline>
    <contour>
      <point x="586" y="203" type="curve" smooth="yes"/>
      <point x="690.0" y="203.0"/>
      <point x="758.0" y="268.66666666666663"/>
      <point x="758" y="370" type="curve"/>
      <point x="1022" y="370" type="line"/>
      <point x="1025" y="364" type="line"/>
      <point x="1030.3333333333335" y="145.33333333333337"/>
      <point x="838.0" y="-21.0"/>
      <point x="586" y="-21" type="curve" smooth="yes"/>
      <point x="263.33333333333337" y="-21.0"/>
      <point x="82.0" y="205.0"/>
      <point x="82" y="525" type="curve" smooth="yes"/>
      <point x="82" y="555" type="line" smooth="yes"/>
      <point x="82.0" y="873.6666666666665"/>
      <point x="268.00000000000006" y="1102.0"/>
      <point x="600" y="1102" type="curve" smooth="yes"/>
      <point x="774.6666666666667" y="1102.0"/>
      <point x="916.0" y="1047.6666666666667"/>
      <point x="1008" y="953" type="curve"/>
      <point x="1012" y="664" type="line"/>
      <point x="775" y="664" type="line"/>
      <point x="727" y="833" type="line"/>
      <point x="697.6666666666667" y="858.3333333333333"/>
      <point x="654.6666666666667" y="877.0"/>
      <point x="600" y="877" type="curve" smooth="yes"/>
      <point x="453.33333333333326" y="877.0"/>
      <point x="387.66666666666663" y="772.6666666666667"/>
      <point x="381" y="622" type="curve"/>
      <point x="383" y="617" type="line"/>
      <point x="674" y="617" type="line"/>
      <point x="674" y="442" type="line"/>
      <point x="385" y="442" type="line"/>
      <point x="383" y="437" type="line"/>
      <point x="392.33333333333337" y="294.33333333333337"/>
      <point x="452.66666666666674" y="203.0"/>
    </contour>
  </outline>
</glyph>
<glyph name="yat-cy" format="1">
  <advance width="1243"/>
  <unicode hex="0463"/>
  <outline>
    <contour>
      <point x="537" y="1261" type="line"/>
      <point x="792" y="1261" type="line"/>
      <point x="792" y="1081" type="line"/>
      <point x="537" y="1081" type="line"/>
      <point x="537" y="786" type="line"/>
      <point x="740" y="786" type="line" smooth="yes"/>
      <point x="1030.6666666666665" y="786.0"/>
      <point x="1208.0" y="628.3333333333334"/>
      <point x="1208" y="395" type="curve" smooth="yes"/>
      <point x="1208.0" y="159.0000000000001"/>
      <point x="1029.3333333333335" y="0.0"/>
      <point x="740" y="0" type="curve" smooth="yes"/>
      <point x="89" y="0" type="line"/>
      <point x="89" y="175" type="line"/>
      <point x="244" y="205" type="line"/>
      <point x="244" y="1081" type="line"/>
      <point x="88" y="1081" type="line"/>
      <point x="88" y="1261" type="line"/>
      <point x="244" y="1261" type="line"/>
      <point x="244" y="1355" type="line"/>
      <point x="89" y="1385" type="line"/>
      <point x="89" y="1561" type="line"/>
      <point x="537" y="1561" type="line"/>
    </contour>
    <contour>
      <point x="537" y="562" type="line"/>
      <point x="537" y="223" type="line"/>
      <point x="740" y="223" type="line" smooth="yes"/>
      <point x="858.6666666666667" y="223.0"/>
      <point x="917.0" y="293.00000000000006"/>
      <point x="917" y="393" type="curve" smooth="yes"/>
      <point x="917.0" y="489.00000000000006"/>
      <point x="858.6666666666667" y="562.0"/>
      <point x="740" y="562" type="curve" smooth="yes"/>
    </contour>
  </outline>
</glyph>
<glyph name="Eiotified-cy" format="1">
  <advance width="1912"/>
  <unicode hex="0464"/>
  <outline>
    <contour>
      <point x="1841.0" y="966.0" type="line"/>
      <point x="1624.0" y="966.0" type="line"/>
      <point x="1594.0" y="1160.0" type="line"/>
      <point x="1537.0" y="1217.0"/>
      <point x="1450.0" y="1253.0"/>
      <point x="1331.0" y="1253.0" type="curve" smooth="yes"/>
      <point x="1103.0" y="1253.0"/>
      <point x="964.0" y="1089.0"/>
      <point x="945.0" y="844.0" type="curve"/>
      <point x="948.0" y="838.0" type="line"/>
      <point x="1438.0" y="838.0" type="line"/>
      <point x="1438.0" y="651.0" type="line"/>
      <point x="945.0" y="651.0" type="line"/>
      <point x="943.0" y="646.0" type="line"/>
      <point x="954.0" y="382.0"/>
      <point x="1094.0" y="204.0"/>
      <point x="1326.0" y="204.0" type="curve" smooth="yes"/>
      <point x="1441.0" y="204.0"/>
      <point x="1542.0" y="240.0"/>
      <point x="1594.0" y="297.0" type="curve"/>
      <point x="1624.0" y="491.0" type="line"/>
      <point x="1841.0" y="491.0" type="line"/>
      <point x="1841.0" y="203.0" type="line"/>
      <point x="1724.0" y="67.0"/>
      <point x="1536.0" y="-20.0"/>
      <point x="1311.0" y="-20.0" type="curve" smooth="yes"/>
      <point x="940.0" y="-20.0"/>
      <point x="670.0" y="252.0"/>
      <point x="645.0" y="644.0" type="curve" smooth="yes"/>
      <point x="645.0" y="646.0"/>
      <point x="645.0" y="649.0"/>
      <point x="645.0" y="651.0" type="curve"/>
      <point x="503.0" y="651.0" type="line"/>
      <point x="503.0" y="205.0" type="line"/>
      <point x="659.0" y="175.0" type="line"/>
      <point x="659.0" y="0.0" type="line"/>
      <point x="56.0" y="0.0" type="line"/>
      <point x="56.0" y="175.0" type="line"/>
      <point x="212.0" y="205.0" type="line"/>
      <point x="212.0" y="1250.0" type="line"/>
      <point x="56.0" y="1280.0" type="line"/>
      <point x="56.0" y="1456.0" type="line"/>
      <point x="212.0" y="1456.0" type="line"/>
      <point x="503.0" y="1456.0" type="line"/>
      <point x="659.0" y="1456.0" type="line"/>
      <point x="659.0" y="1280.0" type="line"/>
      <point x="503.0" y="1250.0" type="line"/>
      <point x="503.0" y="838.0" type="line"/>
      <point x="648.0" y="838.0" type="line"/>
      <point x="681.0" y="1218.0"/>
      <point x="946.0" y="1478.0"/>
      <point x="1311.0" y="1478.0" type="curve" smooth="yes"/>
      <point x="1536.0" y="1478.0"/>
      <point x="1722.0" y="1389.0"/>
      <point x="1841.0" y="1254.0" type="curve"/>
    </contour>
  </outline>
</glyph>
<glyph name="eiotified-cy" format="1">
  <advance width="1644"/>
  <unicode hex="0465"/>
  <outline>
    <contour>
      <point x="514" y="632" type="line"/>
      <point x="658" y="632" type="line"/>
      <point x="686.0" y="910.6666666666665"/>
      <point x="868.0" y="1102.0"/>
      <point x="1172" y="1102" type="curve" smooth="yes"/>
      <point x="1346.6666666666665" y="1102.0"/>
      <point x="1488.0" y="1047.6666666666667"/>
      <point x="1580" y="953" type="curve"/>
      <point x="1584" y="664" type="line"/>
      <point x="1347" y="664" type="line"/>
      <point x="1299" y="833" type="line"/>
      <point x="1269.6666666666665" y="858.3333333333333"/>
      <point x="1226.6666666666665" y="877.0"/>
      <point x="1172" y="877" type="curve" smooth="yes"/>
      <point x="1030.6666666666665" y="877.0"/>
      <point x="964.3333333333333" y="778.3333333333334"/>
      <point x="955" y="637" type="curve"/>
      <point x="957" y="632" type="line"/>
      <point x="1204" y="632" type="line"/>
      <point x="1204" y="452" type="line"/>
      <point x="956" y="452" type="line"/>
      <point x="954" y="447" type="line"/>
      <point x="960.6666666666667" y="300.3333333333335"/>
      <point x="1021.9999999999999" y="203.0"/>
      <point x="1158" y="203" type="curve" smooth="yes"/>
      <point x="1262.0" y="203.0"/>
      <point x="1330.0" y="268.66666666666663"/>
      <point x="1330" y="370" type="curve"/>
      <point x="1594" y="370" type="line"/>
      <point x="1597" y="364" type="line"/>
      <point x="1602.3333333333335" y="145.33333333333337"/>
      <point x="1410.0" y="-21.0"/>
      <point x="1158" y="-21" type="curve" smooth="yes"/>
      <point x="860.6666666666667" y="-21.0"/>
      <point x="683.6666666666667" y="169.33333333333337"/>
      <point x="657" y="452" type="curve"/>
      <point x="514" y="452" type="line"/>
      <point x="514" y="205" type="line"/>
      <point x="654" y="175" type="line"/>
      <point x="654" y="0" type="line"/>
      <point x="81" y="0" type="line"/>
      <point x="81" y="175" type="line"/>
      <point x="222" y="205" type="line"/>
      <point x="222" y="876" type="line"/>
      <point x="66" y="906" type="line"/>
      <point x="66" y="1082" type="line"/>
      <point x="222" y="1082" type="line"/>
      <point x="514" y="1082" type="line"/>
    </contour>
  </outline>
</glyph>
<glyph name="Yuslittle-cy" format="1">
  <advance width="1493"/>
  <unicode hex="0466"/>
  <outline>
    <contour>
      <point x="52" y="175" type="line"/>
      <point x="164" y="190" type="line"/>
      <point x="611" y="1456" type="line"/>
      <point x="911" y="1456" type="line"/>
      <point x="1355" y="190" type="line"/>
      <point x="1467" y="175" type="line"/>
      <point x="1467" y="0" type="line"/>
      <point x="961" y="0" type="line"/>
      <point x="961" y="175" type="line"/>
      <point x="1052" y="192" type="line"/>
      <point x="966" y="455" type="line"/>
      <point x="876" y="455" type="line"/>
      <point x="876" y="0" type="line"/>
      <point x="631" y="0" type="line"/>
      <point x="631" y="455" type="line"/>
      <point x="552" y="455" type="line"/>
      <point x="466" y="192" type="line"/>
      <point x="558" y="175" type="line"/>
      <point x="558" y="0" type="line"/>
      <point x="52" y="0" type="line"/>
    </contour>
    <contour>
      <point x="619" y="656" type="line"/>
      <point x="899" y="656" type="line"/>
      <point x="773" y="1039" type="line"/>
      <point x="762" y="1071" type="line"/>
      <point x="756" y="1071" type="line"/>
      <point x="745" y="1038" type="line"/>
    </contour>
  </outline>
</glyph>
<glyph name="yuslittleiotified-cy" format="1">
  <advance width="1880"/>
  <unicode hex="0469"/>
  <outline>
    <contour>
      <point x="479" y="490" type="line"/>
      <point x="864" y="490" type="line"/>
      <point x="1088" y="1082" type="line"/>
      <point x="1388" y="1082" type="line"/>
      <point x="1725" y="189" type="line"/>
      <point x="1809" y="175" type="line"/>
      <point x="1809" y="0" type="line"/>
      <point x="1499" y="0" type="line"/>
      <point x="1390" y="318" type="line"/>
      <point x="1328" y="318" type="line"/>
      <point x="1328" y="0" type="line"/>
      <point x="1138" y="0" type="line"/>
      <point x="1138" y="318" type="line"/>
      <point x="1084" y="318" type="line"/>
      <point x="977" y="0" type="line"/>
      <point x="666" y="0" type="line"/>
      <point x="666" y="175" type="line"/>
      <point x="750" y="189" type="line"/>
      <point x="799" y="319" type="line"/>
      <point x="479" y="319" type="line"/>
      <point x="479" y="205" type="line"/>
      <point x="619" y="175" type="line"/>
      <point x="619" y="0" type="line"/>
      <point x="46" y="0" type="line"/>
      <point x="46" y="175" type="line"/>
      <point x="187" y="205" type="line"/>
      <point x="187" y="876" type="line"/>
      <point x="31" y="906" type="line"/>
      <point x="31" y="1082" type="line"/>
      <point x="187" y="1082" type="line"/>
      <point x="479" y="1082" type="line"/>
    </contour>
    <contour>
      <point x="1142" y="490" type="line"/>
      <point x="1331" y="490" type="line"/>
      <point x="1267" y="677" type="line"/>
      <point x="1240" y="791" type="line"/>
      <point x="1234" y="791" type="line"/>
      <point x="1206" y="677" type="line"/>
    </contour>
  </outline>
</glyph>
